<?xml version="1.0" standalone="no"?>
<!DOCTYPE svg PUBLIC "-//W3C//DTD SVG 1.1//EN" "http://www.w3.org/Graphics/SVG/1.1/DTD/svg11.dtd" >
<svg xmlns="http://www.w3.org/2000/svg" xmlns:xlink="http://www.w3.org/1999/xlink" version="1.1">
<metadata>
Created by FontForge 20201107 at Fri Nov 24 19:54:21 2023
 By 
Copyright 2021 The Sixtyfour Project Authors (https://github.com/jenskutilek/homecomputer-fonts)
</metadata>
<defs>
<font id="Sixtyfour-Regular" horiz-adv-x="1024" >
  <font-face 
    font-family="Sixtyfour"
    font-weight="400"
    font-stretch="normal"
    units-per-em="1024"
    panose-1="2 11 5 9 7 7 2 4 5 7"
    ascent="896"
    descent="-128"
    x-height="114"
    cap-height="114"
    bbox="-25 -256 1049 1024"
    underline-thickness="128"
    underline-position="-192"
    unicode-range="U+000D-E09D"
  />
<missing-glyph 
d="M0 -256h1024v1280h-1024v-1280z" />
    <glyph glyph-name=".notdef" 
d="M0 -256h1024v1280h-1024v-1280z" />
    <glyph glyph-name=".null" horiz-adv-x="0" 
 />
    <glyph glyph-name="nonmarkingreturn" horiz-adv-x="341" 
 />
    <glyph glyph-name="NULL" horiz-adv-x="0" 
 />
    <glyph glyph-name="NULL" horiz-adv-x="0" 
 />
    <glyph glyph-name="CR" unicode="&#xd;" 
 />
    <glyph glyph-name="space" unicode=" " 
 />
    <glyph glyph-name="exclam" unicode="!" 
d="M419 14h186q28 0 44 15t16 35t-16 35t-44 15h-186q-28 0 -44 -15t-16 -35t16 -35t44 -15zM419 398h186q28 0 44 15t16 35t-16 35t-44 15h-186q-28 0 -44 -15t-16 -35t16 -35t44 -15zM419 526h186q28 0 44 15t16 35t-16 35t-44 15h-186q-28 0 -44 -15t-16 -35t16 -35
t44 -15zM419 654h186q28 0 44 15t16 35t-16 35t-44 15h-186q-28 0 -44 -15t-16 -35t16 -35t44 -15zM419 782h186q28 0 44 15t16 35t-16 35t-44 15h-186q-28 0 -44 -15t-16 -35t16 -35t44 -15z" />
    <glyph glyph-name="quotedbl" unicode="&#x22;" 
d="M163 526h186q28 0 44 15t16 35t-16 35t-44 15h-186q-28 0 -44 -15t-16 -35t16 -35t44 -15zM675 526h186q28 0 44 15t16 35t-16 35t-44 15h-186q-28 0 -44 -15t-16 -35t16 -35t44 -15zM163 654h186q28 0 44 15t16 35t-16 35t-44 15h-186q-28 0 -44 -15t-16 -35t16 -35
t44 -15zM675 654h186q28 0 44 15t16 35t-16 35t-44 15h-186q-28 0 -44 -15t-16 -35t16 -35t44 -15zM163 782h186q28 0 44 15t16 35t-16 35t-44 15h-186q-28 0 -44 -15t-16 -35t16 -35t44 -15zM675 782h186q28 0 44 15t16 35t-16 35t-44 15h-186q-28 0 -44 -15t-16 -35
t16 -35t44 -15z" />
    <glyph glyph-name="numbersign" unicode="#" 
d="M163 14h186q28 0 44 15t16 35t-16 35t-44 15h-186q-28 0 -44 -15t-16 -35t16 -35t44 -15zM675 14h186q28 0 44 15t16 35t-16 35t-44 15h-186q-28 0 -44 -15t-16 -35t16 -35t44 -15zM163 142h186q28 0 44 15t16 35t-16 35t-44 15h-186q-28 0 -44 -15t-16 -35t16 -35
t44 -15zM675 142h186q28 0 44 15t16 35t-16 35t-44 15h-186q-28 0 -44 -15t-16 -35t16 -35t44 -15zM35 270h954q28 0 44 15t16 35t-16 35t-44 15h-954q-28 0 -44 -15t-16 -35t16 -35t44 -15zM163 398h186q28 0 44 15t16 35t-16 35t-44 15h-186q-28 0 -44 -15t-16 -35t16 -35
t44 -15zM675 398h186q28 0 44 15t16 35t-16 35t-44 15h-186q-28 0 -44 -15t-16 -35t16 -35t44 -15zM35 526h954q28 0 44 15t16 35t-16 35t-44 15h-954q-28 0 -44 -15t-16 -35t16 -35t44 -15zM163 654h186q28 0 44 15t16 35t-16 35t-44 15h-186q-28 0 -44 -15t-16 -35t16 -35
t44 -15zM675 654h186q28 0 44 15t16 35t-16 35t-44 15h-186q-28 0 -44 -15t-16 -35t16 -35t44 -15zM163 782h186q28 0 44 15t16 35t-16 35t-44 15h-186q-28 0 -44 -15t-16 -35t16 -35t44 -15zM675 782h186q28 0 44 15t16 35t-16 35t-44 15h-186q-28 0 -44 -15t-16 -35
t16 -35t44 -15z" />
    <glyph glyph-name="dollar" unicode="$" 
d="M419 14h186q28 0 44 15t16 35t-16 35t-44 15h-186q-28 0 -44 -15t-16 -35t16 -35t44 -15zM163 142h570q28 0 44 15t16 35t-16 35t-44 15h-570q-28 0 -44 -15t-16 -35t16 -35t44 -15zM675 270h186q28 0 44 15t16 35t-16 35t-44 15h-186q-28 0 -44 -15t-16 -35t16 -35
t44 -15zM291 398h442q28 0 44 15t16 35t-16 35t-44 15h-442q-28 0 -44 -15t-16 -35t16 -35t44 -15zM163 526h186q28 0 44 15t16 35t-16 35t-44 15h-186q-28 0 -44 -15t-16 -35t16 -35t44 -15zM291 654h570q28 0 44 15t16 35t-16 35t-44 15h-570q-28 0 -44 -15t-16 -35
t16 -35t44 -15zM419 782h186q28 0 44 15t16 35t-16 35t-44 15h-186q-28 0 -44 -15t-16 -35t16 -35t44 -15z" />
    <glyph glyph-name="percent" unicode="%" 
d="M154 14h76q22 0 36.5 15t14.5 35t-14.5 35t-36.5 15h-76q-22 0 -36.5 -15t-14.5 -35t14.5 -35t36.5 -15zM675 14h186q28 0 44 15t16 35t-16 35t-44 15h-186q-28 0 -44 -15t-16 -35t16 -35t44 -15zM163 142h186q28 0 44 15t16 35t-16 35t-44 15h-186q-28 0 -44 -15
t-16 -35t16 -35t44 -15zM675 142h186q28 0 44 15t16 35t-16 35t-44 15h-186q-28 0 -44 -15t-16 -35t16 -35t44 -15zM291 270h186q28 0 44 15t16 35t-16 35t-44 15h-186q-28 0 -44 -15t-16 -35t16 -35t44 -15zM419 398h186q28 0 44 15t16 35t-16 35t-44 15h-186
q-28 0 -44 -15t-16 -35t16 -35t44 -15zM547 526h186q28 0 44 15t16 35t-16 35t-44 15h-186q-28 0 -44 -15t-16 -35t16 -35t44 -15zM163 654h186q28 0 44 15t16 35t-16 35t-44 15h-186q-28 0 -44 -15t-16 -35t16 -35t44 -15zM675 654h186q28 0 44 15t16 35t-16 35t-44 15
h-186q-28 0 -44 -15t-16 -35t16 -35t44 -15zM163 782h186q28 0 44 15t16 35t-16 35t-44 15h-186q-28 0 -44 -15t-16 -35t16 -35t44 -15zM794 782h76q22 0 36.5 15t14.5 35t-14.5 35t-36.5 15h-76q-22 0 -36.5 -15t-14.5 -35t14.5 -35t36.5 -15z" />
    <glyph glyph-name="ampersand" unicode="&#x26;" 
d="M291 14h698q28 0 44 15t16 35t-16 35t-44 15h-698q-28 0 -44 -15t-16 -35t16 -35t44 -15zM163 142h186q28 0 44 15t16 35t-16 35t-44 15h-186q-28 0 -44 -15t-16 -35t16 -35t44 -15zM675 142h186q28 0 44 15t16 35t-16 35t-44 15h-186q-28 0 -44 -15t-16 -35t16 -35
t44 -15zM163 270h186q28 0 44 15t16 35t-16 35t-44 15h-186q-28 0 -44 -15t-16 -35t16 -35t44 -15zM675 270h314q28 0 44 15t16 35t-16 35t-44 15h-314q-28 0 -44 -15t-16 -35t16 -35t44 -15zM291 398h314q28 0 44 15t16 35t-16 35t-44 15h-314q-28 0 -44 -15t-16 -35
t16 -35t44 -15zM291 526h442q28 0 44 15t16 35t-16 35t-44 15h-442q-28 0 -44 -15t-16 -35t16 -35t44 -15zM163 654h186q28 0 44 15t16 35t-16 35t-44 15h-186q-28 0 -44 -15t-16 -35t16 -35t44 -15zM675 654h186q28 0 44 15t16 35t-16 35t-44 15h-186q-28 0 -44 -15
t-16 -35t16 -35t44 -15zM291 782h442q28 0 44 15t16 35t-16 35t-44 15h-442q-28 0 -44 -15t-16 -35t16 -35t44 -15z" />
    <glyph glyph-name="quotesingle" unicode="'" 
d="M291 526h186q28 0 44 15t16 35t-16 35t-44 15h-186q-28 0 -44 -15t-16 -35t16 -35t44 -15zM419 654h186q28 0 44 15t16 35t-16 35t-44 15h-186q-28 0 -44 -15t-16 -35t16 -35t44 -15zM547 782h186q28 0 44 15t16 35t-16 35t-44 15h-186q-28 0 -44 -15t-16 -35t16 -35
t44 -15z" />
    <glyph glyph-name="parenleft" unicode="(" 
d="M547 14h186q28 0 44 15t16 35t-16 35t-44 15h-186q-28 0 -44 -15t-16 -35t16 -35t44 -15zM419 142h186q28 0 44 15t16 35t-16 35t-44 15h-186q-28 0 -44 -15t-16 -35t16 -35t44 -15zM291 270h186q28 0 44 15t16 35t-16 35t-44 15h-186q-28 0 -44 -15t-16 -35t16 -35
t44 -15zM291 398h186q28 0 44 15t16 35t-16 35t-44 15h-186q-28 0 -44 -15t-16 -35t16 -35t44 -15zM291 526h186q28 0 44 15t16 35t-16 35t-44 15h-186q-28 0 -44 -15t-16 -35t16 -35t44 -15zM419 654h186q28 0 44 15t16 35t-16 35t-44 15h-186q-28 0 -44 -15t-16 -35
t16 -35t44 -15zM547 782h186q28 0 44 15t16 35t-16 35t-44 15h-186q-28 0 -44 -15t-16 -35t16 -35t44 -15z" />
    <glyph glyph-name="parenright" unicode=")" 
d="M291 14h186q28 0 44 15t16 35t-16 35t-44 15h-186q-28 0 -44 -15t-16 -35t16 -35t44 -15zM419 142h186q28 0 44 15t16 35t-16 35t-44 15h-186q-28 0 -44 -15t-16 -35t16 -35t44 -15zM547 270h186q28 0 44 15t16 35t-16 35t-44 15h-186q-28 0 -44 -15t-16 -35t16 -35
t44 -15zM547 398h186q28 0 44 15t16 35t-16 35t-44 15h-186q-28 0 -44 -15t-16 -35t16 -35t44 -15zM547 526h186q28 0 44 15t16 35t-16 35t-44 15h-186q-28 0 -44 -15t-16 -35t16 -35t44 -15zM419 654h186q28 0 44 15t16 35t-16 35t-44 15h-186q-28 0 -44 -15t-16 -35
t16 -35t44 -15zM291 782h186q28 0 44 15t16 35t-16 35t-44 15h-186q-28 0 -44 -15t-16 -35t16 -35t44 -15z" />
    <glyph glyph-name="asterisk" unicode="*" 
d="M163 142h186q28 0 44 15t16 35t-16 35t-44 15h-186q-28 0 -44 -15t-16 -35t16 -35t44 -15zM675 142h186q28 0 44 15t16 35t-16 35t-44 15h-186q-28 0 -44 -15t-16 -35t16 -35t44 -15zM291 270h442q28 0 44 15t16 35t-16 35t-44 15h-442q-28 0 -44 -15t-16 -35t16 -35
t44 -15zM35 398h954q28 0 44 15t16 35t-16 35t-44 15h-954q-28 0 -44 -15t-16 -35t16 -35t44 -15zM291 526h442q28 0 44 15t16 35t-16 35t-44 15h-442q-28 0 -44 -15t-16 -35t16 -35t44 -15zM163 654h186q28 0 44 15t16 35t-16 35t-44 15h-186q-28 0 -44 -15t-16 -35t16 -35
t44 -15zM675 654h186q28 0 44 15t16 35t-16 35t-44 15h-186q-28 0 -44 -15t-16 -35t16 -35t44 -15z" />
    <glyph glyph-name="plus" unicode="+" 
d="M419 142h186q28 0 44 15t16 35t-16 35t-44 15h-186q-28 0 -44 -15t-16 -35t16 -35t44 -15zM419 270h186q28 0 44 15t16 35t-16 35t-44 15h-186q-28 0 -44 -15t-16 -35t16 -35t44 -15zM163 398h698q28 0 44 15t16 35t-16 35t-44 15h-698q-28 0 -44 -15t-16 -35t16 -35
t44 -15zM419 526h186q28 0 44 15t16 35t-16 35t-44 15h-186q-28 0 -44 -15t-16 -35t16 -35t44 -15zM419 654h186q28 0 44 15t16 35t-16 35t-44 15h-186q-28 0 -44 -15t-16 -35t16 -35t44 -15z" />
    <glyph glyph-name="comma" unicode="," 
d="M291 -114h186q28 0 44 15t16 35t-16 35t-44 15h-186q-28 0 -44 -15t-16 -35t16 -35t44 -15zM419 14h186q28 0 44 15t16 35t-16 35t-44 15h-186q-28 0 -44 -15t-16 -35t16 -35t44 -15zM419 142h186q28 0 44 15t16 35t-16 35t-44 15h-186q-28 0 -44 -15t-16 -35t16 -35
t44 -15z" />
    <glyph glyph-name="hyphen" unicode="-" 
d="M163 398h698q28 0 44 15t16 35t-16 35t-44 15h-698q-28 0 -44 -15t-16 -35t16 -35t44 -15z" />
    <glyph glyph-name="period" unicode="." 
d="M419 14h186q28 0 44 15t16 35t-16 35t-44 15h-186q-28 0 -44 -15t-16 -35t16 -35t44 -15zM419 142h186q28 0 44 15t16 35t-16 35t-44 15h-186q-28 0 -44 -15t-16 -35t16 -35t44 -15z" />
    <glyph glyph-name="slash" unicode="/" 
d="M163 14h186q28 0 44 15t16 35t-16 35t-44 15h-186q-28 0 -44 -15t-16 -35t16 -35t44 -15zM291 142h186q28 0 44 15t16 35t-16 35t-44 15h-186q-28 0 -44 -15t-16 -35t16 -35t44 -15zM419 270h186q28 0 44 15t16 35t-16 35t-44 15h-186q-28 0 -44 -15t-16 -35t16 -35
t44 -15zM547 398h186q28 0 44 15t16 35t-16 35t-44 15h-186q-28 0 -44 -15t-16 -35t16 -35t44 -15zM675 526h186q28 0 44 15t16 35t-16 35t-44 15h-186q-28 0 -44 -15t-16 -35t16 -35t44 -15zM803 654h186q28 0 44 15t16 35t-16 35t-44 15h-186q-28 0 -44 -15t-16 -35
t16 -35t44 -15z" />
    <glyph glyph-name="zero" unicode="0" 
d="M291 14h442q28 0 44 15t16 35t-16 35t-44 15h-442q-28 0 -44 -15t-16 -35t16 -35t44 -15zM163 142h186q28 0 44 15t16 35t-16 35t-44 15h-186q-28 0 -44 -15t-16 -35t16 -35t44 -15zM675 142h186q28 0 44 15t16 35t-16 35t-44 15h-186q-28 0 -44 -15t-16 -35t16 -35
t44 -15zM163 270h186q28 0 44 15t16 35t-16 35t-44 15h-186q-28 0 -44 -15t-16 -35t16 -35t44 -15zM675 270h186q28 0 44 15t16 35t-16 35t-44 15h-186q-28 0 -44 -15t-16 -35t16 -35t44 -15zM163 398h314q28 0 44 15t16 35t-16 35t-44 15h-314q-28 0 -44 -15t-16 -35
t16 -35t44 -15zM675 398h186q28 0 44 15t16 35t-16 35t-44 15h-186q-28 0 -44 -15t-16 -35t16 -35t44 -15zM163 526h186q28 0 44 15t16 35t-16 35t-44 15h-186q-28 0 -44 -15t-16 -35t16 -35t44 -15zM547 526h314q28 0 44 15t16 35t-16 35t-44 15h-314q-28 0 -44 -15
t-16 -35t16 -35t44 -15zM163 654h186q28 0 44 15t16 35t-16 35t-44 15h-186q-28 0 -44 -15t-16 -35t16 -35t44 -15zM675 654h186q28 0 44 15t16 35t-16 35t-44 15h-186q-28 0 -44 -15t-16 -35t16 -35t44 -15zM291 782h442q28 0 44 15t16 35t-16 35t-44 15h-442
q-28 0 -44 -15t-16 -35t16 -35t44 -15z" />
    <glyph glyph-name="one" unicode="1" 
d="M163 14h698q28 0 44 15t16 35t-16 35t-44 15h-698q-28 0 -44 -15t-16 -35t16 -35t44 -15zM419 142h186q28 0 44 15t16 35t-16 35t-44 15h-186q-28 0 -44 -15t-16 -35t16 -35t44 -15zM419 270h186q28 0 44 15t16 35t-16 35t-44 15h-186q-28 0 -44 -15t-16 -35t16 -35
t44 -15zM419 398h186q28 0 44 15t16 35t-16 35t-44 15h-186q-28 0 -44 -15t-16 -35t16 -35t44 -15zM291 526h314q28 0 44 15t16 35t-16 35t-44 15h-314q-28 0 -44 -15t-16 -35t16 -35t44 -15zM419 654h186q28 0 44 15t16 35t-16 35t-44 15h-186q-28 0 -44 -15t-16 -35
t16 -35t44 -15zM419 782h186q28 0 44 15t16 35t-16 35t-44 15h-186q-28 0 -44 -15t-16 -35t16 -35t44 -15z" />
    <glyph glyph-name="two" unicode="2" 
d="M163 14h698q28 0 44 15t16 35t-16 35t-44 15h-698q-28 0 -44 -15t-16 -35t16 -35t44 -15zM163 142h186q28 0 44 15t16 35t-16 35t-44 15h-186q-28 0 -44 -15t-16 -35t16 -35t44 -15zM291 270h186q28 0 44 15t16 35t-16 35t-44 15h-186q-28 0 -44 -15t-16 -35t16 -35
t44 -15zM547 398h186q28 0 44 15t16 35t-16 35t-44 15h-186q-28 0 -44 -15t-16 -35t16 -35t44 -15zM675 526h186q28 0 44 15t16 35t-16 35t-44 15h-186q-28 0 -44 -15t-16 -35t16 -35t44 -15zM163 654h186q28 0 44 15t16 35t-16 35t-44 15h-186q-28 0 -44 -15t-16 -35
t16 -35t44 -15zM675 654h186q28 0 44 15t16 35t-16 35t-44 15h-186q-28 0 -44 -15t-16 -35t16 -35t44 -15zM291 782h442q28 0 44 15t16 35t-16 35t-44 15h-442q-28 0 -44 -15t-16 -35t16 -35t44 -15z" />
    <glyph glyph-name="three" unicode="3" 
d="M291 14h442q28 0 44 15t16 35t-16 35t-44 15h-442q-28 0 -44 -15t-16 -35t16 -35t44 -15zM163 142h186q28 0 44 15t16 35t-16 35t-44 15h-186q-28 0 -44 -15t-16 -35t16 -35t44 -15zM675 142h186q28 0 44 15t16 35t-16 35t-44 15h-186q-28 0 -44 -15t-16 -35t16 -35
t44 -15zM675 270h186q28 0 44 15t16 35t-16 35t-44 15h-186q-28 0 -44 -15t-16 -35t16 -35t44 -15zM419 398h314q28 0 44 15t16 35t-16 35t-44 15h-314q-28 0 -44 -15t-16 -35t16 -35t44 -15zM675 526h186q28 0 44 15t16 35t-16 35t-44 15h-186q-28 0 -44 -15t-16 -35
t16 -35t44 -15zM163 654h186q28 0 44 15t16 35t-16 35t-44 15h-186q-28 0 -44 -15t-16 -35t16 -35t44 -15zM675 654h186q28 0 44 15t16 35t-16 35t-44 15h-186q-28 0 -44 -15t-16 -35t16 -35t44 -15zM291 782h442q28 0 44 15t16 35t-16 35t-44 15h-442q-28 0 -44 -15
t-16 -35t16 -35t44 -15z" />
    <glyph glyph-name="four" unicode="4" 
d="M675 14h186q28 0 44 15t16 35t-16 35t-44 15h-186q-28 0 -44 -15t-16 -35t16 -35t44 -15zM675 142h186q28 0 44 15t16 35t-16 35t-44 15h-186q-28 0 -44 -15t-16 -35t16 -35t44 -15zM163 270h826q28 0 44 15t16 35t-16 35t-44 15h-826q-28 0 -44 -15t-16 -35t16 -35
t44 -15zM163 398h186q28 0 44 15t16 35t-16 35t-44 15h-186q-28 0 -44 -15t-16 -35t16 -35t44 -15zM675 398h186q28 0 44 15t16 35t-16 35t-44 15h-186q-28 0 -44 -15t-16 -35t16 -35t44 -15zM419 526h442q28 0 44 15t16 35t-16 35t-44 15h-442q-28 0 -44 -15t-16 -35
t16 -35t44 -15zM547 654h314q28 0 44 15t16 35t-16 35t-44 15h-314q-28 0 -44 -15t-16 -35t16 -35t44 -15zM675 782h186q28 0 44 15t16 35t-16 35t-44 15h-186q-28 0 -44 -15t-16 -35t16 -35t44 -15z" />
    <glyph glyph-name="five" unicode="5" 
d="M291 14h442q28 0 44 15t16 35t-16 35t-44 15h-442q-28 0 -44 -15t-16 -35t16 -35t44 -15zM163 142h186q28 0 44 15t16 35t-16 35t-44 15h-186q-28 0 -44 -15t-16 -35t16 -35t44 -15zM675 142h186q28 0 44 15t16 35t-16 35t-44 15h-186q-28 0 -44 -15t-16 -35t16 -35
t44 -15zM675 270h186q28 0 44 15t16 35t-16 35t-44 15h-186q-28 0 -44 -15t-16 -35t16 -35t44 -15zM675 398h186q28 0 44 15t16 35t-16 35t-44 15h-186q-28 0 -44 -15t-16 -35t16 -35t44 -15zM163 526h570q28 0 44 15t16 35t-16 35t-44 15h-570q-28 0 -44 -15t-16 -35
t16 -35t44 -15zM163 654h186q28 0 44 15t16 35t-16 35t-44 15h-186q-28 0 -44 -15t-16 -35t16 -35t44 -15zM163 782h698q28 0 44 15t16 35t-16 35t-44 15h-698q-28 0 -44 -15t-16 -35t16 -35t44 -15z" />
    <glyph glyph-name="six" unicode="6" 
d="M291 14h442q28 0 44 15t16 35t-16 35t-44 15h-442q-28 0 -44 -15t-16 -35t16 -35t44 -15zM163 142h186q28 0 44 15t16 35t-16 35t-44 15h-186q-28 0 -44 -15t-16 -35t16 -35t44 -15zM675 142h186q28 0 44 15t16 35t-16 35t-44 15h-186q-28 0 -44 -15t-16 -35t16 -35
t44 -15zM163 270h186q28 0 44 15t16 35t-16 35t-44 15h-186q-28 0 -44 -15t-16 -35t16 -35t44 -15zM675 270h186q28 0 44 15t16 35t-16 35t-44 15h-186q-28 0 -44 -15t-16 -35t16 -35t44 -15zM163 398h570q28 0 44 15t16 35t-16 35t-44 15h-570q-28 0 -44 -15t-16 -35
t16 -35t44 -15zM163 526h186q28 0 44 15t16 35t-16 35t-44 15h-186q-28 0 -44 -15t-16 -35t16 -35t44 -15zM163 654h186q28 0 44 15t16 35t-16 35t-44 15h-186q-28 0 -44 -15t-16 -35t16 -35t44 -15zM675 654h186q28 0 44 15t16 35t-16 35t-44 15h-186q-28 0 -44 -15
t-16 -35t16 -35t44 -15zM291 782h442q28 0 44 15t16 35t-16 35t-44 15h-442q-28 0 -44 -15t-16 -35t16 -35t44 -15z" />
    <glyph glyph-name="seven" unicode="7" 
d="M419 14h186q28 0 44 15t16 35t-16 35t-44 15h-186q-28 0 -44 -15t-16 -35t16 -35t44 -15zM419 142h186q28 0 44 15t16 35t-16 35t-44 15h-186q-28 0 -44 -15t-16 -35t16 -35t44 -15zM419 270h186q28 0 44 15t16 35t-16 35t-44 15h-186q-28 0 -44 -15t-16 -35t16 -35
t44 -15zM419 398h186q28 0 44 15t16 35t-16 35t-44 15h-186q-28 0 -44 -15t-16 -35t16 -35t44 -15zM547 526h186q28 0 44 15t16 35t-16 35t-44 15h-186q-28 0 -44 -15t-16 -35t16 -35t44 -15zM163 654h186q28 0 44 15t16 35t-16 35t-44 15h-186q-28 0 -44 -15t-16 -35
t16 -35t44 -15zM675 654h186q28 0 44 15t16 35t-16 35t-44 15h-186q-28 0 -44 -15t-16 -35t16 -35t44 -15zM163 782h698q28 0 44 15t16 35t-16 35t-44 15h-698q-28 0 -44 -15t-16 -35t16 -35t44 -15z" />
    <glyph glyph-name="eight" unicode="8" 
d="M291 14h442q28 0 44 15t16 35t-16 35t-44 15h-442q-28 0 -44 -15t-16 -35t16 -35t44 -15zM163 142h186q28 0 44 15t16 35t-16 35t-44 15h-186q-28 0 -44 -15t-16 -35t16 -35t44 -15zM675 142h186q28 0 44 15t16 35t-16 35t-44 15h-186q-28 0 -44 -15t-16 -35t16 -35
t44 -15zM163 270h186q28 0 44 15t16 35t-16 35t-44 15h-186q-28 0 -44 -15t-16 -35t16 -35t44 -15zM675 270h186q28 0 44 15t16 35t-16 35t-44 15h-186q-28 0 -44 -15t-16 -35t16 -35t44 -15zM291 398h442q28 0 44 15t16 35t-16 35t-44 15h-442q-28 0 -44 -15t-16 -35
t16 -35t44 -15zM163 526h186q28 0 44 15t16 35t-16 35t-44 15h-186q-28 0 -44 -15t-16 -35t16 -35t44 -15zM675 526h186q28 0 44 15t16 35t-16 35t-44 15h-186q-28 0 -44 -15t-16 -35t16 -35t44 -15zM163 654h186q28 0 44 15t16 35t-16 35t-44 15h-186q-28 0 -44 -15
t-16 -35t16 -35t44 -15zM675 654h186q28 0 44 15t16 35t-16 35t-44 15h-186q-28 0 -44 -15t-16 -35t16 -35t44 -15zM291 782h442q28 0 44 15t16 35t-16 35t-44 15h-442q-28 0 -44 -15t-16 -35t16 -35t44 -15z" />
    <glyph glyph-name="nine" unicode="9" 
d="M291 14h442q28 0 44 15t16 35t-16 35t-44 15h-442q-28 0 -44 -15t-16 -35t16 -35t44 -15zM163 142h186q28 0 44 15t16 35t-16 35t-44 15h-186q-28 0 -44 -15t-16 -35t16 -35t44 -15zM675 142h186q28 0 44 15t16 35t-16 35t-44 15h-186q-28 0 -44 -15t-16 -35t16 -35
t44 -15zM675 270h186q28 0 44 15t16 35t-16 35t-44 15h-186q-28 0 -44 -15t-16 -35t16 -35t44 -15zM291 398h570q28 0 44 15t16 35t-16 35t-44 15h-570q-28 0 -44 -15t-16 -35t16 -35t44 -15zM163 526h186q28 0 44 15t16 35t-16 35t-44 15h-186q-28 0 -44 -15t-16 -35
t16 -35t44 -15zM675 526h186q28 0 44 15t16 35t-16 35t-44 15h-186q-28 0 -44 -15t-16 -35t16 -35t44 -15zM163 654h186q28 0 44 15t16 35t-16 35t-44 15h-186q-28 0 -44 -15t-16 -35t16 -35t44 -15zM675 654h186q28 0 44 15t16 35t-16 35t-44 15h-186q-28 0 -44 -15
t-16 -35t16 -35t44 -15zM291 782h442q28 0 44 15t16 35t-16 35t-44 15h-442q-28 0 -44 -15t-16 -35t16 -35t44 -15z" />
    <glyph glyph-name="colon" unicode=":" 
d="M419 142h186q28 0 44 15t16 35t-16 35t-44 15h-186q-28 0 -44 -15t-16 -35t16 -35t44 -15zM419 526h186q28 0 44 15t16 35t-16 35t-44 15h-186q-28 0 -44 -15t-16 -35t16 -35t44 -15z" />
    <glyph glyph-name="semicolon" unicode=";" 
d="M291 -114h186q28 0 44 15t16 35t-16 35t-44 15h-186q-28 0 -44 -15t-16 -35t16 -35t44 -15zM419 14h186q28 0 44 15t16 35t-16 35t-44 15h-186q-28 0 -44 -15t-16 -35t16 -35t44 -15zM419 142h186q28 0 44 15t16 35t-16 35t-44 15h-186q-28 0 -44 -15t-16 -35t16 -35
t44 -15zM419 526h186q28 0 44 15t16 35t-16 35t-44 15h-186q-28 0 -44 -15t-16 -35t16 -35t44 -15z" />
    <glyph glyph-name="less" unicode="&#x3c;" 
d="M547 14h314q28 0 44 15t16 35t-16 35t-44 15h-314q-28 0 -44 -15t-16 -35t16 -35t44 -15zM419 142h186q28 0 44 15t16 35t-16 35t-44 15h-186q-28 0 -44 -15t-16 -35t16 -35t44 -15zM291 270h186q28 0 44 15t16 35t-16 35t-44 15h-186q-28 0 -44 -15t-16 -35t16 -35
t44 -15zM163 398h186q28 0 44 15t16 35t-16 35t-44 15h-186q-28 0 -44 -15t-16 -35t16 -35t44 -15zM291 526h186q28 0 44 15t16 35t-16 35t-44 15h-186q-28 0 -44 -15t-16 -35t16 -35t44 -15zM419 654h186q28 0 44 15t16 35t-16 35t-44 15h-186q-28 0 -44 -15t-16 -35
t16 -35t44 -15zM547 782h314q28 0 44 15t16 35t-16 35t-44 15h-314q-28 0 -44 -15t-16 -35t16 -35t44 -15z" />
    <glyph glyph-name="equal" unicode="=" 
d="M163 270h698q28 0 44 15t16 35t-16 35t-44 15h-698q-28 0 -44 -15t-16 -35t16 -35t44 -15zM163 526h698q28 0 44 15t16 35t-16 35t-44 15h-698q-28 0 -44 -15t-16 -35t16 -35t44 -15z" />
    <glyph glyph-name="greater" unicode="&#x3e;" 
d="M163 14h314q28 0 44 15t16 35t-16 35t-44 15h-314q-28 0 -44 -15t-16 -35t16 -35t44 -15zM419 142h186q28 0 44 15t16 35t-16 35t-44 15h-186q-28 0 -44 -15t-16 -35t16 -35t44 -15zM547 270h186q28 0 44 15t16 35t-16 35t-44 15h-186q-28 0 -44 -15t-16 -35t16 -35
t44 -15zM675 398h186q28 0 44 15t16 35t-16 35t-44 15h-186q-28 0 -44 -15t-16 -35t16 -35t44 -15zM547 526h186q28 0 44 15t16 35t-16 35t-44 15h-186q-28 0 -44 -15t-16 -35t16 -35t44 -15zM419 654h186q28 0 44 15t16 35t-16 35t-44 15h-186q-28 0 -44 -15t-16 -35
t16 -35t44 -15zM163 782h314q28 0 44 15t16 35t-16 35t-44 15h-314q-28 0 -44 -15t-16 -35t16 -35t44 -15z" />
    <glyph glyph-name="question" unicode="?" 
d="M419 14h186q28 0 44 15t16 35t-16 35t-44 15h-186q-28 0 -44 -15t-16 -35t16 -35t44 -15zM419 270h186q28 0 44 15t16 35t-16 35t-44 15h-186q-28 0 -44 -15t-16 -35t16 -35t44 -15zM547 398h186q28 0 44 15t16 35t-16 35t-44 15h-186q-28 0 -44 -15t-16 -35t16 -35
t44 -15zM675 526h186q28 0 44 15t16 35t-16 35t-44 15h-186q-28 0 -44 -15t-16 -35t16 -35t44 -15zM163 654h186q28 0 44 15t16 35t-16 35t-44 15h-186q-28 0 -44 -15t-16 -35t16 -35t44 -15zM675 654h186q28 0 44 15t16 35t-16 35t-44 15h-186q-28 0 -44 -15t-16 -35
t16 -35t44 -15zM291 782h442q28 0 44 15t16 35t-16 35t-44 15h-442q-28 0 -44 -15t-16 -35t16 -35t44 -15z" />
    <glyph glyph-name="at" unicode="@" 
d="M291 14h442q28 0 44 15t16 35t-16 35t-44 15h-442q-28 0 -44 -15t-16 -35t16 -35t44 -15zM163 142h186q28 0 44 15t16 35t-16 35t-44 15h-186q-28 0 -44 -15t-16 -35t16 -35t44 -15zM794 142h76q22 0 36.5 15t14.5 35t-14.5 35t-36.5 15h-76q-22 0 -36.5 -15t-14.5 -35
t14.5 -35t36.5 -15zM163 270h186q28 0 44 15t16 35t-16 35t-44 15h-186q-28 0 -44 -15t-16 -35t16 -35t44 -15zM163 398h186q28 0 44 15t16 35t-16 35t-44 15h-186q-28 0 -44 -15t-16 -35t16 -35t44 -15zM547 398h314q28 0 44 15t16 35t-16 35t-44 15h-314q-28 0 -44 -15
t-16 -35t16 -35t44 -15zM163 526h186q28 0 44 15t16 35t-16 35t-44 15h-186q-28 0 -44 -15t-16 -35t16 -35t44 -15zM547 526h314q28 0 44 15t16 35t-16 35t-44 15h-314q-28 0 -44 -15t-16 -35t16 -35t44 -15zM163 654h186q28 0 44 15t16 35t-16 35t-44 15h-186
q-28 0 -44 -15t-16 -35t16 -35t44 -15zM675 654h186q28 0 44 15t16 35t-16 35t-44 15h-186q-28 0 -44 -15t-16 -35t16 -35t44 -15zM291 782h442q28 0 44 15t16 35t-16 35t-44 15h-442q-28 0 -44 -15t-16 -35t16 -35t44 -15z" />
    <glyph glyph-name="A" unicode="A" 
d="M163 14h186q28 0 44 15t16 35t-16 35t-44 15h-186q-28 0 -44 -15t-16 -35t16 -35t44 -15zM675 14h186q28 0 44 15t16 35t-16 35t-44 15h-186q-28 0 -44 -15t-16 -35t16 -35t44 -15zM163 142h186q28 0 44 15t16 35t-16 35t-44 15h-186q-28 0 -44 -15t-16 -35t16 -35
t44 -15zM675 142h186q28 0 44 15t16 35t-16 35t-44 15h-186q-28 0 -44 -15t-16 -35t16 -35t44 -15zM163 270h186q28 0 44 15t16 35t-16 35t-44 15h-186q-28 0 -44 -15t-16 -35t16 -35t44 -15zM675 270h186q28 0 44 15t16 35t-16 35t-44 15h-186q-28 0 -44 -15t-16 -35
t16 -35t44 -15zM163 398h698q28 0 44 15t16 35t-16 35t-44 15h-698q-28 0 -44 -15t-16 -35t16 -35t44 -15zM163 526h186q28 0 44 15t16 35t-16 35t-44 15h-186q-28 0 -44 -15t-16 -35t16 -35t44 -15zM675 526h186q28 0 44 15t16 35t-16 35t-44 15h-186q-28 0 -44 -15
t-16 -35t16 -35t44 -15zM291 654h442q28 0 44 15t16 35t-16 35t-44 15h-442q-28 0 -44 -15t-16 -35t16 -35t44 -15zM419 782h186q28 0 44 15t16 35t-16 35t-44 15h-186q-28 0 -44 -15t-16 -35t16 -35t44 -15z" />
    <glyph glyph-name="B" unicode="B" 
d="M163 14h570q28 0 44 15t16 35t-16 35t-44 15h-570q-28 0 -44 -15t-16 -35t16 -35t44 -15zM163 142h186q28 0 44 15t16 35t-16 35t-44 15h-186q-28 0 -44 -15t-16 -35t16 -35t44 -15zM675 142h186q28 0 44 15t16 35t-16 35t-44 15h-186q-28 0 -44 -15t-16 -35t16 -35
t44 -15zM163 270h186q28 0 44 15t16 35t-16 35t-44 15h-186q-28 0 -44 -15t-16 -35t16 -35t44 -15zM675 270h186q28 0 44 15t16 35t-16 35t-44 15h-186q-28 0 -44 -15t-16 -35t16 -35t44 -15zM163 398h570q28 0 44 15t16 35t-16 35t-44 15h-570q-28 0 -44 -15t-16 -35
t16 -35t44 -15zM163 526h186q28 0 44 15t16 35t-16 35t-44 15h-186q-28 0 -44 -15t-16 -35t16 -35t44 -15zM675 526h186q28 0 44 15t16 35t-16 35t-44 15h-186q-28 0 -44 -15t-16 -35t16 -35t44 -15zM163 654h186q28 0 44 15t16 35t-16 35t-44 15h-186q-28 0 -44 -15
t-16 -35t16 -35t44 -15zM675 654h186q28 0 44 15t16 35t-16 35t-44 15h-186q-28 0 -44 -15t-16 -35t16 -35t44 -15zM163 782h570q28 0 44 15t16 35t-16 35t-44 15h-570q-28 0 -44 -15t-16 -35t16 -35t44 -15z" />
    <glyph glyph-name="C" unicode="C" 
d="M291 14h442q28 0 44 15t16 35t-16 35t-44 15h-442q-28 0 -44 -15t-16 -35t16 -35t44 -15zM163 142h186q28 0 44 15t16 35t-16 35t-44 15h-186q-28 0 -44 -15t-16 -35t16 -35t44 -15zM675 142h186q28 0 44 15t16 35t-16 35t-44 15h-186q-28 0 -44 -15t-16 -35t16 -35
t44 -15zM163 270h186q28 0 44 15t16 35t-16 35t-44 15h-186q-28 0 -44 -15t-16 -35t16 -35t44 -15zM163 398h186q28 0 44 15t16 35t-16 35t-44 15h-186q-28 0 -44 -15t-16 -35t16 -35t44 -15zM163 526h186q28 0 44 15t16 35t-16 35t-44 15h-186q-28 0 -44 -15t-16 -35
t16 -35t44 -15zM163 654h186q28 0 44 15t16 35t-16 35t-44 15h-186q-28 0 -44 -15t-16 -35t16 -35t44 -15zM675 654h186q28 0 44 15t16 35t-16 35t-44 15h-186q-28 0 -44 -15t-16 -35t16 -35t44 -15zM291 782h442q28 0 44 15t16 35t-16 35t-44 15h-442q-28 0 -44 -15
t-16 -35t16 -35t44 -15z" />
    <glyph glyph-name="D" unicode="D" 
d="M163 14h442q28 0 44 15t16 35t-16 35t-44 15h-442q-28 0 -44 -15t-16 -35t16 -35t44 -15zM163 142h186q28 0 44 15t16 35t-16 35t-44 15h-186q-28 0 -44 -15t-16 -35t16 -35t44 -15zM547 142h186q28 0 44 15t16 35t-16 35t-44 15h-186q-28 0 -44 -15t-16 -35t16 -35
t44 -15zM163 270h186q28 0 44 15t16 35t-16 35t-44 15h-186q-28 0 -44 -15t-16 -35t16 -35t44 -15zM675 270h186q28 0 44 15t16 35t-16 35t-44 15h-186q-28 0 -44 -15t-16 -35t16 -35t44 -15zM163 398h186q28 0 44 15t16 35t-16 35t-44 15h-186q-28 0 -44 -15t-16 -35
t16 -35t44 -15zM675 398h186q28 0 44 15t16 35t-16 35t-44 15h-186q-28 0 -44 -15t-16 -35t16 -35t44 -15zM163 526h186q28 0 44 15t16 35t-16 35t-44 15h-186q-28 0 -44 -15t-16 -35t16 -35t44 -15zM675 526h186q28 0 44 15t16 35t-16 35t-44 15h-186q-28 0 -44 -15
t-16 -35t16 -35t44 -15zM163 654h186q28 0 44 15t16 35t-16 35t-44 15h-186q-28 0 -44 -15t-16 -35t16 -35t44 -15zM547 654h186q28 0 44 15t16 35t-16 35t-44 15h-186q-28 0 -44 -15t-16 -35t16 -35t44 -15zM163 782h442q28 0 44 15t16 35t-16 35t-44 15h-442
q-28 0 -44 -15t-16 -35t16 -35t44 -15z" />
    <glyph glyph-name="E" unicode="E" 
d="M163 14h698q28 0 44 15t16 35t-16 35t-44 15h-698q-28 0 -44 -15t-16 -35t16 -35t44 -15zM163 142h186q28 0 44 15t16 35t-16 35t-44 15h-186q-28 0 -44 -15t-16 -35t16 -35t44 -15zM163 270h186q28 0 44 15t16 35t-16 35t-44 15h-186q-28 0 -44 -15t-16 -35t16 -35
t44 -15zM163 398h442q28 0 44 15t16 35t-16 35t-44 15h-442q-28 0 -44 -15t-16 -35t16 -35t44 -15zM163 526h186q28 0 44 15t16 35t-16 35t-44 15h-186q-28 0 -44 -15t-16 -35t16 -35t44 -15zM163 654h186q28 0 44 15t16 35t-16 35t-44 15h-186q-28 0 -44 -15t-16 -35
t16 -35t44 -15zM163 782h698q28 0 44 15t16 35t-16 35t-44 15h-698q-28 0 -44 -15t-16 -35t16 -35t44 -15z" />
    <glyph glyph-name="F" unicode="F" 
d="M163 14h186q28 0 44 15t16 35t-16 35t-44 15h-186q-28 0 -44 -15t-16 -35t16 -35t44 -15zM163 142h186q28 0 44 15t16 35t-16 35t-44 15h-186q-28 0 -44 -15t-16 -35t16 -35t44 -15zM163 270h186q28 0 44 15t16 35t-16 35t-44 15h-186q-28 0 -44 -15t-16 -35t16 -35
t44 -15zM163 398h442q28 0 44 15t16 35t-16 35t-44 15h-442q-28 0 -44 -15t-16 -35t16 -35t44 -15zM163 526h186q28 0 44 15t16 35t-16 35t-44 15h-186q-28 0 -44 -15t-16 -35t16 -35t44 -15zM163 654h186q28 0 44 15t16 35t-16 35t-44 15h-186q-28 0 -44 -15t-16 -35
t16 -35t44 -15zM163 782h698q28 0 44 15t16 35t-16 35t-44 15h-698q-28 0 -44 -15t-16 -35t16 -35t44 -15z" />
    <glyph glyph-name="G" unicode="G" 
d="M291 14h442q28 0 44 15t16 35t-16 35t-44 15h-442q-28 0 -44 -15t-16 -35t16 -35t44 -15zM163 142h186q28 0 44 15t16 35t-16 35t-44 15h-186q-28 0 -44 -15t-16 -35t16 -35t44 -15zM675 142h186q28 0 44 15t16 35t-16 35t-44 15h-186q-28 0 -44 -15t-16 -35t16 -35
t44 -15zM163 270h186q28 0 44 15t16 35t-16 35t-44 15h-186q-28 0 -44 -15t-16 -35t16 -35t44 -15zM675 270h186q28 0 44 15t16 35t-16 35t-44 15h-186q-28 0 -44 -15t-16 -35t16 -35t44 -15zM163 398h186q28 0 44 15t16 35t-16 35t-44 15h-186q-28 0 -44 -15t-16 -35
t16 -35t44 -15zM547 398h314q28 0 44 15t16 35t-16 35t-44 15h-314q-28 0 -44 -15t-16 -35t16 -35t44 -15zM163 526h186q28 0 44 15t16 35t-16 35t-44 15h-186q-28 0 -44 -15t-16 -35t16 -35t44 -15zM163 654h186q28 0 44 15t16 35t-16 35t-44 15h-186q-28 0 -44 -15
t-16 -35t16 -35t44 -15zM675 654h186q28 0 44 15t16 35t-16 35t-44 15h-186q-28 0 -44 -15t-16 -35t16 -35t44 -15zM291 782h442q28 0 44 15t16 35t-16 35t-44 15h-442q-28 0 -44 -15t-16 -35t16 -35t44 -15z" />
    <glyph glyph-name="H" unicode="H" 
d="M163 14h186q28 0 44 15t16 35t-16 35t-44 15h-186q-28 0 -44 -15t-16 -35t16 -35t44 -15zM675 14h186q28 0 44 15t16 35t-16 35t-44 15h-186q-28 0 -44 -15t-16 -35t16 -35t44 -15zM163 142h186q28 0 44 15t16 35t-16 35t-44 15h-186q-28 0 -44 -15t-16 -35t16 -35
t44 -15zM675 142h186q28 0 44 15t16 35t-16 35t-44 15h-186q-28 0 -44 -15t-16 -35t16 -35t44 -15zM163 270h186q28 0 44 15t16 35t-16 35t-44 15h-186q-28 0 -44 -15t-16 -35t16 -35t44 -15zM675 270h186q28 0 44 15t16 35t-16 35t-44 15h-186q-28 0 -44 -15t-16 -35
t16 -35t44 -15zM163 398h698q28 0 44 15t16 35t-16 35t-44 15h-698q-28 0 -44 -15t-16 -35t16 -35t44 -15zM163 526h186q28 0 44 15t16 35t-16 35t-44 15h-186q-28 0 -44 -15t-16 -35t16 -35t44 -15zM675 526h186q28 0 44 15t16 35t-16 35t-44 15h-186q-28 0 -44 -15
t-16 -35t16 -35t44 -15zM163 654h186q28 0 44 15t16 35t-16 35t-44 15h-186q-28 0 -44 -15t-16 -35t16 -35t44 -15zM675 654h186q28 0 44 15t16 35t-16 35t-44 15h-186q-28 0 -44 -15t-16 -35t16 -35t44 -15zM163 782h186q28 0 44 15t16 35t-16 35t-44 15h-186
q-28 0 -44 -15t-16 -35t16 -35t44 -15zM675 782h186q28 0 44 15t16 35t-16 35t-44 15h-186q-28 0 -44 -15t-16 -35t16 -35t44 -15z" />
    <glyph glyph-name="I" unicode="I" 
d="M291 14h442q28 0 44 15t16 35t-16 35t-44 15h-442q-28 0 -44 -15t-16 -35t16 -35t44 -15zM419 142h186q28 0 44 15t16 35t-16 35t-44 15h-186q-28 0 -44 -15t-16 -35t16 -35t44 -15zM419 270h186q28 0 44 15t16 35t-16 35t-44 15h-186q-28 0 -44 -15t-16 -35t16 -35
t44 -15zM419 398h186q28 0 44 15t16 35t-16 35t-44 15h-186q-28 0 -44 -15t-16 -35t16 -35t44 -15zM419 526h186q28 0 44 15t16 35t-16 35t-44 15h-186q-28 0 -44 -15t-16 -35t16 -35t44 -15zM419 654h186q28 0 44 15t16 35t-16 35t-44 15h-186q-28 0 -44 -15t-16 -35
t16 -35t44 -15zM291 782h442q28 0 44 15t16 35t-16 35t-44 15h-442q-28 0 -44 -15t-16 -35t16 -35t44 -15z" />
    <glyph glyph-name="J" unicode="J" 
d="M291 14h314q28 0 44 15t16 35t-16 35t-44 15h-314q-28 0 -44 -15t-16 -35t16 -35t44 -15zM163 142h186q28 0 44 15t16 35t-16 35t-44 15h-186q-28 0 -44 -15t-16 -35t16 -35t44 -15zM547 142h186q28 0 44 15t16 35t-16 35t-44 15h-186q-28 0 -44 -15t-16 -35t16 -35
t44 -15zM547 270h186q28 0 44 15t16 35t-16 35t-44 15h-186q-28 0 -44 -15t-16 -35t16 -35t44 -15zM547 398h186q28 0 44 15t16 35t-16 35t-44 15h-186q-28 0 -44 -15t-16 -35t16 -35t44 -15zM547 526h186q28 0 44 15t16 35t-16 35t-44 15h-186q-28 0 -44 -15t-16 -35
t16 -35t44 -15zM547 654h186q28 0 44 15t16 35t-16 35t-44 15h-186q-28 0 -44 -15t-16 -35t16 -35t44 -15zM419 782h442q28 0 44 15t16 35t-16 35t-44 15h-442q-28 0 -44 -15t-16 -35t16 -35t44 -15z" />
    <glyph glyph-name="K" unicode="K" 
d="M163 14h186q28 0 44 15t16 35t-16 35t-44 15h-186q-28 0 -44 -15t-16 -35t16 -35t44 -15zM675 14h186q28 0 44 15t16 35t-16 35t-44 15h-186q-28 0 -44 -15t-16 -35t16 -35t44 -15zM163 142h186q28 0 44 15t16 35t-16 35t-44 15h-186q-28 0 -44 -15t-16 -35t16 -35
t44 -15zM547 142h186q28 0 44 15t16 35t-16 35t-44 15h-186q-28 0 -44 -15t-16 -35t16 -35t44 -15zM163 270h442q28 0 44 15t16 35t-16 35t-44 15h-442q-28 0 -44 -15t-16 -35t16 -35t44 -15zM163 398h314q28 0 44 15t16 35t-16 35t-44 15h-314q-28 0 -44 -15t-16 -35
t16 -35t44 -15zM163 526h442q28 0 44 15t16 35t-16 35t-44 15h-442q-28 0 -44 -15t-16 -35t16 -35t44 -15zM163 654h186q28 0 44 15t16 35t-16 35t-44 15h-186q-28 0 -44 -15t-16 -35t16 -35t44 -15zM547 654h186q28 0 44 15t16 35t-16 35t-44 15h-186q-28 0 -44 -15
t-16 -35t16 -35t44 -15zM163 782h186q28 0 44 15t16 35t-16 35t-44 15h-186q-28 0 -44 -15t-16 -35t16 -35t44 -15zM675 782h186q28 0 44 15t16 35t-16 35t-44 15h-186q-28 0 -44 -15t-16 -35t16 -35t44 -15z" />
    <glyph glyph-name="L" unicode="L" 
d="M163 14h698q28 0 44 15t16 35t-16 35t-44 15h-698q-28 0 -44 -15t-16 -35t16 -35t44 -15zM163 142h186q28 0 44 15t16 35t-16 35t-44 15h-186q-28 0 -44 -15t-16 -35t16 -35t44 -15zM163 270h186q28 0 44 15t16 35t-16 35t-44 15h-186q-28 0 -44 -15t-16 -35t16 -35
t44 -15zM163 398h186q28 0 44 15t16 35t-16 35t-44 15h-186q-28 0 -44 -15t-16 -35t16 -35t44 -15zM163 526h186q28 0 44 15t16 35t-16 35t-44 15h-186q-28 0 -44 -15t-16 -35t16 -35t44 -15zM163 654h186q28 0 44 15t16 35t-16 35t-44 15h-186q-28 0 -44 -15t-16 -35
t16 -35t44 -15zM163 782h186q28 0 44 15t16 35t-16 35t-44 15h-186q-28 0 -44 -15t-16 -35t16 -35t44 -15z" />
    <glyph glyph-name="M" unicode="M" 
d="M163 14h186q28 0 44 15t16 35t-16 35t-44 15h-186q-28 0 -44 -15t-16 -35t16 -35t44 -15zM803 14h186q28 0 44 15t16 35t-16 35t-44 15h-186q-28 0 -44 -15t-16 -35t16 -35t44 -15zM163 142h186q28 0 44 15t16 35t-16 35t-44 15h-186q-28 0 -44 -15t-16 -35t16 -35
t44 -15zM803 142h186q28 0 44 15t16 35t-16 35t-44 15h-186q-28 0 -44 -15t-16 -35t16 -35t44 -15zM163 270h186q28 0 44 15t16 35t-16 35t-44 15h-186q-28 0 -44 -15t-16 -35t16 -35t44 -15zM803 270h186q28 0 44 15t16 35t-16 35t-44 15h-186q-28 0 -44 -15t-16 -35
t16 -35t44 -15zM163 398h186q28 0 44 15t16 35t-16 35t-44 15h-186q-28 0 -44 -15t-16 -35t16 -35t44 -15zM538 398h76q22 0 36.5 15t14.5 35t-14.5 35t-36.5 15h-76q-22 0 -36.5 -15t-14.5 -35t14.5 -35t36.5 -15zM803 398h186q28 0 44 15t16 35t-16 35t-44 15h-186
q-28 0 -44 -15t-16 -35t16 -35t44 -15zM163 526h826q28 0 44 15t16 35t-16 35t-44 15h-826q-28 0 -44 -15t-16 -35t16 -35t44 -15zM163 654h314q28 0 44 15t16 35t-16 35t-44 15h-314q-28 0 -44 -15t-16 -35t16 -35t44 -15zM675 654h314q28 0 44 15t16 35t-16 35t-44 15
h-314q-28 0 -44 -15t-16 -35t16 -35t44 -15zM163 782h186q28 0 44 15t16 35t-16 35t-44 15h-186q-28 0 -44 -15t-16 -35t16 -35t44 -15zM803 782h186q28 0 44 15t16 35t-16 35t-44 15h-186q-28 0 -44 -15t-16 -35t16 -35t44 -15z" />
    <glyph glyph-name="N" unicode="N" 
d="M163 14h186q28 0 44 15t16 35t-16 35t-44 15h-186q-28 0 -44 -15t-16 -35t16 -35t44 -15zM675 14h186q28 0 44 15t16 35t-16 35t-44 15h-186q-28 0 -44 -15t-16 -35t16 -35t44 -15zM163 142h186q28 0 44 15t16 35t-16 35t-44 15h-186q-28 0 -44 -15t-16 -35t16 -35
t44 -15zM675 142h186q28 0 44 15t16 35t-16 35t-44 15h-186q-28 0 -44 -15t-16 -35t16 -35t44 -15zM163 270h186q28 0 44 15t16 35t-16 35t-44 15h-186q-28 0 -44 -15t-16 -35t16 -35t44 -15zM675 270h186q28 0 44 15t16 35t-16 35t-44 15h-186q-28 0 -44 -15t-16 -35
t16 -35t44 -15zM163 398h186q28 0 44 15t16 35t-16 35t-44 15h-186q-28 0 -44 -15t-16 -35t16 -35t44 -15zM547 398h314q28 0 44 15t16 35t-16 35t-44 15h-314q-28 0 -44 -15t-16 -35t16 -35t44 -15zM163 526h698q28 0 44 15t16 35t-16 35t-44 15h-698q-28 0 -44 -15
t-16 -35t16 -35t44 -15zM163 654h314q28 0 44 15t16 35t-16 35t-44 15h-314q-28 0 -44 -15t-16 -35t16 -35t44 -15zM675 654h186q28 0 44 15t16 35t-16 35t-44 15h-186q-28 0 -44 -15t-16 -35t16 -35t44 -15zM163 782h186q28 0 44 15t16 35t-16 35t-44 15h-186
q-28 0 -44 -15t-16 -35t16 -35t44 -15zM675 782h186q28 0 44 15t16 35t-16 35t-44 15h-186q-28 0 -44 -15t-16 -35t16 -35t44 -15z" />
    <glyph glyph-name="O" unicode="O" 
d="M291 14h442q28 0 44 15t16 35t-16 35t-44 15h-442q-28 0 -44 -15t-16 -35t16 -35t44 -15zM163 142h186q28 0 44 15t16 35t-16 35t-44 15h-186q-28 0 -44 -15t-16 -35t16 -35t44 -15zM675 142h186q28 0 44 15t16 35t-16 35t-44 15h-186q-28 0 -44 -15t-16 -35t16 -35
t44 -15zM163 270h186q28 0 44 15t16 35t-16 35t-44 15h-186q-28 0 -44 -15t-16 -35t16 -35t44 -15zM675 270h186q28 0 44 15t16 35t-16 35t-44 15h-186q-28 0 -44 -15t-16 -35t16 -35t44 -15zM163 398h186q28 0 44 15t16 35t-16 35t-44 15h-186q-28 0 -44 -15t-16 -35
t16 -35t44 -15zM675 398h186q28 0 44 15t16 35t-16 35t-44 15h-186q-28 0 -44 -15t-16 -35t16 -35t44 -15zM163 526h186q28 0 44 15t16 35t-16 35t-44 15h-186q-28 0 -44 -15t-16 -35t16 -35t44 -15zM675 526h186q28 0 44 15t16 35t-16 35t-44 15h-186q-28 0 -44 -15
t-16 -35t16 -35t44 -15zM163 654h186q28 0 44 15t16 35t-16 35t-44 15h-186q-28 0 -44 -15t-16 -35t16 -35t44 -15zM675 654h186q28 0 44 15t16 35t-16 35t-44 15h-186q-28 0 -44 -15t-16 -35t16 -35t44 -15zM291 782h442q28 0 44 15t16 35t-16 35t-44 15h-442
q-28 0 -44 -15t-16 -35t16 -35t44 -15z" />
    <glyph glyph-name="P" unicode="P" 
d="M163 14h186q28 0 44 15t16 35t-16 35t-44 15h-186q-28 0 -44 -15t-16 -35t16 -35t44 -15zM163 142h186q28 0 44 15t16 35t-16 35t-44 15h-186q-28 0 -44 -15t-16 -35t16 -35t44 -15zM163 270h186q28 0 44 15t16 35t-16 35t-44 15h-186q-28 0 -44 -15t-16 -35t16 -35
t44 -15zM163 398h570q28 0 44 15t16 35t-16 35t-44 15h-570q-28 0 -44 -15t-16 -35t16 -35t44 -15zM163 526h186q28 0 44 15t16 35t-16 35t-44 15h-186q-28 0 -44 -15t-16 -35t16 -35t44 -15zM675 526h186q28 0 44 15t16 35t-16 35t-44 15h-186q-28 0 -44 -15t-16 -35
t16 -35t44 -15zM163 654h186q28 0 44 15t16 35t-16 35t-44 15h-186q-28 0 -44 -15t-16 -35t16 -35t44 -15zM675 654h186q28 0 44 15t16 35t-16 35t-44 15h-186q-28 0 -44 -15t-16 -35t16 -35t44 -15zM163 782h570q28 0 44 15t16 35t-16 35t-44 15h-570q-28 0 -44 -15
t-16 -35t16 -35t44 -15z" />
    <glyph glyph-name="Q" unicode="Q" 
d="M547 14h314q28 0 44 15t16 35t-16 35t-44 15h-314q-28 0 -44 -15t-16 -35t16 -35t44 -15zM291 142h442q28 0 44 15t16 35t-16 35t-44 15h-442q-28 0 -44 -15t-16 -35t16 -35t44 -15zM163 270h186q28 0 44 15t16 35t-16 35t-44 15h-186q-28 0 -44 -15t-16 -35t16 -35
t44 -15zM675 270h186q28 0 44 15t16 35t-16 35t-44 15h-186q-28 0 -44 -15t-16 -35t16 -35t44 -15zM163 398h186q28 0 44 15t16 35t-16 35t-44 15h-186q-28 0 -44 -15t-16 -35t16 -35t44 -15zM675 398h186q28 0 44 15t16 35t-16 35t-44 15h-186q-28 0 -44 -15t-16 -35
t16 -35t44 -15zM163 526h186q28 0 44 15t16 35t-16 35t-44 15h-186q-28 0 -44 -15t-16 -35t16 -35t44 -15zM675 526h186q28 0 44 15t16 35t-16 35t-44 15h-186q-28 0 -44 -15t-16 -35t16 -35t44 -15zM163 654h186q28 0 44 15t16 35t-16 35t-44 15h-186q-28 0 -44 -15
t-16 -35t16 -35t44 -15zM675 654h186q28 0 44 15t16 35t-16 35t-44 15h-186q-28 0 -44 -15t-16 -35t16 -35t44 -15zM291 782h442q28 0 44 15t16 35t-16 35t-44 15h-442q-28 0 -44 -15t-16 -35t16 -35t44 -15z" />
    <glyph glyph-name="R" unicode="R" 
d="M163 14h186q28 0 44 15t16 35t-16 35t-44 15h-186q-28 0 -44 -15t-16 -35t16 -35t44 -15zM675 14h186q28 0 44 15t16 35t-16 35t-44 15h-186q-28 0 -44 -15t-16 -35t16 -35t44 -15zM163 142h186q28 0 44 15t16 35t-16 35t-44 15h-186q-28 0 -44 -15t-16 -35t16 -35
t44 -15zM547 142h186q28 0 44 15t16 35t-16 35t-44 15h-186q-28 0 -44 -15t-16 -35t16 -35t44 -15zM163 270h442q28 0 44 15t16 35t-16 35t-44 15h-442q-28 0 -44 -15t-16 -35t16 -35t44 -15zM163 398h570q28 0 44 15t16 35t-16 35t-44 15h-570q-28 0 -44 -15t-16 -35
t16 -35t44 -15zM163 526h186q28 0 44 15t16 35t-16 35t-44 15h-186q-28 0 -44 -15t-16 -35t16 -35t44 -15zM675 526h186q28 0 44 15t16 35t-16 35t-44 15h-186q-28 0 -44 -15t-16 -35t16 -35t44 -15zM163 654h186q28 0 44 15t16 35t-16 35t-44 15h-186q-28 0 -44 -15
t-16 -35t16 -35t44 -15zM675 654h186q28 0 44 15t16 35t-16 35t-44 15h-186q-28 0 -44 -15t-16 -35t16 -35t44 -15zM163 782h570q28 0 44 15t16 35t-16 35t-44 15h-570q-28 0 -44 -15t-16 -35t16 -35t44 -15z" />
    <glyph glyph-name="S" unicode="S" 
d="M291 14h442q28 0 44 15t16 35t-16 35t-44 15h-442q-28 0 -44 -15t-16 -35t16 -35t44 -15zM163 142h186q28 0 44 15t16 35t-16 35t-44 15h-186q-28 0 -44 -15t-16 -35t16 -35t44 -15zM675 142h186q28 0 44 15t16 35t-16 35t-44 15h-186q-28 0 -44 -15t-16 -35t16 -35
t44 -15zM675 270h186q28 0 44 15t16 35t-16 35t-44 15h-186q-28 0 -44 -15t-16 -35t16 -35t44 -15zM291 398h442q28 0 44 15t16 35t-16 35t-44 15h-442q-28 0 -44 -15t-16 -35t16 -35t44 -15zM163 526h186q28 0 44 15t16 35t-16 35t-44 15h-186q-28 0 -44 -15t-16 -35
t16 -35t44 -15zM163 654h186q28 0 44 15t16 35t-16 35t-44 15h-186q-28 0 -44 -15t-16 -35t16 -35t44 -15zM675 654h186q28 0 44 15t16 35t-16 35t-44 15h-186q-28 0 -44 -15t-16 -35t16 -35t44 -15zM291 782h442q28 0 44 15t16 35t-16 35t-44 15h-442q-28 0 -44 -15
t-16 -35t16 -35t44 -15z" />
    <glyph glyph-name="T" unicode="T" 
d="M419 14h186q28 0 44 15t16 35t-16 35t-44 15h-186q-28 0 -44 -15t-16 -35t16 -35t44 -15zM419 142h186q28 0 44 15t16 35t-16 35t-44 15h-186q-28 0 -44 -15t-16 -35t16 -35t44 -15zM419 270h186q28 0 44 15t16 35t-16 35t-44 15h-186q-28 0 -44 -15t-16 -35t16 -35
t44 -15zM419 398h186q28 0 44 15t16 35t-16 35t-44 15h-186q-28 0 -44 -15t-16 -35t16 -35t44 -15zM419 526h186q28 0 44 15t16 35t-16 35t-44 15h-186q-28 0 -44 -15t-16 -35t16 -35t44 -15zM419 654h186q28 0 44 15t16 35t-16 35t-44 15h-186q-28 0 -44 -15t-16 -35
t16 -35t44 -15zM163 782h698q28 0 44 15t16 35t-16 35t-44 15h-698q-28 0 -44 -15t-16 -35t16 -35t44 -15z" />
    <glyph glyph-name="U" unicode="U" 
d="M291 14h442q28 0 44 15t16 35t-16 35t-44 15h-442q-28 0 -44 -15t-16 -35t16 -35t44 -15zM163 142h186q28 0 44 15t16 35t-16 35t-44 15h-186q-28 0 -44 -15t-16 -35t16 -35t44 -15zM675 142h186q28 0 44 15t16 35t-16 35t-44 15h-186q-28 0 -44 -15t-16 -35t16 -35
t44 -15zM163 270h186q28 0 44 15t16 35t-16 35t-44 15h-186q-28 0 -44 -15t-16 -35t16 -35t44 -15zM675 270h186q28 0 44 15t16 35t-16 35t-44 15h-186q-28 0 -44 -15t-16 -35t16 -35t44 -15zM163 398h186q28 0 44 15t16 35t-16 35t-44 15h-186q-28 0 -44 -15t-16 -35
t16 -35t44 -15zM675 398h186q28 0 44 15t16 35t-16 35t-44 15h-186q-28 0 -44 -15t-16 -35t16 -35t44 -15zM163 526h186q28 0 44 15t16 35t-16 35t-44 15h-186q-28 0 -44 -15t-16 -35t16 -35t44 -15zM675 526h186q28 0 44 15t16 35t-16 35t-44 15h-186q-28 0 -44 -15
t-16 -35t16 -35t44 -15zM163 654h186q28 0 44 15t16 35t-16 35t-44 15h-186q-28 0 -44 -15t-16 -35t16 -35t44 -15zM675 654h186q28 0 44 15t16 35t-16 35t-44 15h-186q-28 0 -44 -15t-16 -35t16 -35t44 -15zM163 782h186q28 0 44 15t16 35t-16 35t-44 15h-186
q-28 0 -44 -15t-16 -35t16 -35t44 -15zM675 782h186q28 0 44 15t16 35t-16 35t-44 15h-186q-28 0 -44 -15t-16 -35t16 -35t44 -15z" />
    <glyph glyph-name="V" unicode="V" 
d="M419 14h186q28 0 44 15t16 35t-16 35t-44 15h-186q-28 0 -44 -15t-16 -35t16 -35t44 -15zM291 142h442q28 0 44 15t16 35t-16 35t-44 15h-442q-28 0 -44 -15t-16 -35t16 -35t44 -15zM163 270h186q28 0 44 15t16 35t-16 35t-44 15h-186q-28 0 -44 -15t-16 -35t16 -35
t44 -15zM675 270h186q28 0 44 15t16 35t-16 35t-44 15h-186q-28 0 -44 -15t-16 -35t16 -35t44 -15zM163 398h186q28 0 44 15t16 35t-16 35t-44 15h-186q-28 0 -44 -15t-16 -35t16 -35t44 -15zM675 398h186q28 0 44 15t16 35t-16 35t-44 15h-186q-28 0 -44 -15t-16 -35
t16 -35t44 -15zM163 526h186q28 0 44 15t16 35t-16 35t-44 15h-186q-28 0 -44 -15t-16 -35t16 -35t44 -15zM675 526h186q28 0 44 15t16 35t-16 35t-44 15h-186q-28 0 -44 -15t-16 -35t16 -35t44 -15zM163 654h186q28 0 44 15t16 35t-16 35t-44 15h-186q-28 0 -44 -15
t-16 -35t16 -35t44 -15zM675 654h186q28 0 44 15t16 35t-16 35t-44 15h-186q-28 0 -44 -15t-16 -35t16 -35t44 -15zM163 782h186q28 0 44 15t16 35t-16 35t-44 15h-186q-28 0 -44 -15t-16 -35t16 -35t44 -15zM675 782h186q28 0 44 15t16 35t-16 35t-44 15h-186
q-28 0 -44 -15t-16 -35t16 -35t44 -15z" />
    <glyph glyph-name="W" unicode="W" 
d="M163 14h186q28 0 44 15t16 35t-16 35t-44 15h-186q-28 0 -44 -15t-16 -35t16 -35t44 -15zM803 14h186q28 0 44 15t16 35t-16 35t-44 15h-186q-28 0 -44 -15t-16 -35t16 -35t44 -15zM163 142h314q28 0 44 15t16 35t-16 35t-44 15h-314q-28 0 -44 -15t-16 -35t16 -35
t44 -15zM675 142h314q28 0 44 15t16 35t-16 35t-44 15h-314q-28 0 -44 -15t-16 -35t16 -35t44 -15zM163 270h826q28 0 44 15t16 35t-16 35t-44 15h-826q-28 0 -44 -15t-16 -35t16 -35t44 -15zM163 398h186q28 0 44 15t16 35t-16 35t-44 15h-186q-28 0 -44 -15t-16 -35
t16 -35t44 -15zM538 398h76q22 0 36.5 15t14.5 35t-14.5 35t-36.5 15h-76q-22 0 -36.5 -15t-14.5 -35t14.5 -35t36.5 -15zM803 398h186q28 0 44 15t16 35t-16 35t-44 15h-186q-28 0 -44 -15t-16 -35t16 -35t44 -15zM163 526h186q28 0 44 15t16 35t-16 35t-44 15h-186
q-28 0 -44 -15t-16 -35t16 -35t44 -15zM803 526h186q28 0 44 15t16 35t-16 35t-44 15h-186q-28 0 -44 -15t-16 -35t16 -35t44 -15zM163 654h186q28 0 44 15t16 35t-16 35t-44 15h-186q-28 0 -44 -15t-16 -35t16 -35t44 -15zM803 654h186q28 0 44 15t16 35t-16 35t-44 15
h-186q-28 0 -44 -15t-16 -35t16 -35t44 -15zM163 782h186q28 0 44 15t16 35t-16 35t-44 15h-186q-28 0 -44 -15t-16 -35t16 -35t44 -15zM803 782h186q28 0 44 15t16 35t-16 35t-44 15h-186q-28 0 -44 -15t-16 -35t16 -35t44 -15z" />
    <glyph glyph-name="X" unicode="X" 
d="M163 14h186q28 0 44 15t16 35t-16 35t-44 15h-186q-28 0 -44 -15t-16 -35t16 -35t44 -15zM675 14h186q28 0 44 15t16 35t-16 35t-44 15h-186q-28 0 -44 -15t-16 -35t16 -35t44 -15zM163 142h186q28 0 44 15t16 35t-16 35t-44 15h-186q-28 0 -44 -15t-16 -35t16 -35
t44 -15zM675 142h186q28 0 44 15t16 35t-16 35t-44 15h-186q-28 0 -44 -15t-16 -35t16 -35t44 -15zM291 270h442q28 0 44 15t16 35t-16 35t-44 15h-442q-28 0 -44 -15t-16 -35t16 -35t44 -15zM419 398h186q28 0 44 15t16 35t-16 35t-44 15h-186q-28 0 -44 -15t-16 -35
t16 -35t44 -15zM291 526h442q28 0 44 15t16 35t-16 35t-44 15h-442q-28 0 -44 -15t-16 -35t16 -35t44 -15zM163 654h186q28 0 44 15t16 35t-16 35t-44 15h-186q-28 0 -44 -15t-16 -35t16 -35t44 -15zM675 654h186q28 0 44 15t16 35t-16 35t-44 15h-186q-28 0 -44 -15
t-16 -35t16 -35t44 -15zM163 782h186q28 0 44 15t16 35t-16 35t-44 15h-186q-28 0 -44 -15t-16 -35t16 -35t44 -15zM675 782h186q28 0 44 15t16 35t-16 35t-44 15h-186q-28 0 -44 -15t-16 -35t16 -35t44 -15z" />
    <glyph glyph-name="Y" unicode="Y" 
d="M419 14h186q28 0 44 15t16 35t-16 35t-44 15h-186q-28 0 -44 -15t-16 -35t16 -35t44 -15zM419 142h186q28 0 44 15t16 35t-16 35t-44 15h-186q-28 0 -44 -15t-16 -35t16 -35t44 -15zM419 270h186q28 0 44 15t16 35t-16 35t-44 15h-186q-28 0 -44 -15t-16 -35t16 -35
t44 -15zM291 398h442q28 0 44 15t16 35t-16 35t-44 15h-442q-28 0 -44 -15t-16 -35t16 -35t44 -15zM163 526h186q28 0 44 15t16 35t-16 35t-44 15h-186q-28 0 -44 -15t-16 -35t16 -35t44 -15zM675 526h186q28 0 44 15t16 35t-16 35t-44 15h-186q-28 0 -44 -15t-16 -35
t16 -35t44 -15zM163 654h186q28 0 44 15t16 35t-16 35t-44 15h-186q-28 0 -44 -15t-16 -35t16 -35t44 -15zM675 654h186q28 0 44 15t16 35t-16 35t-44 15h-186q-28 0 -44 -15t-16 -35t16 -35t44 -15zM163 782h186q28 0 44 15t16 35t-16 35t-44 15h-186q-28 0 -44 -15
t-16 -35t16 -35t44 -15zM675 782h186q28 0 44 15t16 35t-16 35t-44 15h-186q-28 0 -44 -15t-16 -35t16 -35t44 -15z" />
    <glyph glyph-name="Z" unicode="Z" 
d="M163 14h698q28 0 44 15t16 35t-16 35t-44 15h-698q-28 0 -44 -15t-16 -35t16 -35t44 -15zM163 142h186q28 0 44 15t16 35t-16 35t-44 15h-186q-28 0 -44 -15t-16 -35t16 -35t44 -15zM291 270h186q28 0 44 15t16 35t-16 35t-44 15h-186q-28 0 -44 -15t-16 -35t16 -35
t44 -15zM419 398h186q28 0 44 15t16 35t-16 35t-44 15h-186q-28 0 -44 -15t-16 -35t16 -35t44 -15zM547 526h186q28 0 44 15t16 35t-16 35t-44 15h-186q-28 0 -44 -15t-16 -35t16 -35t44 -15zM675 654h186q28 0 44 15t16 35t-16 35t-44 15h-186q-28 0 -44 -15t-16 -35
t16 -35t44 -15zM163 782h698q28 0 44 15t16 35t-16 35t-44 15h-698q-28 0 -44 -15t-16 -35t16 -35t44 -15z" />
    <glyph glyph-name="bracketleft" unicode="[" 
d="M291 14h442q28 0 44 15t16 35t-16 35t-44 15h-442q-28 0 -44 -15t-16 -35t16 -35t44 -15zM291 142h186q28 0 44 15t16 35t-16 35t-44 15h-186q-28 0 -44 -15t-16 -35t16 -35t44 -15zM291 270h186q28 0 44 15t16 35t-16 35t-44 15h-186q-28 0 -44 -15t-16 -35t16 -35
t44 -15zM291 398h186q28 0 44 15t16 35t-16 35t-44 15h-186q-28 0 -44 -15t-16 -35t16 -35t44 -15zM291 526h186q28 0 44 15t16 35t-16 35t-44 15h-186q-28 0 -44 -15t-16 -35t16 -35t44 -15zM291 654h186q28 0 44 15t16 35t-16 35t-44 15h-186q-28 0 -44 -15t-16 -35
t16 -35t44 -15zM291 782h442q28 0 44 15t16 35t-16 35t-44 15h-442q-28 0 -44 -15t-16 -35t16 -35t44 -15z" />
    <glyph glyph-name="backslash" unicode="\" 
d="M803 14h186q28 0 44 15t16 35t-16 35t-44 15h-186q-28 0 -44 -15t-16 -35t16 -35t44 -15zM675 142h186q28 0 44 15t16 35t-16 35t-44 15h-186q-28 0 -44 -15t-16 -35t16 -35t44 -15zM547 270h186q28 0 44 15t16 35t-16 35t-44 15h-186q-28 0 -44 -15t-16 -35t16 -35
t44 -15zM419 398h186q28 0 44 15t16 35t-16 35t-44 15h-186q-28 0 -44 -15t-16 -35t16 -35t44 -15zM291 526h186q28 0 44 15t16 35t-16 35t-44 15h-186q-28 0 -44 -15t-16 -35t16 -35t44 -15zM163 654h186q28 0 44 15t16 35t-16 35t-44 15h-186q-28 0 -44 -15t-16 -35
t16 -35t44 -15z" />
    <glyph glyph-name="bracketright" unicode="]" 
d="M291 14h442q28 0 44 15t16 35t-16 35t-44 15h-442q-28 0 -44 -15t-16 -35t16 -35t44 -15zM547 142h186q28 0 44 15t16 35t-16 35t-44 15h-186q-28 0 -44 -15t-16 -35t16 -35t44 -15zM547 270h186q28 0 44 15t16 35t-16 35t-44 15h-186q-28 0 -44 -15t-16 -35t16 -35
t44 -15zM547 398h186q28 0 44 15t16 35t-16 35t-44 15h-186q-28 0 -44 -15t-16 -35t16 -35t44 -15zM547 526h186q28 0 44 15t16 35t-16 35t-44 15h-186q-28 0 -44 -15t-16 -35t16 -35t44 -15zM547 654h186q28 0 44 15t16 35t-16 35t-44 15h-186q-28 0 -44 -15t-16 -35
t16 -35t44 -15zM291 782h442q28 0 44 15t16 35t-16 35t-44 15h-442q-28 0 -44 -15t-16 -35t16 -35t44 -15z" />
    <glyph glyph-name="asciicircum" unicode="^" 
d="M163 526h186q28 0 44 15t16 35t-16 35t-44 15h-186q-28 0 -44 -15t-16 -35t16 -35t44 -15zM675 526h186q28 0 44 15t16 35t-16 35t-44 15h-186q-28 0 -44 -15t-16 -35t16 -35t44 -15zM291 654h442q28 0 44 15t16 35t-16 35t-44 15h-442q-28 0 -44 -15t-16 -35t16 -35
t44 -15zM419 782h186q28 0 44 15t16 35t-16 35t-44 15h-186q-28 0 -44 -15t-16 -35t16 -35t44 -15z" />
    <glyph glyph-name="underscore" unicode="_" 
d="M163 -114h698q28 0 44 15t16 35t-16 35t-44 15h-698q-28 0 -44 -15t-16 -35t16 -35t44 -15z" />
    <glyph glyph-name="grave" unicode="`" 
d="M419 654h186q28 0 44 15t16 35t-16 35t-44 15h-186q-28 0 -44 -15t-16 -35t16 -35t44 -15zM291 782h186q28 0 44 15t16 35t-16 35t-44 15h-186q-28 0 -44 -15t-16 -35t16 -35t44 -15z" />
    <glyph glyph-name="a" unicode="a" 
d="M291 14h570q28 0 44 15t16 35t-16 35t-44 15h-570q-28 0 -44 -15t-16 -35t16 -35t44 -15zM163 142h186q28 0 44 15t16 35t-16 35t-44 15h-186q-28 0 -44 -15t-16 -35t16 -35t44 -15zM675 142h186q28 0 44 15t16 35t-16 35t-44 15h-186q-28 0 -44 -15t-16 -35t16 -35
t44 -15zM291 270h570q28 0 44 15t16 35t-16 35t-44 15h-570q-28 0 -44 -15t-16 -35t16 -35t44 -15zM675 398h186q28 0 44 15t16 35t-16 35t-44 15h-186q-28 0 -44 -15t-16 -35t16 -35t44 -15zM291 526h442q28 0 44 15t16 35t-16 35t-44 15h-442q-28 0 -44 -15t-16 -35
t16 -35t44 -15z" />
    <glyph glyph-name="b" unicode="b" 
d="M163 14h570q28 0 44 15t16 35t-16 35t-44 15h-570q-28 0 -44 -15t-16 -35t16 -35t44 -15zM163 142h186q28 0 44 15t16 35t-16 35t-44 15h-186q-28 0 -44 -15t-16 -35t16 -35t44 -15zM675 142h186q28 0 44 15t16 35t-16 35t-44 15h-186q-28 0 -44 -15t-16 -35t16 -35
t44 -15zM163 270h186q28 0 44 15t16 35t-16 35t-44 15h-186q-28 0 -44 -15t-16 -35t16 -35t44 -15zM675 270h186q28 0 44 15t16 35t-16 35t-44 15h-186q-28 0 -44 -15t-16 -35t16 -35t44 -15zM163 398h570q28 0 44 15t16 35t-16 35t-44 15h-570q-28 0 -44 -15t-16 -35
t16 -35t44 -15zM163 526h186q28 0 44 15t16 35t-16 35t-44 15h-186q-28 0 -44 -15t-16 -35t16 -35t44 -15zM163 654h186q28 0 44 15t16 35t-16 35t-44 15h-186q-28 0 -44 -15t-16 -35t16 -35t44 -15z" />
    <glyph glyph-name="c" unicode="c" 
d="M291 14h442q28 0 44 15t16 35t-16 35t-44 15h-442q-28 0 -44 -15t-16 -35t16 -35t44 -15zM163 142h186q28 0 44 15t16 35t-16 35t-44 15h-186q-28 0 -44 -15t-16 -35t16 -35t44 -15zM163 270h186q28 0 44 15t16 35t-16 35t-44 15h-186q-28 0 -44 -15t-16 -35t16 -35
t44 -15zM163 398h186q28 0 44 15t16 35t-16 35t-44 15h-186q-28 0 -44 -15t-16 -35t16 -35t44 -15zM291 526h442q28 0 44 15t16 35t-16 35t-44 15h-442q-28 0 -44 -15t-16 -35t16 -35t44 -15z" />
    <glyph glyph-name="d" unicode="d" 
d="M291 14h570q28 0 44 15t16 35t-16 35t-44 15h-570q-28 0 -44 -15t-16 -35t16 -35t44 -15zM163 142h186q28 0 44 15t16 35t-16 35t-44 15h-186q-28 0 -44 -15t-16 -35t16 -35t44 -15zM675 142h186q28 0 44 15t16 35t-16 35t-44 15h-186q-28 0 -44 -15t-16 -35t16 -35
t44 -15zM163 270h186q28 0 44 15t16 35t-16 35t-44 15h-186q-28 0 -44 -15t-16 -35t16 -35t44 -15zM675 270h186q28 0 44 15t16 35t-16 35t-44 15h-186q-28 0 -44 -15t-16 -35t16 -35t44 -15zM291 398h570q28 0 44 15t16 35t-16 35t-44 15h-570q-28 0 -44 -15t-16 -35
t16 -35t44 -15zM675 526h186q28 0 44 15t16 35t-16 35t-44 15h-186q-28 0 -44 -15t-16 -35t16 -35t44 -15zM675 654h186q28 0 44 15t16 35t-16 35t-44 15h-186q-28 0 -44 -15t-16 -35t16 -35t44 -15z" />
    <glyph glyph-name="e" unicode="e" 
d="M291 14h442q28 0 44 15t16 35t-16 35t-44 15h-442q-28 0 -44 -15t-16 -35t16 -35t44 -15zM163 142h186q28 0 44 15t16 35t-16 35t-44 15h-186q-28 0 -44 -15t-16 -35t16 -35t44 -15zM163 270h698q28 0 44 15t16 35t-16 35t-44 15h-698q-28 0 -44 -15t-16 -35t16 -35
t44 -15zM163 398h186q28 0 44 15t16 35t-16 35t-44 15h-186q-28 0 -44 -15t-16 -35t16 -35t44 -15zM675 398h186q28 0 44 15t16 35t-16 35t-44 15h-186q-28 0 -44 -15t-16 -35t16 -35t44 -15zM291 526h442q28 0 44 15t16 35t-16 35t-44 15h-442q-28 0 -44 -15t-16 -35
t16 -35t44 -15z" />
    <glyph glyph-name="f" unicode="f" 
d="M419 14h186q28 0 44 15t16 35t-16 35t-44 15h-186q-28 0 -44 -15t-16 -35t16 -35t44 -15zM419 142h186q28 0 44 15t16 35t-16 35t-44 15h-186q-28 0 -44 -15t-16 -35t16 -35t44 -15zM419 270h186q28 0 44 15t16 35t-16 35t-44 15h-186q-28 0 -44 -15t-16 -35t16 -35
t44 -15zM291 398h570q28 0 44 15t16 35t-16 35t-44 15h-570q-28 0 -44 -15t-16 -35t16 -35t44 -15zM419 526h186q28 0 44 15t16 35t-16 35t-44 15h-186q-28 0 -44 -15t-16 -35t16 -35t44 -15zM547 654h314q28 0 44 15t16 35t-16 35t-44 15h-314q-28 0 -44 -15t-16 -35
t16 -35t44 -15z" />
    <glyph glyph-name="g" unicode="g" 
d="M163 -114h570q28 0 44 15t16 35t-16 35t-44 15h-570q-28 0 -44 -15t-16 -35t16 -35t44 -15zM675 14h186q28 0 44 15t16 35t-16 35t-44 15h-186q-28 0 -44 -15t-16 -35t16 -35t44 -15zM291 142h570q28 0 44 15t16 35t-16 35t-44 15h-570q-28 0 -44 -15t-16 -35t16 -35
t44 -15zM163 270h186q28 0 44 15t16 35t-16 35t-44 15h-186q-28 0 -44 -15t-16 -35t16 -35t44 -15zM675 270h186q28 0 44 15t16 35t-16 35t-44 15h-186q-28 0 -44 -15t-16 -35t16 -35t44 -15zM163 398h186q28 0 44 15t16 35t-16 35t-44 15h-186q-28 0 -44 -15t-16 -35
t16 -35t44 -15zM675 398h186q28 0 44 15t16 35t-16 35t-44 15h-186q-28 0 -44 -15t-16 -35t16 -35t44 -15zM291 526h570q28 0 44 15t16 35t-16 35t-44 15h-570q-28 0 -44 -15t-16 -35t16 -35t44 -15z" />
    <glyph glyph-name="h" unicode="h" 
d="M163 14h186q28 0 44 15t16 35t-16 35t-44 15h-186q-28 0 -44 -15t-16 -35t16 -35t44 -15zM675 14h186q28 0 44 15t16 35t-16 35t-44 15h-186q-28 0 -44 -15t-16 -35t16 -35t44 -15zM163 142h186q28 0 44 15t16 35t-16 35t-44 15h-186q-28 0 -44 -15t-16 -35t16 -35
t44 -15zM675 142h186q28 0 44 15t16 35t-16 35t-44 15h-186q-28 0 -44 -15t-16 -35t16 -35t44 -15zM163 270h186q28 0 44 15t16 35t-16 35t-44 15h-186q-28 0 -44 -15t-16 -35t16 -35t44 -15zM675 270h186q28 0 44 15t16 35t-16 35t-44 15h-186q-28 0 -44 -15t-16 -35
t16 -35t44 -15zM163 398h570q28 0 44 15t16 35t-16 35t-44 15h-570q-28 0 -44 -15t-16 -35t16 -35t44 -15zM163 526h186q28 0 44 15t16 35t-16 35t-44 15h-186q-28 0 -44 -15t-16 -35t16 -35t44 -15zM163 654h186q28 0 44 15t16 35t-16 35t-44 15h-186q-28 0 -44 -15
t-16 -35t16 -35t44 -15z" />
    <glyph glyph-name="i" unicode="i" 
d="M291 14h442q28 0 44 15t16 35t-16 35t-44 15h-442q-28 0 -44 -15t-16 -35t16 -35t44 -15zM419 142h186q28 0 44 15t16 35t-16 35t-44 15h-186q-28 0 -44 -15t-16 -35t16 -35t44 -15zM419 270h186q28 0 44 15t16 35t-16 35t-44 15h-186q-28 0 -44 -15t-16 -35t16 -35
t44 -15zM291 398h314q28 0 44 15t16 35t-16 35t-44 15h-314q-28 0 -44 -15t-16 -35t16 -35t44 -15zM419 654h186q28 0 44 15t16 35t-16 35t-44 15h-186q-28 0 -44 -15t-16 -35t16 -35t44 -15z" />
    <glyph glyph-name="j" unicode="j" 
d="M291 -114h442q28 0 44 15t16 35t-16 35t-44 15h-442q-28 0 -44 -15t-16 -35t16 -35t44 -15zM675 14h186q28 0 44 15t16 35t-16 35t-44 15h-186q-28 0 -44 -15t-16 -35t16 -35t44 -15zM675 142h186q28 0 44 15t16 35t-16 35t-44 15h-186q-28 0 -44 -15t-16 -35t16 -35
t44 -15zM675 270h186q28 0 44 15t16 35t-16 35t-44 15h-186q-28 0 -44 -15t-16 -35t16 -35t44 -15zM675 398h186q28 0 44 15t16 35t-16 35t-44 15h-186q-28 0 -44 -15t-16 -35t16 -35t44 -15zM675 654h186q28 0 44 15t16 35t-16 35t-44 15h-186q-28 0 -44 -15t-16 -35
t16 -35t44 -15z" />
    <glyph glyph-name="k" unicode="k" 
d="M163 14h186q28 0 44 15t16 35t-16 35t-44 15h-186q-28 0 -44 -15t-16 -35t16 -35t44 -15zM675 14h186q28 0 44 15t16 35t-16 35t-44 15h-186q-28 0 -44 -15t-16 -35t16 -35t44 -15zM163 142h186q28 0 44 15t16 35t-16 35t-44 15h-186q-28 0 -44 -15t-16 -35t16 -35
t44 -15zM547 142h186q28 0 44 15t16 35t-16 35t-44 15h-186q-28 0 -44 -15t-16 -35t16 -35t44 -15zM163 270h442q28 0 44 15t16 35t-16 35t-44 15h-442q-28 0 -44 -15t-16 -35t16 -35t44 -15zM163 398h186q28 0 44 15t16 35t-16 35t-44 15h-186q-28 0 -44 -15t-16 -35
t16 -35t44 -15zM547 398h186q28 0 44 15t16 35t-16 35t-44 15h-186q-28 0 -44 -15t-16 -35t16 -35t44 -15zM163 526h186q28 0 44 15t16 35t-16 35t-44 15h-186q-28 0 -44 -15t-16 -35t16 -35t44 -15zM163 654h186q28 0 44 15t16 35t-16 35t-44 15h-186q-28 0 -44 -15
t-16 -35t16 -35t44 -15z" />
    <glyph glyph-name="l" unicode="l" 
d="M291 14h442q28 0 44 15t16 35t-16 35t-44 15h-442q-28 0 -44 -15t-16 -35t16 -35t44 -15zM419 142h186q28 0 44 15t16 35t-16 35t-44 15h-186q-28 0 -44 -15t-16 -35t16 -35t44 -15zM419 270h186q28 0 44 15t16 35t-16 35t-44 15h-186q-28 0 -44 -15t-16 -35t16 -35
t44 -15zM419 398h186q28 0 44 15t16 35t-16 35t-44 15h-186q-28 0 -44 -15t-16 -35t16 -35t44 -15zM419 526h186q28 0 44 15t16 35t-16 35t-44 15h-186q-28 0 -44 -15t-16 -35t16 -35t44 -15zM291 654h314q28 0 44 15t16 35t-16 35t-44 15h-314q-28 0 -44 -15t-16 -35
t16 -35t44 -15z" />
    <glyph glyph-name="m" unicode="m" 
d="M163 14h186q28 0 44 15t16 35t-16 35t-44 15h-186q-28 0 -44 -15t-16 -35t16 -35t44 -15zM803 14h186q28 0 44 15t16 35t-16 35t-44 15h-186q-28 0 -44 -15t-16 -35t16 -35t44 -15zM163 142h186q28 0 44 15t16 35t-16 35t-44 15h-186q-28 0 -44 -15t-16 -35t16 -35
t44 -15zM538 142h76q22 0 36.5 15t14.5 35t-14.5 35t-36.5 15h-76q-22 0 -36.5 -15t-14.5 -35t14.5 -35t36.5 -15zM803 142h186q28 0 44 15t16 35t-16 35t-44 15h-186q-28 0 -44 -15t-16 -35t16 -35t44 -15zM163 270h826q28 0 44 15t16 35t-16 35t-44 15h-826q-28 0 -44 -15
t-16 -35t16 -35t44 -15zM163 398h826q28 0 44 15t16 35t-16 35t-44 15h-826q-28 0 -44 -15t-16 -35t16 -35t44 -15zM163 526h186q28 0 44 15t16 35t-16 35t-44 15h-186q-28 0 -44 -15t-16 -35t16 -35t44 -15zM675 526h186q28 0 44 15t16 35t-16 35t-44 15h-186
q-28 0 -44 -15t-16 -35t16 -35t44 -15z" />
    <glyph glyph-name="n" unicode="n" 
d="M163 14h186q28 0 44 15t16 35t-16 35t-44 15h-186q-28 0 -44 -15t-16 -35t16 -35t44 -15zM675 14h186q28 0 44 15t16 35t-16 35t-44 15h-186q-28 0 -44 -15t-16 -35t16 -35t44 -15zM163 142h186q28 0 44 15t16 35t-16 35t-44 15h-186q-28 0 -44 -15t-16 -35t16 -35
t44 -15zM675 142h186q28 0 44 15t16 35t-16 35t-44 15h-186q-28 0 -44 -15t-16 -35t16 -35t44 -15zM163 270h186q28 0 44 15t16 35t-16 35t-44 15h-186q-28 0 -44 -15t-16 -35t16 -35t44 -15zM675 270h186q28 0 44 15t16 35t-16 35t-44 15h-186q-28 0 -44 -15t-16 -35
t16 -35t44 -15zM163 398h186q28 0 44 15t16 35t-16 35t-44 15h-186q-28 0 -44 -15t-16 -35t16 -35t44 -15zM675 398h186q28 0 44 15t16 35t-16 35t-44 15h-186q-28 0 -44 -15t-16 -35t16 -35t44 -15zM163 526h570q28 0 44 15t16 35t-16 35t-44 15h-570q-28 0 -44 -15
t-16 -35t16 -35t44 -15z" />
    <glyph glyph-name="o" unicode="o" 
d="M291 14h442q28 0 44 15t16 35t-16 35t-44 15h-442q-28 0 -44 -15t-16 -35t16 -35t44 -15zM163 142h186q28 0 44 15t16 35t-16 35t-44 15h-186q-28 0 -44 -15t-16 -35t16 -35t44 -15zM675 142h186q28 0 44 15t16 35t-16 35t-44 15h-186q-28 0 -44 -15t-16 -35t16 -35
t44 -15zM163 270h186q28 0 44 15t16 35t-16 35t-44 15h-186q-28 0 -44 -15t-16 -35t16 -35t44 -15zM675 270h186q28 0 44 15t16 35t-16 35t-44 15h-186q-28 0 -44 -15t-16 -35t16 -35t44 -15zM163 398h186q28 0 44 15t16 35t-16 35t-44 15h-186q-28 0 -44 -15t-16 -35
t16 -35t44 -15zM675 398h186q28 0 44 15t16 35t-16 35t-44 15h-186q-28 0 -44 -15t-16 -35t16 -35t44 -15zM291 526h442q28 0 44 15t16 35t-16 35t-44 15h-442q-28 0 -44 -15t-16 -35t16 -35t44 -15z" />
    <glyph glyph-name="p" unicode="p" 
d="M163 -114h186q28 0 44 15t16 35t-16 35t-44 15h-186q-28 0 -44 -15t-16 -35t16 -35t44 -15zM163 14h186q28 0 44 15t16 35t-16 35t-44 15h-186q-28 0 -44 -15t-16 -35t16 -35t44 -15zM163 142h570q28 0 44 15t16 35t-16 35t-44 15h-570q-28 0 -44 -15t-16 -35t16 -35
t44 -15zM163 270h186q28 0 44 15t16 35t-16 35t-44 15h-186q-28 0 -44 -15t-16 -35t16 -35t44 -15zM675 270h186q28 0 44 15t16 35t-16 35t-44 15h-186q-28 0 -44 -15t-16 -35t16 -35t44 -15zM163 398h186q28 0 44 15t16 35t-16 35t-44 15h-186q-28 0 -44 -15t-16 -35
t16 -35t44 -15zM675 398h186q28 0 44 15t16 35t-16 35t-44 15h-186q-28 0 -44 -15t-16 -35t16 -35t44 -15zM163 526h570q28 0 44 15t16 35t-16 35t-44 15h-570q-28 0 -44 -15t-16 -35t16 -35t44 -15z" />
    <glyph glyph-name="q" unicode="q" 
d="M675 -114h186q28 0 44 15t16 35t-16 35t-44 15h-186q-28 0 -44 -15t-16 -35t16 -35t44 -15zM675 14h186q28 0 44 15t16 35t-16 35t-44 15h-186q-28 0 -44 -15t-16 -35t16 -35t44 -15zM291 142h570q28 0 44 15t16 35t-16 35t-44 15h-570q-28 0 -44 -15t-16 -35t16 -35
t44 -15zM163 270h186q28 0 44 15t16 35t-16 35t-44 15h-186q-28 0 -44 -15t-16 -35t16 -35t44 -15zM675 270h186q28 0 44 15t16 35t-16 35t-44 15h-186q-28 0 -44 -15t-16 -35t16 -35t44 -15zM163 398h186q28 0 44 15t16 35t-16 35t-44 15h-186q-28 0 -44 -15t-16 -35
t16 -35t44 -15zM675 398h186q28 0 44 15t16 35t-16 35t-44 15h-186q-28 0 -44 -15t-16 -35t16 -35t44 -15zM291 526h570q28 0 44 15t16 35t-16 35t-44 15h-570q-28 0 -44 -15t-16 -35t16 -35t44 -15z" />
    <glyph glyph-name="r" unicode="r" 
d="M163 14h186q28 0 44 15t16 35t-16 35t-44 15h-186q-28 0 -44 -15t-16 -35t16 -35t44 -15zM163 142h186q28 0 44 15t16 35t-16 35t-44 15h-186q-28 0 -44 -15t-16 -35t16 -35t44 -15zM163 270h186q28 0 44 15t16 35t-16 35t-44 15h-186q-28 0 -44 -15t-16 -35t16 -35
t44 -15zM163 398h186q28 0 44 15t16 35t-16 35t-44 15h-186q-28 0 -44 -15t-16 -35t16 -35t44 -15zM675 398h186q28 0 44 15t16 35t-16 35t-44 15h-186q-28 0 -44 -15t-16 -35t16 -35t44 -15zM163 526h570q28 0 44 15t16 35t-16 35t-44 15h-570q-28 0 -44 -15t-16 -35
t16 -35t44 -15z" />
    <glyph glyph-name="s" unicode="s" 
d="M163 14h570q28 0 44 15t16 35t-16 35t-44 15h-570q-28 0 -44 -15t-16 -35t16 -35t44 -15zM675 142h186q28 0 44 15t16 35t-16 35t-44 15h-186q-28 0 -44 -15t-16 -35t16 -35t44 -15zM291 270h442q28 0 44 15t16 35t-16 35t-44 15h-442q-28 0 -44 -15t-16 -35t16 -35
t44 -15zM163 398h186q28 0 44 15t16 35t-16 35t-44 15h-186q-28 0 -44 -15t-16 -35t16 -35t44 -15zM291 526h570q28 0 44 15t16 35t-16 35t-44 15h-570q-28 0 -44 -15t-16 -35t16 -35t44 -15z" />
    <glyph glyph-name="t" unicode="t" 
d="M547 14h314q28 0 44 15t16 35t-16 35t-44 15h-314q-28 0 -44 -15t-16 -35t16 -35t44 -15zM419 142h186q28 0 44 15t16 35t-16 35t-44 15h-186q-28 0 -44 -15t-16 -35t16 -35t44 -15zM419 270h186q28 0 44 15t16 35t-16 35t-44 15h-186q-28 0 -44 -15t-16 -35t16 -35
t44 -15zM419 398h186q28 0 44 15t16 35t-16 35t-44 15h-186q-28 0 -44 -15t-16 -35t16 -35t44 -15zM163 526h698q28 0 44 15t16 35t-16 35t-44 15h-698q-28 0 -44 -15t-16 -35t16 -35t44 -15zM419 654h186q28 0 44 15t16 35t-16 35t-44 15h-186q-28 0 -44 -15t-16 -35
t16 -35t44 -15z" />
    <glyph glyph-name="u" unicode="u" 
d="M291 14h570q28 0 44 15t16 35t-16 35t-44 15h-570q-28 0 -44 -15t-16 -35t16 -35t44 -15zM163 142h186q28 0 44 15t16 35t-16 35t-44 15h-186q-28 0 -44 -15t-16 -35t16 -35t44 -15zM675 142h186q28 0 44 15t16 35t-16 35t-44 15h-186q-28 0 -44 -15t-16 -35t16 -35
t44 -15zM163 270h186q28 0 44 15t16 35t-16 35t-44 15h-186q-28 0 -44 -15t-16 -35t16 -35t44 -15zM675 270h186q28 0 44 15t16 35t-16 35t-44 15h-186q-28 0 -44 -15t-16 -35t16 -35t44 -15zM163 398h186q28 0 44 15t16 35t-16 35t-44 15h-186q-28 0 -44 -15t-16 -35
t16 -35t44 -15zM675 398h186q28 0 44 15t16 35t-16 35t-44 15h-186q-28 0 -44 -15t-16 -35t16 -35t44 -15zM163 526h186q28 0 44 15t16 35t-16 35t-44 15h-186q-28 0 -44 -15t-16 -35t16 -35t44 -15zM675 526h186q28 0 44 15t16 35t-16 35t-44 15h-186q-28 0 -44 -15
t-16 -35t16 -35t44 -15z" />
    <glyph glyph-name="v" unicode="v" 
d="M419 14h186q28 0 44 15t16 35t-16 35t-44 15h-186q-28 0 -44 -15t-16 -35t16 -35t44 -15zM291 142h442q28 0 44 15t16 35t-16 35t-44 15h-442q-28 0 -44 -15t-16 -35t16 -35t44 -15zM163 270h186q28 0 44 15t16 35t-16 35t-44 15h-186q-28 0 -44 -15t-16 -35t16 -35
t44 -15zM675 270h186q28 0 44 15t16 35t-16 35t-44 15h-186q-28 0 -44 -15t-16 -35t16 -35t44 -15zM163 398h186q28 0 44 15t16 35t-16 35t-44 15h-186q-28 0 -44 -15t-16 -35t16 -35t44 -15zM675 398h186q28 0 44 15t16 35t-16 35t-44 15h-186q-28 0 -44 -15t-16 -35
t16 -35t44 -15zM163 526h186q28 0 44 15t16 35t-16 35t-44 15h-186q-28 0 -44 -15t-16 -35t16 -35t44 -15zM675 526h186q28 0 44 15t16 35t-16 35t-44 15h-186q-28 0 -44 -15t-16 -35t16 -35t44 -15z" />
    <glyph glyph-name="w" unicode="w" 
d="M291 14h186q28 0 44 15t16 35t-16 35t-44 15h-186q-28 0 -44 -15t-16 -35t16 -35t44 -15zM675 14h186q28 0 44 15t16 35t-16 35t-44 15h-186q-28 0 -44 -15t-16 -35t16 -35t44 -15zM291 142h570q28 0 44 15t16 35t-16 35t-44 15h-570q-28 0 -44 -15t-16 -35t16 -35
t44 -15zM163 270h826q28 0 44 15t16 35t-16 35t-44 15h-826q-28 0 -44 -15t-16 -35t16 -35t44 -15zM163 398h186q28 0 44 15t16 35t-16 35t-44 15h-186q-28 0 -44 -15t-16 -35t16 -35t44 -15zM538 398h76q22 0 36.5 15t14.5 35t-14.5 35t-36.5 15h-76q-22 0 -36.5 -15
t-14.5 -35t14.5 -35t36.5 -15zM803 398h186q28 0 44 15t16 35t-16 35t-44 15h-186q-28 0 -44 -15t-16 -35t16 -35t44 -15zM163 526h186q28 0 44 15t16 35t-16 35t-44 15h-186q-28 0 -44 -15t-16 -35t16 -35t44 -15zM803 526h186q28 0 44 15t16 35t-16 35t-44 15h-186
q-28 0 -44 -15t-16 -35t16 -35t44 -15z" />
    <glyph glyph-name="x" unicode="x" 
d="M163 14h186q28 0 44 15t16 35t-16 35t-44 15h-186q-28 0 -44 -15t-16 -35t16 -35t44 -15zM675 14h186q28 0 44 15t16 35t-16 35t-44 15h-186q-28 0 -44 -15t-16 -35t16 -35t44 -15zM291 142h442q28 0 44 15t16 35t-16 35t-44 15h-442q-28 0 -44 -15t-16 -35t16 -35
t44 -15zM419 270h186q28 0 44 15t16 35t-16 35t-44 15h-186q-28 0 -44 -15t-16 -35t16 -35t44 -15zM291 398h442q28 0 44 15t16 35t-16 35t-44 15h-442q-28 0 -44 -15t-16 -35t16 -35t44 -15zM163 526h186q28 0 44 15t16 35t-16 35t-44 15h-186q-28 0 -44 -15t-16 -35
t16 -35t44 -15zM675 526h186q28 0 44 15t16 35t-16 35t-44 15h-186q-28 0 -44 -15t-16 -35t16 -35t44 -15z" />
    <glyph glyph-name="y" unicode="y" 
d="M163 -114h570q28 0 44 15t16 35t-16 35t-44 15h-570q-28 0 -44 -15t-16 -35t16 -35t44 -15zM675 14h186q28 0 44 15t16 35t-16 35t-44 15h-186q-28 0 -44 -15t-16 -35t16 -35t44 -15zM291 142h570q28 0 44 15t16 35t-16 35t-44 15h-570q-28 0 -44 -15t-16 -35t16 -35
t44 -15zM163 270h186q28 0 44 15t16 35t-16 35t-44 15h-186q-28 0 -44 -15t-16 -35t16 -35t44 -15zM675 270h186q28 0 44 15t16 35t-16 35t-44 15h-186q-28 0 -44 -15t-16 -35t16 -35t44 -15zM163 398h186q28 0 44 15t16 35t-16 35t-44 15h-186q-28 0 -44 -15t-16 -35
t16 -35t44 -15zM675 398h186q28 0 44 15t16 35t-16 35t-44 15h-186q-28 0 -44 -15t-16 -35t16 -35t44 -15zM163 526h186q28 0 44 15t16 35t-16 35t-44 15h-186q-28 0 -44 -15t-16 -35t16 -35t44 -15zM675 526h186q28 0 44 15t16 35t-16 35t-44 15h-186q-28 0 -44 -15
t-16 -35t16 -35t44 -15z" />
    <glyph glyph-name="z" unicode="z" 
d="M163 14h698q28 0 44 15t16 35t-16 35t-44 15h-698q-28 0 -44 -15t-16 -35t16 -35t44 -15zM291 142h186q28 0 44 15t16 35t-16 35t-44 15h-186q-28 0 -44 -15t-16 -35t16 -35t44 -15zM419 270h186q28 0 44 15t16 35t-16 35t-44 15h-186q-28 0 -44 -15t-16 -35t16 -35
t44 -15zM547 398h186q28 0 44 15t16 35t-16 35t-44 15h-186q-28 0 -44 -15t-16 -35t16 -35t44 -15zM163 526h698q28 0 44 15t16 35t-16 35t-44 15h-698q-28 0 -44 -15t-16 -35t16 -35t44 -15z" />
    <glyph glyph-name="braceleft" unicode="{" 
d="M547 14h314q28 0 44 15t16 35t-16 35t-44 15h-314q-28 0 -44 -15t-16 -35t16 -35t44 -15zM419 142h186q28 0 44 15t16 35t-16 35t-44 15h-186q-28 0 -44 -15t-16 -35t16 -35t44 -15zM419 270h186q28 0 44 15t16 35t-16 35t-44 15h-186q-28 0 -44 -15t-16 -35t16 -35
t44 -15zM291 398h186q28 0 44 15t16 35t-16 35t-44 15h-186q-28 0 -44 -15t-16 -35t16 -35t44 -15zM419 526h186q28 0 44 15t16 35t-16 35t-44 15h-186q-28 0 -44 -15t-16 -35t16 -35t44 -15zM419 654h186q28 0 44 15t16 35t-16 35t-44 15h-186q-28 0 -44 -15t-16 -35
t16 -35t44 -15zM547 782h314q28 0 44 15t16 35t-16 35t-44 15h-314q-28 0 -44 -15t-16 -35t16 -35t44 -15z" />
    <glyph glyph-name="bar" unicode="|" 
d="M419 -114h186q28 0 44 15t16 35t-16 35t-44 15h-186q-28 0 -44 -15t-16 -35t16 -35t44 -15zM419 14h186q28 0 44 15t16 35t-16 35t-44 15h-186q-28 0 -44 -15t-16 -35t16 -35t44 -15zM419 142h186q28 0 44 15t16 35t-16 35t-44 15h-186q-28 0 -44 -15t-16 -35t16 -35
t44 -15zM419 270h186q28 0 44 15t16 35t-16 35t-44 15h-186q-28 0 -44 -15t-16 -35t16 -35t44 -15zM419 398h186q28 0 44 15t16 35t-16 35t-44 15h-186q-28 0 -44 -15t-16 -35t16 -35t44 -15zM419 526h186q28 0 44 15t16 35t-16 35t-44 15h-186q-28 0 -44 -15t-16 -35
t16 -35t44 -15zM419 654h186q28 0 44 15t16 35t-16 35t-44 15h-186q-28 0 -44 -15t-16 -35t16 -35t44 -15zM419 782h186q28 0 44 15t16 35t-16 35t-44 15h-186q-28 0 -44 -15t-16 -35t16 -35t44 -15z" />
    <glyph glyph-name="braceright" unicode="}" 
d="M163 14h314q28 0 44 15t16 35t-16 35t-44 15h-314q-28 0 -44 -15t-16 -35t16 -35t44 -15zM419 142h186q28 0 44 15t16 35t-16 35t-44 15h-186q-28 0 -44 -15t-16 -35t16 -35t44 -15zM419 270h186q28 0 44 15t16 35t-16 35t-44 15h-186q-28 0 -44 -15t-16 -35t16 -35
t44 -15zM547 398h186q28 0 44 15t16 35t-16 35t-44 15h-186q-28 0 -44 -15t-16 -35t16 -35t44 -15zM419 526h186q28 0 44 15t16 35t-16 35t-44 15h-186q-28 0 -44 -15t-16 -35t16 -35t44 -15zM419 654h186q28 0 44 15t16 35t-16 35t-44 15h-186q-28 0 -44 -15t-16 -35
t16 -35t44 -15zM163 782h314q28 0 44 15t16 35t-16 35t-44 15h-314q-28 0 -44 -15t-16 -35t16 -35t44 -15z" />
    <glyph glyph-name="asciitilde" unicode="~" 
d="M163 270h186q28 0 44 15t16 35t-16 35t-44 15h-186q-28 0 -44 -15t-16 -35t16 -35t44 -15zM547 270h314q28 0 44 15t16 35t-16 35t-44 15h-314q-28 0 -44 -15t-16 -35t16 -35t44 -15zM291 398h314q28 0 44 15t16 35t-16 35t-44 15h-314q-28 0 -44 -15t-16 -35t16 -35
t44 -15zM803 398h186q28 0 44 15t16 35t-16 35t-44 15h-186q-28 0 -44 -15t-16 -35t16 -35t44 -15z" />
    <glyph glyph-name="uni00A0" unicode="&#xa0;" 
 />
    <glyph glyph-name="exclamdown" unicode="&#xa1;" 
d="M419 -114h186q28 0 44 15t16 35t-16 35t-44 15h-186q-28 0 -44 -15t-16 -35t16 -35t44 -15zM419 14h186q28 0 44 15t16 35t-16 35t-44 15h-186q-28 0 -44 -15t-16 -35t16 -35t44 -15zM419 142h186q28 0 44 15t16 35t-16 35t-44 15h-186q-28 0 -44 -15t-16 -35t16 -35
t44 -15zM419 270h186q28 0 44 15t16 35t-16 35t-44 15h-186q-28 0 -44 -15t-16 -35t16 -35t44 -15zM419 654h186q28 0 44 15t16 35t-16 35t-44 15h-186q-28 0 -44 -15t-16 -35t16 -35t44 -15z" />
    <glyph glyph-name="cent" unicode="&#xa2;" 
d="M419 14h186q28 0 44 15t16 35t-16 35t-44 15h-186q-28 0 -44 -15t-16 -35t16 -35t44 -15zM291 142h442q28 0 44 15t16 35t-16 35t-44 15h-442q-28 0 -44 -15t-16 -35t16 -35t44 -15zM163 270h186q28 0 44 15t16 35t-16 35t-44 15h-186q-28 0 -44 -15t-16 -35t16 -35
t44 -15zM163 398h186q28 0 44 15t16 35t-16 35t-44 15h-186q-28 0 -44 -15t-16 -35t16 -35t44 -15zM291 526h442q28 0 44 15t16 35t-16 35t-44 15h-442q-28 0 -44 -15t-16 -35t16 -35t44 -15zM419 654h186q28 0 44 15t16 35t-16 35t-44 15h-186q-28 0 -44 -15t-16 -35
t16 -35t44 -15z" />
    <glyph glyph-name="sterling" unicode="&#xa3;" 
d="M35 14h698q28 0 44 15t16 35t-16 35t-44 15h-698q-28 0 -44 -15t-16 -35t16 -35t44 -15zM163 142h186q28 0 44 15t16 35t-16 35t-44 15h-186q-28 0 -44 -15t-16 -35t16 -35t44 -15zM794 142h76q22 0 36.5 15t14.5 35t-14.5 35t-36.5 15h-76q-22 0 -36.5 -15t-14.5 -35
t14.5 -35t36.5 -15zM291 270h186q28 0 44 15t16 35t-16 35t-44 15h-186q-28 0 -44 -15t-16 -35t16 -35t44 -15zM163 398h570q28 0 44 15t16 35t-16 35t-44 15h-570q-28 0 -44 -15t-16 -35t16 -35t44 -15zM291 526h186q28 0 44 15t16 35t-16 35t-44 15h-186q-28 0 -44 -15
t-16 -35t16 -35t44 -15zM410 654h76q22 0 36.5 15t14.5 35t-14.5 35t-36.5 15h-76q-22 0 -36.5 -15t-14.5 -35t14.5 -35t36.5 -15zM794 654h76q22 0 36.5 15t14.5 35t-14.5 35t-36.5 15h-76q-22 0 -36.5 -15t-14.5 -35t14.5 -35t36.5 -15zM547 782h186q28 0 44 15t16 35
t-16 35t-44 15h-186q-28 0 -44 -15t-16 -35t16 -35t44 -15z" />
    <glyph glyph-name="currency" unicode="&#xa4;" 
d="M163 14h186q28 0 44 15t16 35t-16 35t-44 15h-186q-28 0 -44 -15t-16 -35t16 -35t44 -15zM675 14h186q28 0 44 15t16 35t-16 35t-44 15h-186q-28 0 -44 -15t-16 -35t16 -35t44 -15zM291 142h442q28 0 44 15t16 35t-16 35t-44 15h-442q-28 0 -44 -15t-16 -35t16 -35
t44 -15zM163 270h186q28 0 44 15t16 35t-16 35t-44 15h-186q-28 0 -44 -15t-16 -35t16 -35t44 -15zM675 270h186q28 0 44 15t16 35t-16 35t-44 15h-186q-28 0 -44 -15t-16 -35t16 -35t44 -15zM163 398h186q28 0 44 15t16 35t-16 35t-44 15h-186q-28 0 -44 -15t-16 -35
t16 -35t44 -15zM675 398h186q28 0 44 15t16 35t-16 35t-44 15h-186q-28 0 -44 -15t-16 -35t16 -35t44 -15zM291 526h442q28 0 44 15t16 35t-16 35t-44 15h-442q-28 0 -44 -15t-16 -35t16 -35t44 -15zM163 654h186q28 0 44 15t16 35t-16 35t-44 15h-186q-28 0 -44 -15
t-16 -35t16 -35t44 -15zM675 654h186q28 0 44 15t16 35t-16 35t-44 15h-186q-28 0 -44 -15t-16 -35t16 -35t44 -15z" />
    <glyph glyph-name="yen" unicode="&#xa5;" 
d="M419 14h186q28 0 44 15t16 35t-16 35t-44 15h-186q-28 0 -44 -15t-16 -35t16 -35t44 -15zM163 142h698q28 0 44 15t16 35t-16 35t-44 15h-698q-28 0 -44 -15t-16 -35t16 -35t44 -15zM419 270h186q28 0 44 15t16 35t-16 35t-44 15h-186q-28 0 -44 -15t-16 -35t16 -35
t44 -15zM291 398h442q28 0 44 15t16 35t-16 35t-44 15h-442q-28 0 -44 -15t-16 -35t16 -35t44 -15zM163 526h186q28 0 44 15t16 35t-16 35t-44 15h-186q-28 0 -44 -15t-16 -35t16 -35t44 -15zM675 526h186q28 0 44 15t16 35t-16 35t-44 15h-186q-28 0 -44 -15t-16 -35
t16 -35t44 -15zM163 654h186q28 0 44 15t16 35t-16 35t-44 15h-186q-28 0 -44 -15t-16 -35t16 -35t44 -15zM675 654h186q28 0 44 15t16 35t-16 35t-44 15h-186q-28 0 -44 -15t-16 -35t16 -35t44 -15z" />
    <glyph glyph-name="brokenbar" unicode="&#xa6;" 
d="M419 -114h186q28 0 44 15t16 35t-16 35t-44 15h-186q-28 0 -44 -15t-16 -35t16 -35t44 -15zM419 14h186q28 0 44 15t16 35t-16 35t-44 15h-186q-28 0 -44 -15t-16 -35t16 -35t44 -15zM419 142h186q28 0 44 15t16 35t-16 35t-44 15h-186q-28 0 -44 -15t-16 -35t16 -35
t44 -15zM419 526h186q28 0 44 15t16 35t-16 35t-44 15h-186q-28 0 -44 -15t-16 -35t16 -35t44 -15zM419 654h186q28 0 44 15t16 35t-16 35t-44 15h-186q-28 0 -44 -15t-16 -35t16 -35t44 -15zM419 782h186q28 0 44 15t16 35t-16 35t-44 15h-186q-28 0 -44 -15t-16 -35
t16 -35t44 -15z" />
    <glyph glyph-name="section" unicode="&#xa7;" 
d="M163 14h570q28 0 44 15t16 35t-16 35t-44 15h-570q-28 0 -44 -15t-16 -35t16 -35t44 -15zM675 142h186q28 0 44 15t16 35t-16 35t-44 15h-186q-28 0 -44 -15t-16 -35t16 -35t44 -15zM291 270h570q28 0 44 15t16 35t-16 35t-44 15h-570q-28 0 -44 -15t-16 -35t16 -35
t44 -15zM163 398h186q28 0 44 15t16 35t-16 35t-44 15h-186q-28 0 -44 -15t-16 -35t16 -35t44 -15zM675 398h186q28 0 44 15t16 35t-16 35t-44 15h-186q-28 0 -44 -15t-16 -35t16 -35t44 -15zM163 526h570q28 0 44 15t16 35t-16 35t-44 15h-570q-28 0 -44 -15t-16 -35
t16 -35t44 -15zM163 654h186q28 0 44 15t16 35t-16 35t-44 15h-186q-28 0 -44 -15t-16 -35t16 -35t44 -15zM291 782h570q28 0 44 15t16 35t-16 35t-44 15h-570q-28 0 -44 -15t-16 -35t16 -35t44 -15z" />
    <glyph glyph-name="dieresis" unicode="&#xa8;" 
d="M163 782h186q28 0 44 15t16 35t-16 35t-44 15h-186q-28 0 -44 -15t-16 -35t16 -35t44 -15zM675 782h186q28 0 44 15t16 35t-16 35t-44 15h-186q-28 0 -44 -15t-16 -35t16 -35t44 -15z" />
    <glyph glyph-name="copyright" unicode="&#xa9;" 
d="M419 14h314q28 0 44 15t16 35t-16 35t-44 15h-314q-28 0 -44 -15t-16 -35t16 -35t44 -15zM282 142h76q22 0 36.5 15t14.5 35t-14.5 35t-36.5 15h-76q-22 0 -36.5 -15t-14.5 -35t14.5 -35t36.5 -15zM794 142h76q22 0 36.5 15t14.5 35t-14.5 35t-36.5 15h-76
q-22 0 -36.5 -15t-14.5 -35t14.5 -35t36.5 -15zM154 270h76q22 0 36.5 15t14.5 35t-14.5 35t-36.5 15h-76q-22 0 -36.5 -15t-14.5 -35t14.5 -35t36.5 -15zM547 270h186q28 0 44 15t16 35t-16 35t-44 15h-186q-28 0 -44 -15t-16 -35t16 -35t44 -15zM922 270h76q22 0 36.5 15
t14.5 35t-14.5 35t-36.5 15h-76q-22 0 -36.5 -15t-14.5 -35t14.5 -35t36.5 -15zM154 398h76q22 0 36.5 15t14.5 35t-14.5 35t-36.5 15h-76q-22 0 -36.5 -15t-14.5 -35t14.5 -35t36.5 -15zM410 398h76q22 0 36.5 15t14.5 35t-14.5 35t-36.5 15h-76q-22 0 -36.5 -15t-14.5 -35
t14.5 -35t36.5 -15zM922 398h76q22 0 36.5 15t14.5 35t-14.5 35t-36.5 15h-76q-22 0 -36.5 -15t-14.5 -35t14.5 -35t36.5 -15zM154 526h76q22 0 36.5 15t14.5 35t-14.5 35t-36.5 15h-76q-22 0 -36.5 -15t-14.5 -35t14.5 -35t36.5 -15zM547 526h186q28 0 44 15t16 35t-16 35
t-44 15h-186q-28 0 -44 -15t-16 -35t16 -35t44 -15zM922 526h76q22 0 36.5 15t14.5 35t-14.5 35t-36.5 15h-76q-22 0 -36.5 -15t-14.5 -35t14.5 -35t36.5 -15zM282 654h76q22 0 36.5 15t14.5 35t-14.5 35t-36.5 15h-76q-22 0 -36.5 -15t-14.5 -35t14.5 -35t36.5 -15z
M794 654h76q22 0 36.5 15t14.5 35t-14.5 35t-36.5 15h-76q-22 0 -36.5 -15t-14.5 -35t14.5 -35t36.5 -15zM419 782h314q28 0 44 15t16 35t-16 35t-44 15h-314q-28 0 -44 -15t-16 -35t16 -35t44 -15z" />
    <glyph glyph-name="ordfeminine" unicode="&#xaa;" 
d="M291 270h570q28 0 44 15t16 35t-16 35t-44 15h-570q-28 0 -44 -15t-16 -35t16 -35t44 -15zM163 398h186q28 0 44 15t16 35t-16 35t-44 15h-186q-28 0 -44 -15t-16 -35t16 -35t44 -15zM675 398h186q28 0 44 15t16 35t-16 35t-44 15h-186q-28 0 -44 -15t-16 -35t16 -35
t44 -15zM291 526h570q28 0 44 15t16 35t-16 35t-44 15h-570q-28 0 -44 -15t-16 -35t16 -35t44 -15zM675 654h186q28 0 44 15t16 35t-16 35t-44 15h-186q-28 0 -44 -15t-16 -35t16 -35t44 -15zM291 782h442q28 0 44 15t16 35t-16 35t-44 15h-442q-28 0 -44 -15t-16 -35
t16 -35t44 -15z" />
    <glyph glyph-name="guillemotleft" unicode="&#xab;" 
d="M410 14h76q22 0 36.5 15t14.5 35t-14.5 35t-36.5 15h-76q-22 0 -36.5 -15t-14.5 -35t14.5 -35t36.5 -15zM291 142h186q28 0 44 15t16 35t-16 35t-44 15h-186q-28 0 -44 -15t-16 -35t16 -35t44 -15zM163 270h186q28 0 44 15t16 35t-16 35t-44 15h-186q-28 0 -44 -15
t-16 -35t16 -35t44 -15zM291 398h186q28 0 44 15t16 35t-16 35t-44 15h-186q-28 0 -44 -15t-16 -35t16 -35t44 -15zM410 526h76q22 0 36.5 15t14.5 35t-14.5 35t-36.5 15h-76q-22 0 -36.5 -15t-14.5 -35t14.5 -35t36.5 -15zM794 14h76q22 0 36.5 15t14.5 35t-14.5 35
t-36.5 15h-76q-22 0 -36.5 -15t-14.5 -35t14.5 -35t36.5 -15zM675 142h186q28 0 44 15t16 35t-16 35t-44 15h-186q-28 0 -44 -15t-16 -35t16 -35t44 -15zM547 270h186q28 0 44 15t16 35t-16 35t-44 15h-186q-28 0 -44 -15t-16 -35t16 -35t44 -15zM675 398h186q28 0 44 15
t16 35t-16 35t-44 15h-186q-28 0 -44 -15t-16 -35t16 -35t44 -15zM794 526h76q22 0 36.5 15t14.5 35t-14.5 35t-36.5 15h-76q-22 0 -36.5 -15t-14.5 -35t14.5 -35t36.5 -15z" />
    <glyph glyph-name="logicalnot" unicode="&#xac;" 
d="M675 142h186q28 0 44 15t16 35t-16 35t-44 15h-186q-28 0 -44 -15t-16 -35t16 -35t44 -15zM675 270h186q28 0 44 15t16 35t-16 35t-44 15h-186q-28 0 -44 -15t-16 -35t16 -35t44 -15zM163 398h698q28 0 44 15t16 35t-16 35t-44 15h-698q-28 0 -44 -15t-16 -35t16 -35
t44 -15z" />
    <glyph glyph-name="registered" unicode="&#xae;" 
d="M419 14h314q28 0 44 15t16 35t-16 35t-44 15h-314q-28 0 -44 -15t-16 -35t16 -35t44 -15zM282 142h76q22 0 36.5 15t14.5 35t-14.5 35t-36.5 15h-76q-22 0 -36.5 -15t-14.5 -35t14.5 -35t36.5 -15zM794 142h76q22 0 36.5 15t14.5 35t-14.5 35t-36.5 15h-76
q-22 0 -36.5 -15t-14.5 -35t14.5 -35t36.5 -15zM154 270h76q22 0 36.5 15t14.5 35t-14.5 35t-36.5 15h-76q-22 0 -36.5 -15t-14.5 -35t14.5 -35t36.5 -15zM410 270h76q22 0 36.5 15t14.5 35t-14.5 35t-36.5 15h-76q-22 0 -36.5 -15t-14.5 -35t14.5 -35t36.5 -15zM666 270h76
q22 0 36.5 15t14.5 35t-14.5 35t-36.5 15h-76q-22 0 -36.5 -15t-14.5 -35t14.5 -35t36.5 -15zM922 270h76q22 0 36.5 15t14.5 35t-14.5 35t-36.5 15h-76q-22 0 -36.5 -15t-14.5 -35t14.5 -35t36.5 -15zM154 398h76q22 0 36.5 15t14.5 35t-14.5 35t-36.5 15h-76
q-22 0 -36.5 -15t-14.5 -35t14.5 -35t36.5 -15zM419 398h186q28 0 44 15t16 35t-16 35t-44 15h-186q-28 0 -44 -15t-16 -35t16 -35t44 -15zM922 398h76q22 0 36.5 15t14.5 35t-14.5 35t-36.5 15h-76q-22 0 -36.5 -15t-14.5 -35t14.5 -35t36.5 -15zM154 526h76q22 0 36.5 15
t14.5 35t-14.5 35t-36.5 15h-76q-22 0 -36.5 -15t-14.5 -35t14.5 -35t36.5 -15zM419 526h314q28 0 44 15t16 35t-16 35t-44 15h-314q-28 0 -44 -15t-16 -35t16 -35t44 -15zM922 526h76q22 0 36.5 15t14.5 35t-14.5 35t-36.5 15h-76q-22 0 -36.5 -15t-14.5 -35t14.5 -35
t36.5 -15zM282 654h76q22 0 36.5 15t14.5 35t-14.5 35t-36.5 15h-76q-22 0 -36.5 -15t-14.5 -35t14.5 -35t36.5 -15zM794 654h76q22 0 36.5 15t14.5 35t-14.5 35t-36.5 15h-76q-22 0 -36.5 -15t-14.5 -35t14.5 -35t36.5 -15zM419 782h314q28 0 44 15t16 35t-16 35t-44 15
h-314q-28 0 -44 -15t-16 -35t16 -35t44 -15z" />
    <glyph glyph-name="macron" unicode="&#xaf;" 
d="M291 782h442q28 0 44 15t16 35t-16 35t-44 15h-442q-28 0 -44 -15t-16 -35t16 -35t44 -15z" />
    <glyph glyph-name="degree" unicode="&#xb0;" 
d="M291 398h314q28 0 44 15t16 35t-16 35t-44 15h-314q-28 0 -44 -15t-16 -35t16 -35t44 -15zM163 526h186q28 0 44 15t16 35t-16 35t-44 15h-186q-28 0 -44 -15t-16 -35t16 -35t44 -15zM547 526h186q28 0 44 15t16 35t-16 35t-44 15h-186q-28 0 -44 -15t-16 -35t16 -35
t44 -15zM163 654h186q28 0 44 15t16 35t-16 35t-44 15h-186q-28 0 -44 -15t-16 -35t16 -35t44 -15zM547 654h186q28 0 44 15t16 35t-16 35t-44 15h-186q-28 0 -44 -15t-16 -35t16 -35t44 -15zM291 782h314q28 0 44 15t16 35t-16 35t-44 15h-314q-28 0 -44 -15t-16 -35
t16 -35t44 -15z" />
    <glyph glyph-name="plusminus" unicode="&#xb1;" 
d="M163 14h698q28 0 44 15t16 35t-16 35t-44 15h-698q-28 0 -44 -15t-16 -35t16 -35t44 -15zM419 142h186q28 0 44 15t16 35t-16 35t-44 15h-186q-28 0 -44 -15t-16 -35t16 -35t44 -15zM419 270h186q28 0 44 15t16 35t-16 35t-44 15h-186q-28 0 -44 -15t-16 -35t16 -35
t44 -15zM163 398h698q28 0 44 15t16 35t-16 35t-44 15h-698q-28 0 -44 -15t-16 -35t16 -35t44 -15zM419 526h186q28 0 44 15t16 35t-16 35t-44 15h-186q-28 0 -44 -15t-16 -35t16 -35t44 -15zM419 654h186q28 0 44 15t16 35t-16 35t-44 15h-186q-28 0 -44 -15t-16 -35
t16 -35t44 -15z" />
    <glyph glyph-name="uni00B2" unicode="&#xb2;" 
d="M291 270h442q28 0 44 15t16 35t-16 35t-44 15h-442q-28 0 -44 -15t-16 -35t16 -35t44 -15zM291 398h186q28 0 44 15t16 35t-16 35t-44 15h-186q-28 0 -44 -15t-16 -35t16 -35t44 -15zM419 526h186q28 0 44 15t16 35t-16 35t-44 15h-186q-28 0 -44 -15t-16 -35t16 -35
t44 -15zM547 654h186q28 0 44 15t16 35t-16 35t-44 15h-186q-28 0 -44 -15t-16 -35t16 -35t44 -15zM291 782h314q28 0 44 15t16 35t-16 35t-44 15h-314q-28 0 -44 -15t-16 -35t16 -35t44 -15z" />
    <glyph glyph-name="uni00B3" unicode="&#xb3;" 
d="M291 270h314q28 0 44 15t16 35t-16 35t-44 15h-314q-28 0 -44 -15t-16 -35t16 -35t44 -15zM547 398h186q28 0 44 15t16 35t-16 35t-44 15h-186q-28 0 -44 -15t-16 -35t16 -35t44 -15zM419 526h186q28 0 44 15t16 35t-16 35t-44 15h-186q-28 0 -44 -15t-16 -35t16 -35
t44 -15zM547 654h186q28 0 44 15t16 35t-16 35t-44 15h-186q-28 0 -44 -15t-16 -35t16 -35t44 -15zM291 782h314q28 0 44 15t16 35t-16 35t-44 15h-314q-28 0 -44 -15t-16 -35t16 -35t44 -15z" />
    <glyph glyph-name="acute" unicode="&#xb4;" 
d="M419 654h186q28 0 44 15t16 35t-16 35t-44 15h-186q-28 0 -44 -15t-16 -35t16 -35t44 -15zM547 782h186q28 0 44 15t16 35t-16 35t-44 15h-186q-28 0 -44 -15t-16 -35t16 -35t44 -15z" />
    <glyph glyph-name="uni00B5" unicode="&#xb5;" 
d="M163 -114h186q28 0 44 15t16 35t-16 35t-44 15h-186q-28 0 -44 -15t-16 -35t16 -35t44 -15zM163 14h698q28 0 44 15t16 35t-16 35t-44 15h-698q-28 0 -44 -15t-16 -35t16 -35t44 -15zM163 142h186q28 0 44 15t16 35t-16 35t-44 15h-186q-28 0 -44 -15t-16 -35t16 -35
t44 -15zM675 142h186q28 0 44 15t16 35t-16 35t-44 15h-186q-28 0 -44 -15t-16 -35t16 -35t44 -15zM163 270h186q28 0 44 15t16 35t-16 35t-44 15h-186q-28 0 -44 -15t-16 -35t16 -35t44 -15zM675 270h186q28 0 44 15t16 35t-16 35t-44 15h-186q-28 0 -44 -15t-16 -35
t16 -35t44 -15zM163 398h186q28 0 44 15t16 35t-16 35t-44 15h-186q-28 0 -44 -15t-16 -35t16 -35t44 -15zM675 398h186q28 0 44 15t16 35t-16 35t-44 15h-186q-28 0 -44 -15t-16 -35t16 -35t44 -15zM163 526h186q28 0 44 15t16 35t-16 35t-44 15h-186q-28 0 -44 -15
t-16 -35t16 -35t44 -15zM675 526h186q28 0 44 15t16 35t-16 35t-44 15h-186q-28 0 -44 -15t-16 -35t16 -35t44 -15z" />
    <glyph glyph-name="paragraph" unicode="&#xb6;" 
d="M675 -114h186q28 0 44 15t16 35t-16 35t-44 15h-186q-28 0 -44 -15t-16 -35t16 -35t44 -15zM675 14h186q28 0 44 15t16 35t-16 35t-44 15h-186q-28 0 -44 -15t-16 -35t16 -35t44 -15zM675 142h186q28 0 44 15t16 35t-16 35t-44 15h-186q-28 0 -44 -15t-16 -35t16 -35
t44 -15zM675 270h186q28 0 44 15t16 35t-16 35t-44 15h-186q-28 0 -44 -15t-16 -35t16 -35t44 -15zM291 398h570q28 0 44 15t16 35t-16 35t-44 15h-570q-28 0 -44 -15t-16 -35t16 -35t44 -15zM163 526h186q28 0 44 15t16 35t-16 35t-44 15h-186q-28 0 -44 -15t-16 -35
t16 -35t44 -15zM675 526h186q28 0 44 15t16 35t-16 35t-44 15h-186q-28 0 -44 -15t-16 -35t16 -35t44 -15zM163 654h186q28 0 44 15t16 35t-16 35t-44 15h-186q-28 0 -44 -15t-16 -35t16 -35t44 -15zM675 654h186q28 0 44 15t16 35t-16 35t-44 15h-186q-28 0 -44 -15
t-16 -35t16 -35t44 -15zM291 782h570q28 0 44 15t16 35t-16 35t-44 15h-570q-28 0 -44 -15t-16 -35t16 -35t44 -15z" />
    <glyph glyph-name="periodcentered" unicode="&#xb7;" 
d="M419 270h186q28 0 44 15t16 35t-16 35t-44 15h-186q-28 0 -44 -15t-16 -35t16 -35t44 -15zM419 398h186q28 0 44 15t16 35t-16 35t-44 15h-186q-28 0 -44 -15t-16 -35t16 -35t44 -15z" />
    <glyph glyph-name="cedilla" unicode="&#xb8;" 
d="M291 -114h314q28 0 44 15t16 35t-16 35t-44 15h-314q-28 0 -44 -15t-16 -35t16 -35t44 -15zM547 14h186q28 0 44 15t16 35t-16 35t-44 15h-186q-28 0 -44 -15t-16 -35t16 -35t44 -15zM291 142h314q28 0 44 15t16 35t-16 35t-44 15h-314q-28 0 -44 -15t-16 -35t16 -35
t44 -15z" />
    <glyph glyph-name="uni00B9" unicode="&#xb9;" 
d="M291 270h442q28 0 44 15t16 35t-16 35t-44 15h-442q-28 0 -44 -15t-16 -35t16 -35t44 -15zM419 398h186q28 0 44 15t16 35t-16 35t-44 15h-186q-28 0 -44 -15t-16 -35t16 -35t44 -15zM419 526h186q28 0 44 15t16 35t-16 35t-44 15h-186q-28 0 -44 -15t-16 -35t16 -35
t44 -15zM291 654h314q28 0 44 15t16 35t-16 35t-44 15h-314q-28 0 -44 -15t-16 -35t16 -35t44 -15zM419 782h186q28 0 44 15t16 35t-16 35t-44 15h-186q-28 0 -44 -15t-16 -35t16 -35t44 -15z" />
    <glyph glyph-name="ordmasculine" unicode="&#xba;" 
d="M291 270h442q28 0 44 15t16 35t-16 35t-44 15h-442q-28 0 -44 -15t-16 -35t16 -35t44 -15zM163 398h186q28 0 44 15t16 35t-16 35t-44 15h-186q-28 0 -44 -15t-16 -35t16 -35t44 -15zM675 398h186q28 0 44 15t16 35t-16 35t-44 15h-186q-28 0 -44 -15t-16 -35t16 -35
t44 -15zM163 526h186q28 0 44 15t16 35t-16 35t-44 15h-186q-28 0 -44 -15t-16 -35t16 -35t44 -15zM675 526h186q28 0 44 15t16 35t-16 35t-44 15h-186q-28 0 -44 -15t-16 -35t16 -35t44 -15zM163 654h186q28 0 44 15t16 35t-16 35t-44 15h-186q-28 0 -44 -15t-16 -35
t16 -35t44 -15zM675 654h186q28 0 44 15t16 35t-16 35t-44 15h-186q-28 0 -44 -15t-16 -35t16 -35t44 -15zM291 782h442q28 0 44 15t16 35t-16 35t-44 15h-442q-28 0 -44 -15t-16 -35t16 -35t44 -15z" />
    <glyph glyph-name="guillemotright" unicode="&#xbb;" 
d="M154 14h76q22 0 36.5 15t14.5 35t-14.5 35t-36.5 15h-76q-22 0 -36.5 -15t-14.5 -35t14.5 -35t36.5 -15zM163 142h186q28 0 44 15t16 35t-16 35t-44 15h-186q-28 0 -44 -15t-16 -35t16 -35t44 -15zM291 270h186q28 0 44 15t16 35t-16 35t-44 15h-186q-28 0 -44 -15
t-16 -35t16 -35t44 -15zM163 398h186q28 0 44 15t16 35t-16 35t-44 15h-186q-28 0 -44 -15t-16 -35t16 -35t44 -15zM154 526h76q22 0 36.5 15t14.5 35t-14.5 35t-36.5 15h-76q-22 0 -36.5 -15t-14.5 -35t14.5 -35t36.5 -15zM538 14h76q22 0 36.5 15t14.5 35t-14.5 35
t-36.5 15h-76q-22 0 -36.5 -15t-14.5 -35t14.5 -35t36.5 -15zM547 142h186q28 0 44 15t16 35t-16 35t-44 15h-186q-28 0 -44 -15t-16 -35t16 -35t44 -15zM675 270h186q28 0 44 15t16 35t-16 35t-44 15h-186q-28 0 -44 -15t-16 -35t16 -35t44 -15zM547 398h186q28 0 44 15
t16 35t-16 35t-44 15h-186q-28 0 -44 -15t-16 -35t16 -35t44 -15zM538 526h76q22 0 36.5 15t14.5 35t-14.5 35t-36.5 15h-76q-22 0 -36.5 -15t-14.5 -35t14.5 -35t36.5 -15z" />
    <glyph glyph-name="onequarter" unicode="&#xbc;" 
d="M794 -114h76q22 0 36.5 15t14.5 35t-14.5 35t-36.5 15h-76q-22 0 -36.5 -15t-14.5 -35t14.5 -35t36.5 -15zM163 14h186q28 0 44 15t16 35t-16 35t-44 15h-186q-28 0 -44 -15t-16 -35t16 -35t44 -15zM675 14h314q28 0 44 15t16 35t-16 35t-44 15h-314q-28 0 -44 -15
t-16 -35t16 -35t44 -15zM291 142h186q28 0 44 15t16 35t-16 35t-44 15h-186q-28 0 -44 -15t-16 -35t16 -35t44 -15zM675 142h186q28 0 44 15t16 35t-16 35t-44 15h-186q-28 0 -44 -15t-16 -35t16 -35t44 -15zM419 270h314q28 0 44 15t16 35t-16 35t-44 15h-314
q-28 0 -44 -15t-16 -35t16 -35t44 -15zM282 398h76q22 0 36.5 15t14.5 35t-14.5 35t-36.5 15h-76q-22 0 -36.5 -15t-14.5 -35t14.5 -35t36.5 -15zM547 398h186q28 0 44 15t16 35t-16 35t-44 15h-186q-28 0 -44 -15t-16 -35t16 -35t44 -15zM282 526h76q22 0 36.5 15t14.5 35
t-14.5 35t-36.5 15h-76q-22 0 -36.5 -15t-14.5 -35t14.5 -35t36.5 -15zM675 526h186q28 0 44 15t16 35t-16 35t-44 15h-186q-28 0 -44 -15t-16 -35t16 -35t44 -15zM163 654h186q28 0 44 15t16 35t-16 35t-44 15h-186q-28 0 -44 -15t-16 -35t16 -35t44 -15zM803 654h186
q28 0 44 15t16 35t-16 35t-44 15h-186q-28 0 -44 -15t-16 -35t16 -35t44 -15zM282 782h76q22 0 36.5 15t14.5 35t-14.5 35t-36.5 15h-76q-22 0 -36.5 -15t-14.5 -35t14.5 -35t36.5 -15z" />
    <glyph glyph-name="onehalf" unicode="&#xbd;" 
d="M675 -114h314q28 0 44 15t16 35t-16 35t-44 15h-314q-28 0 -44 -15t-16 -35t16 -35t44 -15zM163 14h186q28 0 44 15t16 35t-16 35t-44 15h-186q-28 0 -44 -15t-16 -35t16 -35t44 -15zM794 14h76q22 0 36.5 15t14.5 35t-14.5 35t-36.5 15h-76q-22 0 -36.5 -15t-14.5 -35
t14.5 -35t36.5 -15zM291 142h186q28 0 44 15t16 35t-16 35t-44 15h-186q-28 0 -44 -15t-16 -35t16 -35t44 -15zM922 142h76q22 0 36.5 15t14.5 35t-14.5 35t-36.5 15h-76q-22 0 -36.5 -15t-14.5 -35t14.5 -35t36.5 -15zM419 270h442q28 0 44 15t16 35t-16 35t-44 15h-442
q-28 0 -44 -15t-16 -35t16 -35t44 -15zM282 398h76q22 0 36.5 15t14.5 35t-14.5 35t-36.5 15h-76q-22 0 -36.5 -15t-14.5 -35t14.5 -35t36.5 -15zM547 398h186q28 0 44 15t16 35t-16 35t-44 15h-186q-28 0 -44 -15t-16 -35t16 -35t44 -15zM282 526h76q22 0 36.5 15t14.5 35
t-14.5 35t-36.5 15h-76q-22 0 -36.5 -15t-14.5 -35t14.5 -35t36.5 -15zM675 526h186q28 0 44 15t16 35t-16 35t-44 15h-186q-28 0 -44 -15t-16 -35t16 -35t44 -15zM163 654h186q28 0 44 15t16 35t-16 35t-44 15h-186q-28 0 -44 -15t-16 -35t16 -35t44 -15zM803 654h186
q28 0 44 15t16 35t-16 35t-44 15h-186q-28 0 -44 -15t-16 -35t16 -35t44 -15zM282 782h76q22 0 36.5 15t14.5 35t-14.5 35t-36.5 15h-76q-22 0 -36.5 -15t-14.5 -35t14.5 -35t36.5 -15z" />
    <glyph glyph-name="threequarters" unicode="&#xbe;" 
d="M794 -114h76q22 0 36.5 15t14.5 35t-14.5 35t-36.5 15h-76q-22 0 -36.5 -15t-14.5 -35t14.5 -35t36.5 -15zM163 14h186q28 0 44 15t16 35t-16 35t-44 15h-186q-28 0 -44 -15t-16 -35t16 -35t44 -15zM675 14h314q28 0 44 15t16 35t-16 35t-44 15h-314q-28 0 -44 -15
t-16 -35t16 -35t44 -15zM291 142h186q28 0 44 15t16 35t-16 35t-44 15h-186q-28 0 -44 -15t-16 -35t16 -35t44 -15zM675 142h186q28 0 44 15t16 35t-16 35t-44 15h-186q-28 0 -44 -15t-16 -35t16 -35t44 -15zM419 270h314q28 0 44 15t16 35t-16 35t-44 15h-314
q-28 0 -44 -15t-16 -35t16 -35t44 -15zM163 398h186q28 0 44 15t16 35t-16 35t-44 15h-186q-28 0 -44 -15t-16 -35t16 -35t44 -15zM547 398h186q28 0 44 15t16 35t-16 35t-44 15h-186q-28 0 -44 -15t-16 -35t16 -35t44 -15zM291 526h186q28 0 44 15t16 35t-16 35t-44 15
h-186q-28 0 -44 -15t-16 -35t16 -35t44 -15zM675 526h186q28 0 44 15t16 35t-16 35t-44 15h-186q-28 0 -44 -15t-16 -35t16 -35t44 -15zM291 654h186q28 0 44 15t16 35t-16 35t-44 15h-186q-28 0 -44 -15t-16 -35t16 -35t44 -15zM803 654h186q28 0 44 15t16 35t-16 35
t-44 15h-186q-28 0 -44 -15t-16 -35t16 -35t44 -15zM163 782h186q28 0 44 15t16 35t-16 35t-44 15h-186q-28 0 -44 -15t-16 -35t16 -35t44 -15z" />
    <glyph glyph-name="questiondown" unicode="&#xbf;" 
d="M291 14h442q28 0 44 15t16 35t-16 35t-44 15h-442q-28 0 -44 -15t-16 -35t16 -35t44 -15zM163 142h186q28 0 44 15t16 35t-16 35t-44 15h-186q-28 0 -44 -15t-16 -35t16 -35t44 -15zM675 142h186q28 0 44 15t16 35t-16 35t-44 15h-186q-28 0 -44 -15t-16 -35t16 -35
t44 -15zM163 270h186q28 0 44 15t16 35t-16 35t-44 15h-186q-28 0 -44 -15t-16 -35t16 -35t44 -15zM291 398h186q28 0 44 15t16 35t-16 35t-44 15h-186q-28 0 -44 -15t-16 -35t16 -35t44 -15zM419 526h186q28 0 44 15t16 35t-16 35t-44 15h-186q-28 0 -44 -15t-16 -35
t16 -35t44 -15zM419 782h186q28 0 44 15t16 35t-16 35t-44 15h-186q-28 0 -44 -15t-16 -35t16 -35t44 -15z" />
    <glyph glyph-name="Agrave" unicode="&#xc0;" 
d="M163 14h186q28 0 44 15t16 35t-16 35t-44 15h-186q-28 0 -44 -15t-16 -35t16 -35t44 -15zM675 14h186q28 0 44 15t16 35t-16 35t-44 15h-186q-28 0 -44 -15t-16 -35t16 -35t44 -15zM163 142h698q28 0 44 15t16 35t-16 35t-44 15h-698q-28 0 -44 -15t-16 -35t16 -35
t44 -15zM163 270h186q28 0 44 15t16 35t-16 35t-44 15h-186q-28 0 -44 -15t-16 -35t16 -35t44 -15zM675 270h186q28 0 44 15t16 35t-16 35t-44 15h-186q-28 0 -44 -15t-16 -35t16 -35t44 -15zM291 398h442q28 0 44 15t16 35t-16 35t-44 15h-442q-28 0 -44 -15t-16 -35
t16 -35t44 -15zM419 526h186q28 0 44 15t16 35t-16 35t-44 15h-186q-28 0 -44 -15t-16 -35t16 -35t44 -15zM419 654h186q28 0 44 15t16 35t-16 35t-44 15h-186q-28 0 -44 -15t-16 -35t16 -35t44 -15zM291 782h186q28 0 44 15t16 35t-16 35t-44 15h-186q-28 0 -44 -15
t-16 -35t16 -35t44 -15z" />
    <glyph glyph-name="Aacute" unicode="&#xc1;" 
d="M163 14h186q28 0 44 15t16 35t-16 35t-44 15h-186q-28 0 -44 -15t-16 -35t16 -35t44 -15zM675 14h186q28 0 44 15t16 35t-16 35t-44 15h-186q-28 0 -44 -15t-16 -35t16 -35t44 -15zM163 142h698q28 0 44 15t16 35t-16 35t-44 15h-698q-28 0 -44 -15t-16 -35t16 -35
t44 -15zM163 270h186q28 0 44 15t16 35t-16 35t-44 15h-186q-28 0 -44 -15t-16 -35t16 -35t44 -15zM675 270h186q28 0 44 15t16 35t-16 35t-44 15h-186q-28 0 -44 -15t-16 -35t16 -35t44 -15zM291 398h442q28 0 44 15t16 35t-16 35t-44 15h-442q-28 0 -44 -15t-16 -35
t16 -35t44 -15zM419 526h186q28 0 44 15t16 35t-16 35t-44 15h-186q-28 0 -44 -15t-16 -35t16 -35t44 -15zM419 654h186q28 0 44 15t16 35t-16 35t-44 15h-186q-28 0 -44 -15t-16 -35t16 -35t44 -15zM547 782h186q28 0 44 15t16 35t-16 35t-44 15h-186q-28 0 -44 -15
t-16 -35t16 -35t44 -15z" />
    <glyph glyph-name="Acircumflex" unicode="&#xc2;" 
d="M163 14h186q28 0 44 15t16 35t-16 35t-44 15h-186q-28 0 -44 -15t-16 -35t16 -35t44 -15zM675 14h186q28 0 44 15t16 35t-16 35t-44 15h-186q-28 0 -44 -15t-16 -35t16 -35t44 -15zM163 142h698q28 0 44 15t16 35t-16 35t-44 15h-698q-28 0 -44 -15t-16 -35t16 -35
t44 -15zM163 270h186q28 0 44 15t16 35t-16 35t-44 15h-186q-28 0 -44 -15t-16 -35t16 -35t44 -15zM675 270h186q28 0 44 15t16 35t-16 35t-44 15h-186q-28 0 -44 -15t-16 -35t16 -35t44 -15zM291 398h442q28 0 44 15t16 35t-16 35t-44 15h-442q-28 0 -44 -15t-16 -35
t16 -35t44 -15zM419 526h186q28 0 44 15t16 35t-16 35t-44 15h-186q-28 0 -44 -15t-16 -35t16 -35t44 -15zM163 654h186q28 0 44 15t16 35t-16 35t-44 15h-186q-28 0 -44 -15t-16 -35t16 -35t44 -15zM675 654h186q28 0 44 15t16 35t-16 35t-44 15h-186q-28 0 -44 -15
t-16 -35t16 -35t44 -15zM291 782h442q28 0 44 15t16 35t-16 35t-44 15h-442q-28 0 -44 -15t-16 -35t16 -35t44 -15z" />
    <glyph glyph-name="Atilde" unicode="&#xc3;" 
d="M163 14h186q28 0 44 15t16 35t-16 35t-44 15h-186q-28 0 -44 -15t-16 -35t16 -35t44 -15zM675 14h186q28 0 44 15t16 35t-16 35t-44 15h-186q-28 0 -44 -15t-16 -35t16 -35t44 -15zM163 142h698q28 0 44 15t16 35t-16 35t-44 15h-698q-28 0 -44 -15t-16 -35t16 -35
t44 -15zM163 270h186q28 0 44 15t16 35t-16 35t-44 15h-186q-28 0 -44 -15t-16 -35t16 -35t44 -15zM675 270h186q28 0 44 15t16 35t-16 35t-44 15h-186q-28 0 -44 -15t-16 -35t16 -35t44 -15zM291 398h442q28 0 44 15t16 35t-16 35t-44 15h-442q-28 0 -44 -15t-16 -35
t16 -35t44 -15zM419 526h186q28 0 44 15t16 35t-16 35t-44 15h-186q-28 0 -44 -15t-16 -35t16 -35t44 -15zM163 654h186q28 0 44 15t16 35t-16 35t-44 15h-186q-28 0 -44 -15t-16 -35t16 -35t44 -15zM547 654h314q28 0 44 15t16 35t-16 35t-44 15h-314q-28 0 -44 -15
t-16 -35t16 -35t44 -15zM291 782h314q28 0 44 15t16 35t-16 35t-44 15h-314q-28 0 -44 -15t-16 -35t16 -35t44 -15zM803 782h186q28 0 44 15t16 35t-16 35t-44 15h-186q-28 0 -44 -15t-16 -35t16 -35t44 -15z" />
    <glyph glyph-name="Adieresis" unicode="&#xc4;" 
d="M163 14h186q28 0 44 15t16 35t-16 35t-44 15h-186q-28 0 -44 -15t-16 -35t16 -35t44 -15zM675 14h186q28 0 44 15t16 35t-16 35t-44 15h-186q-28 0 -44 -15t-16 -35t16 -35t44 -15zM163 142h186q28 0 44 15t16 35t-16 35t-44 15h-186q-28 0 -44 -15t-16 -35t16 -35
t44 -15zM675 142h186q28 0 44 15t16 35t-16 35t-44 15h-186q-28 0 -44 -15t-16 -35t16 -35t44 -15zM163 270h698q28 0 44 15t16 35t-16 35t-44 15h-698q-28 0 -44 -15t-16 -35t16 -35t44 -15zM163 398h186q28 0 44 15t16 35t-16 35t-44 15h-186q-28 0 -44 -15t-16 -35
t16 -35t44 -15zM675 398h186q28 0 44 15t16 35t-16 35t-44 15h-186q-28 0 -44 -15t-16 -35t16 -35t44 -15zM291 526h442q28 0 44 15t16 35t-16 35t-44 15h-442q-28 0 -44 -15t-16 -35t16 -35t44 -15zM419 654h186q28 0 44 15t16 35t-16 35t-44 15h-186q-28 0 -44 -15
t-16 -35t16 -35t44 -15zM163 782h186q28 0 44 15t16 35t-16 35t-44 15h-186q-28 0 -44 -15t-16 -35t16 -35t44 -15zM675 782h186q28 0 44 15t16 35t-16 35t-44 15h-186q-28 0 -44 -15t-16 -35t16 -35t44 -15z" />
    <glyph glyph-name="Aring" unicode="&#xc5;" 
d="M163 14h186q28 0 44 15t16 35t-16 35t-44 15h-186q-28 0 -44 -15t-16 -35t16 -35t44 -15zM675 14h186q28 0 44 15t16 35t-16 35t-44 15h-186q-28 0 -44 -15t-16 -35t16 -35t44 -15zM163 142h698q28 0 44 15t16 35t-16 35t-44 15h-698q-28 0 -44 -15t-16 -35t16 -35
t44 -15zM163 270h186q28 0 44 15t16 35t-16 35t-44 15h-186q-28 0 -44 -15t-16 -35t16 -35t44 -15zM675 270h186q28 0 44 15t16 35t-16 35t-44 15h-186q-28 0 -44 -15t-16 -35t16 -35t44 -15zM291 398h442q28 0 44 15t16 35t-16 35t-44 15h-442q-28 0 -44 -15t-16 -35
t16 -35t44 -15zM419 526h186q28 0 44 15t16 35t-16 35t-44 15h-186q-28 0 -44 -15t-16 -35t16 -35t44 -15zM291 526h442q28 0 44 15t16 35t-16 35t-44 15h-442q-28 0 -44 -15t-16 -35t16 -35t44 -15zM163 654h186q28 0 44 15t16 35t-16 35t-44 15h-186q-28 0 -44 -15
t-16 -35t16 -35t44 -15zM675 654h186q28 0 44 15t16 35t-16 35t-44 15h-186q-28 0 -44 -15t-16 -35t16 -35t44 -15zM291 782h442q28 0 44 15t16 35t-16 35t-44 15h-442q-28 0 -44 -15t-16 -35t16 -35t44 -15z" />
    <glyph glyph-name="AE" unicode="&#xc6;" 
d="M163 14h186q28 0 44 15t16 35t-16 35t-44 15h-186q-28 0 -44 -15t-16 -35t16 -35t44 -15zM547 14h442q28 0 44 15t16 35t-16 35t-44 15h-442q-28 0 -44 -15t-16 -35t16 -35t44 -15zM163 142h186q28 0 44 15t16 35t-16 35t-44 15h-186q-28 0 -44 -15t-16 -35t16 -35
t44 -15zM547 142h186q28 0 44 15t16 35t-16 35t-44 15h-186q-28 0 -44 -15t-16 -35t16 -35t44 -15zM163 270h186q28 0 44 15t16 35t-16 35t-44 15h-186q-28 0 -44 -15t-16 -35t16 -35t44 -15zM547 270h186q28 0 44 15t16 35t-16 35t-44 15h-186q-28 0 -44 -15t-16 -35
t16 -35t44 -15zM163 398h698q28 0 44 15t16 35t-16 35t-44 15h-698q-28 0 -44 -15t-16 -35t16 -35t44 -15zM163 526h186q28 0 44 15t16 35t-16 35t-44 15h-186q-28 0 -44 -15t-16 -35t16 -35t44 -15zM547 526h186q28 0 44 15t16 35t-16 35t-44 15h-186q-28 0 -44 -15
t-16 -35t16 -35t44 -15zM291 654h442q28 0 44 15t16 35t-16 35t-44 15h-442q-28 0 -44 -15t-16 -35t16 -35t44 -15zM419 782h570q28 0 44 15t16 35t-16 35t-44 15h-570q-28 0 -44 -15t-16 -35t16 -35t44 -15z" />
    <glyph glyph-name="Ccedilla" unicode="&#xc7;" 
d="M291 -114h186q28 0 44 15t16 35t-16 35t-44 15h-186q-28 0 -44 -15t-16 -35t16 -35t44 -15zM419 14h186q28 0 44 15t16 35t-16 35t-44 15h-186q-28 0 -44 -15t-16 -35t16 -35t44 -15zM291 142h442q28 0 44 15t16 35t-16 35t-44 15h-442q-28 0 -44 -15t-16 -35t16 -35
t44 -15zM163 270h186q28 0 44 15t16 35t-16 35t-44 15h-186q-28 0 -44 -15t-16 -35t16 -35t44 -15zM675 270h186q28 0 44 15t16 35t-16 35t-44 15h-186q-28 0 -44 -15t-16 -35t16 -35t44 -15zM163 398h186q28 0 44 15t16 35t-16 35t-44 15h-186q-28 0 -44 -15t-16 -35
t16 -35t44 -15zM163 526h186q28 0 44 15t16 35t-16 35t-44 15h-186q-28 0 -44 -15t-16 -35t16 -35t44 -15zM163 654h186q28 0 44 15t16 35t-16 35t-44 15h-186q-28 0 -44 -15t-16 -35t16 -35t44 -15zM675 654h186q28 0 44 15t16 35t-16 35t-44 15h-186q-28 0 -44 -15
t-16 -35t16 -35t44 -15zM291 782h442q28 0 44 15t16 35t-16 35t-44 15h-442q-28 0 -44 -15t-16 -35t16 -35t44 -15z" />
    <glyph glyph-name="Egrave" unicode="&#xc8;" 
d="M163 14h698q28 0 44 15t16 35t-16 35t-44 15h-698q-28 0 -44 -15t-16 -35t16 -35t44 -15zM163 142h186q28 0 44 15t16 35t-16 35t-44 15h-186q-28 0 -44 -15t-16 -35t16 -35t44 -15zM163 270h442q28 0 44 15t16 35t-16 35t-44 15h-442q-28 0 -44 -15t-16 -35t16 -35
t44 -15zM163 398h186q28 0 44 15t16 35t-16 35t-44 15h-186q-28 0 -44 -15t-16 -35t16 -35t44 -15zM163 526h698q28 0 44 15t16 35t-16 35t-44 15h-698q-28 0 -44 -15t-16 -35t16 -35t44 -15zM419 654h186q28 0 44 15t16 35t-16 35t-44 15h-186q-28 0 -44 -15t-16 -35
t16 -35t44 -15zM291 782h186q28 0 44 15t16 35t-16 35t-44 15h-186q-28 0 -44 -15t-16 -35t16 -35t44 -15z" />
    <glyph glyph-name="Eacute" unicode="&#xc9;" 
d="M163 14h698q28 0 44 15t16 35t-16 35t-44 15h-698q-28 0 -44 -15t-16 -35t16 -35t44 -15zM163 142h186q28 0 44 15t16 35t-16 35t-44 15h-186q-28 0 -44 -15t-16 -35t16 -35t44 -15zM163 270h442q28 0 44 15t16 35t-16 35t-44 15h-442q-28 0 -44 -15t-16 -35t16 -35
t44 -15zM163 398h186q28 0 44 15t16 35t-16 35t-44 15h-186q-28 0 -44 -15t-16 -35t16 -35t44 -15zM163 526h698q28 0 44 15t16 35t-16 35t-44 15h-698q-28 0 -44 -15t-16 -35t16 -35t44 -15zM419 654h186q28 0 44 15t16 35t-16 35t-44 15h-186q-28 0 -44 -15t-16 -35
t16 -35t44 -15zM547 782h186q28 0 44 15t16 35t-16 35t-44 15h-186q-28 0 -44 -15t-16 -35t16 -35t44 -15z" />
    <glyph glyph-name="Ecircumflex" unicode="&#xca;" 
d="M163 14h698q28 0 44 15t16 35t-16 35t-44 15h-698q-28 0 -44 -15t-16 -35t16 -35t44 -15zM163 142h186q28 0 44 15t16 35t-16 35t-44 15h-186q-28 0 -44 -15t-16 -35t16 -35t44 -15zM163 270h442q28 0 44 15t16 35t-16 35t-44 15h-442q-28 0 -44 -15t-16 -35t16 -35
t44 -15zM163 398h186q28 0 44 15t16 35t-16 35t-44 15h-186q-28 0 -44 -15t-16 -35t16 -35t44 -15zM163 526h698q28 0 44 15t16 35t-16 35t-44 15h-698q-28 0 -44 -15t-16 -35t16 -35t44 -15zM163 654h186q28 0 44 15t16 35t-16 35t-44 15h-186q-28 0 -44 -15t-16 -35
t16 -35t44 -15zM675 654h186q28 0 44 15t16 35t-16 35t-44 15h-186q-28 0 -44 -15t-16 -35t16 -35t44 -15zM291 782h442q28 0 44 15t16 35t-16 35t-44 15h-442q-28 0 -44 -15t-16 -35t16 -35t44 -15z" />
    <glyph glyph-name="Edieresis" unicode="&#xcb;" 
d="M163 14h698q28 0 44 15t16 35t-16 35t-44 15h-698q-28 0 -44 -15t-16 -35t16 -35t44 -15zM163 142h186q28 0 44 15t16 35t-16 35t-44 15h-186q-28 0 -44 -15t-16 -35t16 -35t44 -15zM163 270h442q28 0 44 15t16 35t-16 35t-44 15h-442q-28 0 -44 -15t-16 -35t16 -35
t44 -15zM163 398h186q28 0 44 15t16 35t-16 35t-44 15h-186q-28 0 -44 -15t-16 -35t16 -35t44 -15zM163 526h698q28 0 44 15t16 35t-16 35t-44 15h-698q-28 0 -44 -15t-16 -35t16 -35t44 -15zM163 782h186q28 0 44 15t16 35t-16 35t-44 15h-186q-28 0 -44 -15t-16 -35
t16 -35t44 -15zM675 782h186q28 0 44 15t16 35t-16 35t-44 15h-186q-28 0 -44 -15t-16 -35t16 -35t44 -15z" />
    <glyph glyph-name="Igrave" unicode="&#xcc;" 
d="M291 14h442q28 0 44 15t16 35t-16 35t-44 15h-442q-28 0 -44 -15t-16 -35t16 -35t44 -15zM419 142h186q28 0 44 15t16 35t-16 35t-44 15h-186q-28 0 -44 -15t-16 -35t16 -35t44 -15zM419 270h186q28 0 44 15t16 35t-16 35t-44 15h-186q-28 0 -44 -15t-16 -35t16 -35
t44 -15zM291 398h442q28 0 44 15t16 35t-16 35t-44 15h-442q-28 0 -44 -15t-16 -35t16 -35t44 -15zM419 654h186q28 0 44 15t16 35t-16 35t-44 15h-186q-28 0 -44 -15t-16 -35t16 -35t44 -15zM291 782h186q28 0 44 15t16 35t-16 35t-44 15h-186q-28 0 -44 -15t-16 -35
t16 -35t44 -15z" />
    <glyph glyph-name="Iacute" unicode="&#xcd;" 
d="M291 14h442q28 0 44 15t16 35t-16 35t-44 15h-442q-28 0 -44 -15t-16 -35t16 -35t44 -15zM419 142h186q28 0 44 15t16 35t-16 35t-44 15h-186q-28 0 -44 -15t-16 -35t16 -35t44 -15zM419 270h186q28 0 44 15t16 35t-16 35t-44 15h-186q-28 0 -44 -15t-16 -35t16 -35
t44 -15zM291 398h442q28 0 44 15t16 35t-16 35t-44 15h-442q-28 0 -44 -15t-16 -35t16 -35t44 -15zM419 654h186q28 0 44 15t16 35t-16 35t-44 15h-186q-28 0 -44 -15t-16 -35t16 -35t44 -15zM547 782h186q28 0 44 15t16 35t-16 35t-44 15h-186q-28 0 -44 -15t-16 -35
t16 -35t44 -15z" />
    <glyph glyph-name="Icircumflex" unicode="&#xce;" 
d="M291 14h442q28 0 44 15t16 35t-16 35t-44 15h-442q-28 0 -44 -15t-16 -35t16 -35t44 -15zM419 142h186q28 0 44 15t16 35t-16 35t-44 15h-186q-28 0 -44 -15t-16 -35t16 -35t44 -15zM419 270h186q28 0 44 15t16 35t-16 35t-44 15h-186q-28 0 -44 -15t-16 -35t16 -35
t44 -15zM291 398h442q28 0 44 15t16 35t-16 35t-44 15h-442q-28 0 -44 -15t-16 -35t16 -35t44 -15zM163 654h186q28 0 44 15t16 35t-16 35t-44 15h-186q-28 0 -44 -15t-16 -35t16 -35t44 -15zM675 654h186q28 0 44 15t16 35t-16 35t-44 15h-186q-28 0 -44 -15t-16 -35
t16 -35t44 -15zM291 782h442q28 0 44 15t16 35t-16 35t-44 15h-442q-28 0 -44 -15t-16 -35t16 -35t44 -15z" />
    <glyph glyph-name="Idieresis" unicode="&#xcf;" 
d="M291 14h442q28 0 44 15t16 35t-16 35t-44 15h-442q-28 0 -44 -15t-16 -35t16 -35t44 -15zM419 142h186q28 0 44 15t16 35t-16 35t-44 15h-186q-28 0 -44 -15t-16 -35t16 -35t44 -15zM419 270h186q28 0 44 15t16 35t-16 35t-44 15h-186q-28 0 -44 -15t-16 -35t16 -35
t44 -15zM419 398h186q28 0 44 15t16 35t-16 35t-44 15h-186q-28 0 -44 -15t-16 -35t16 -35t44 -15zM291 526h442q28 0 44 15t16 35t-16 35t-44 15h-442q-28 0 -44 -15t-16 -35t16 -35t44 -15zM163 782h186q28 0 44 15t16 35t-16 35t-44 15h-186q-28 0 -44 -15t-16 -35
t16 -35t44 -15zM675 782h186q28 0 44 15t16 35t-16 35t-44 15h-186q-28 0 -44 -15t-16 -35t16 -35t44 -15z" />
    <glyph glyph-name="Eth" unicode="&#xd0;" 
d="M163 14h442q28 0 44 15t16 35t-16 35t-44 15h-442q-28 0 -44 -15t-16 -35t16 -35t44 -15zM163 142h186q28 0 44 15t16 35t-16 35t-44 15h-186q-28 0 -44 -15t-16 -35t16 -35t44 -15zM547 142h186q28 0 44 15t16 35t-16 35t-44 15h-186q-28 0 -44 -15t-16 -35t16 -35
t44 -15zM163 270h186q28 0 44 15t16 35t-16 35t-44 15h-186q-28 0 -44 -15t-16 -35t16 -35t44 -15zM675 270h186q28 0 44 15t16 35t-16 35t-44 15h-186q-28 0 -44 -15t-16 -35t16 -35t44 -15zM35 398h442q28 0 44 15t16 35t-16 35t-44 15h-442q-28 0 -44 -15t-16 -35t16 -35
t44 -15zM675 398h186q28 0 44 15t16 35t-16 35t-44 15h-186q-28 0 -44 -15t-16 -35t16 -35t44 -15zM163 526h186q28 0 44 15t16 35t-16 35t-44 15h-186q-28 0 -44 -15t-16 -35t16 -35t44 -15zM675 526h186q28 0 44 15t16 35t-16 35t-44 15h-186q-28 0 -44 -15t-16 -35
t16 -35t44 -15zM163 654h186q28 0 44 15t16 35t-16 35t-44 15h-186q-28 0 -44 -15t-16 -35t16 -35t44 -15zM547 654h186q28 0 44 15t16 35t-16 35t-44 15h-186q-28 0 -44 -15t-16 -35t16 -35t44 -15zM163 782h442q28 0 44 15t16 35t-16 35t-44 15h-442q-28 0 -44 -15
t-16 -35t16 -35t44 -15z" />
    <glyph glyph-name="Ntilde" unicode="&#xd1;" 
d="M163 14h186q28 0 44 15t16 35t-16 35t-44 15h-186q-28 0 -44 -15t-16 -35t16 -35t44 -15zM675 14h186q28 0 44 15t16 35t-16 35t-44 15h-186q-28 0 -44 -15t-16 -35t16 -35t44 -15zM163 142h186q28 0 44 15t16 35t-16 35t-44 15h-186q-28 0 -44 -15t-16 -35t16 -35
t44 -15zM547 142h314q28 0 44 15t16 35t-16 35t-44 15h-314q-28 0 -44 -15t-16 -35t16 -35t44 -15zM163 270h698q28 0 44 15t16 35t-16 35t-44 15h-698q-28 0 -44 -15t-16 -35t16 -35t44 -15zM163 398h314q28 0 44 15t16 35t-16 35t-44 15h-314q-28 0 -44 -15t-16 -35
t16 -35t44 -15zM675 398h186q28 0 44 15t16 35t-16 35t-44 15h-186q-28 0 -44 -15t-16 -35t16 -35t44 -15zM163 526h186q28 0 44 15t16 35t-16 35t-44 15h-186q-28 0 -44 -15t-16 -35t16 -35t44 -15zM675 526h186q28 0 44 15t16 35t-16 35t-44 15h-186q-28 0 -44 -15
t-16 -35t16 -35t44 -15zM163 654h186q28 0 44 15t16 35t-16 35t-44 15h-186q-28 0 -44 -15t-16 -35t16 -35t44 -15zM547 654h314q28 0 44 15t16 35t-16 35t-44 15h-314q-28 0 -44 -15t-16 -35t16 -35t44 -15zM291 782h314q28 0 44 15t16 35t-16 35t-44 15h-314
q-28 0 -44 -15t-16 -35t16 -35t44 -15zM803 782h186q28 0 44 15t16 35t-16 35t-44 15h-186q-28 0 -44 -15t-16 -35t16 -35t44 -15z" />
    <glyph glyph-name="Ograve" unicode="&#xd2;" 
d="M291 14h442q28 0 44 15t16 35t-16 35t-44 15h-442q-28 0 -44 -15t-16 -35t16 -35t44 -15zM163 142h186q28 0 44 15t16 35t-16 35t-44 15h-186q-28 0 -44 -15t-16 -35t16 -35t44 -15zM675 142h186q28 0 44 15t16 35t-16 35t-44 15h-186q-28 0 -44 -15t-16 -35t16 -35
t44 -15zM163 270h186q28 0 44 15t16 35t-16 35t-44 15h-186q-28 0 -44 -15t-16 -35t16 -35t44 -15zM675 270h186q28 0 44 15t16 35t-16 35t-44 15h-186q-28 0 -44 -15t-16 -35t16 -35t44 -15zM163 398h186q28 0 44 15t16 35t-16 35t-44 15h-186q-28 0 -44 -15t-16 -35
t16 -35t44 -15zM675 398h186q28 0 44 15t16 35t-16 35t-44 15h-186q-28 0 -44 -15t-16 -35t16 -35t44 -15zM291 526h442q28 0 44 15t16 35t-16 35t-44 15h-442q-28 0 -44 -15t-16 -35t16 -35t44 -15zM419 654h186q28 0 44 15t16 35t-16 35t-44 15h-186q-28 0 -44 -15
t-16 -35t16 -35t44 -15zM291 782h186q28 0 44 15t16 35t-16 35t-44 15h-186q-28 0 -44 -15t-16 -35t16 -35t44 -15z" />
    <glyph glyph-name="Oacute" unicode="&#xd3;" 
d="M291 14h442q28 0 44 15t16 35t-16 35t-44 15h-442q-28 0 -44 -15t-16 -35t16 -35t44 -15zM163 142h186q28 0 44 15t16 35t-16 35t-44 15h-186q-28 0 -44 -15t-16 -35t16 -35t44 -15zM675 142h186q28 0 44 15t16 35t-16 35t-44 15h-186q-28 0 -44 -15t-16 -35t16 -35
t44 -15zM163 270h186q28 0 44 15t16 35t-16 35t-44 15h-186q-28 0 -44 -15t-16 -35t16 -35t44 -15zM675 270h186q28 0 44 15t16 35t-16 35t-44 15h-186q-28 0 -44 -15t-16 -35t16 -35t44 -15zM163 398h186q28 0 44 15t16 35t-16 35t-44 15h-186q-28 0 -44 -15t-16 -35
t16 -35t44 -15zM675 398h186q28 0 44 15t16 35t-16 35t-44 15h-186q-28 0 -44 -15t-16 -35t16 -35t44 -15zM291 526h442q28 0 44 15t16 35t-16 35t-44 15h-442q-28 0 -44 -15t-16 -35t16 -35t44 -15zM419 654h186q28 0 44 15t16 35t-16 35t-44 15h-186q-28 0 -44 -15
t-16 -35t16 -35t44 -15zM547 782h186q28 0 44 15t16 35t-16 35t-44 15h-186q-28 0 -44 -15t-16 -35t16 -35t44 -15z" />
    <glyph glyph-name="Ocircumflex" unicode="&#xd4;" 
d="M291 14h442q28 0 44 15t16 35t-16 35t-44 15h-442q-28 0 -44 -15t-16 -35t16 -35t44 -15zM163 142h186q28 0 44 15t16 35t-16 35t-44 15h-186q-28 0 -44 -15t-16 -35t16 -35t44 -15zM675 142h186q28 0 44 15t16 35t-16 35t-44 15h-186q-28 0 -44 -15t-16 -35t16 -35
t44 -15zM163 270h186q28 0 44 15t16 35t-16 35t-44 15h-186q-28 0 -44 -15t-16 -35t16 -35t44 -15zM675 270h186q28 0 44 15t16 35t-16 35t-44 15h-186q-28 0 -44 -15t-16 -35t16 -35t44 -15zM163 398h186q28 0 44 15t16 35t-16 35t-44 15h-186q-28 0 -44 -15t-16 -35
t16 -35t44 -15zM675 398h186q28 0 44 15t16 35t-16 35t-44 15h-186q-28 0 -44 -15t-16 -35t16 -35t44 -15zM291 526h442q28 0 44 15t16 35t-16 35t-44 15h-442q-28 0 -44 -15t-16 -35t16 -35t44 -15zM163 654h186q28 0 44 15t16 35t-16 35t-44 15h-186q-28 0 -44 -15
t-16 -35t16 -35t44 -15zM675 654h186q28 0 44 15t16 35t-16 35t-44 15h-186q-28 0 -44 -15t-16 -35t16 -35t44 -15zM291 782h442q28 0 44 15t16 35t-16 35t-44 15h-442q-28 0 -44 -15t-16 -35t16 -35t44 -15z" />
    <glyph glyph-name="Otilde" unicode="&#xd5;" 
d="M291 14h442q28 0 44 15t16 35t-16 35t-44 15h-442q-28 0 -44 -15t-16 -35t16 -35t44 -15zM163 142h186q28 0 44 15t16 35t-16 35t-44 15h-186q-28 0 -44 -15t-16 -35t16 -35t44 -15zM675 142h186q28 0 44 15t16 35t-16 35t-44 15h-186q-28 0 -44 -15t-16 -35t16 -35
t44 -15zM163 270h186q28 0 44 15t16 35t-16 35t-44 15h-186q-28 0 -44 -15t-16 -35t16 -35t44 -15zM675 270h186q28 0 44 15t16 35t-16 35t-44 15h-186q-28 0 -44 -15t-16 -35t16 -35t44 -15zM163 398h186q28 0 44 15t16 35t-16 35t-44 15h-186q-28 0 -44 -15t-16 -35
t16 -35t44 -15zM675 398h186q28 0 44 15t16 35t-16 35t-44 15h-186q-28 0 -44 -15t-16 -35t16 -35t44 -15zM291 526h442q28 0 44 15t16 35t-16 35t-44 15h-442q-28 0 -44 -15t-16 -35t16 -35t44 -15zM163 654h186q28 0 44 15t16 35t-16 35t-44 15h-186q-28 0 -44 -15
t-16 -35t16 -35t44 -15zM547 654h314q28 0 44 15t16 35t-16 35t-44 15h-314q-28 0 -44 -15t-16 -35t16 -35t44 -15zM291 782h314q28 0 44 15t16 35t-16 35t-44 15h-314q-28 0 -44 -15t-16 -35t16 -35t44 -15zM803 782h186q28 0 44 15t16 35t-16 35t-44 15h-186
q-28 0 -44 -15t-16 -35t16 -35t44 -15z" />
    <glyph glyph-name="Odieresis" unicode="&#xd6;" 
d="M291 14h442q28 0 44 15t16 35t-16 35t-44 15h-442q-28 0 -44 -15t-16 -35t16 -35t44 -15zM163 142h186q28 0 44 15t16 35t-16 35t-44 15h-186q-28 0 -44 -15t-16 -35t16 -35t44 -15zM675 142h186q28 0 44 15t16 35t-16 35t-44 15h-186q-28 0 -44 -15t-16 -35t16 -35
t44 -15zM163 270h186q28 0 44 15t16 35t-16 35t-44 15h-186q-28 0 -44 -15t-16 -35t16 -35t44 -15zM675 270h186q28 0 44 15t16 35t-16 35t-44 15h-186q-28 0 -44 -15t-16 -35t16 -35t44 -15zM163 398h186q28 0 44 15t16 35t-16 35t-44 15h-186q-28 0 -44 -15t-16 -35
t16 -35t44 -15zM675 398h186q28 0 44 15t16 35t-16 35t-44 15h-186q-28 0 -44 -15t-16 -35t16 -35t44 -15zM163 526h186q28 0 44 15t16 35t-16 35t-44 15h-186q-28 0 -44 -15t-16 -35t16 -35t44 -15zM675 526h186q28 0 44 15t16 35t-16 35t-44 15h-186q-28 0 -44 -15
t-16 -35t16 -35t44 -15zM291 654h442q28 0 44 15t16 35t-16 35t-44 15h-442q-28 0 -44 -15t-16 -35t16 -35t44 -15zM163 782h186q28 0 44 15t16 35t-16 35t-44 15h-186q-28 0 -44 -15t-16 -35t16 -35t44 -15zM675 782h186q28 0 44 15t16 35t-16 35t-44 15h-186
q-28 0 -44 -15t-16 -35t16 -35t44 -15z" />
    <glyph glyph-name="multiply" unicode="&#xd7;" 
d="M163 14h186q28 0 44 15t16 35t-16 35t-44 15h-186q-28 0 -44 -15t-16 -35t16 -35t44 -15zM675 14h186q28 0 44 15t16 35t-16 35t-44 15h-186q-28 0 -44 -15t-16 -35t16 -35t44 -15zM291 142h442q28 0 44 15t16 35t-16 35t-44 15h-442q-28 0 -44 -15t-16 -35t16 -35
t44 -15zM419 270h186q28 0 44 15t16 35t-16 35t-44 15h-186q-28 0 -44 -15t-16 -35t16 -35t44 -15zM291 398h442q28 0 44 15t16 35t-16 35t-44 15h-442q-28 0 -44 -15t-16 -35t16 -35t44 -15zM163 526h186q28 0 44 15t16 35t-16 35t-44 15h-186q-28 0 -44 -15t-16 -35
t16 -35t44 -15zM675 526h186q28 0 44 15t16 35t-16 35t-44 15h-186q-28 0 -44 -15t-16 -35t16 -35t44 -15z" />
    <glyph glyph-name="Oslash" unicode="&#xd8;" 
d="M163 14h570q28 0 44 15t16 35t-16 35t-44 15h-570q-28 0 -44 -15t-16 -35t16 -35t44 -15zM163 142h186q28 0 44 15t16 35t-16 35t-44 15h-186q-28 0 -44 -15t-16 -35t16 -35t44 -15zM675 142h186q28 0 44 15t16 35t-16 35t-44 15h-186q-28 0 -44 -15t-16 -35t16 -35
t44 -15zM163 270h314q28 0 44 15t16 35t-16 35t-44 15h-314q-28 0 -44 -15t-16 -35t16 -35t44 -15zM675 270h186q28 0 44 15t16 35t-16 35t-44 15h-186q-28 0 -44 -15t-16 -35t16 -35t44 -15zM163 398h698q28 0 44 15t16 35t-16 35t-44 15h-698q-28 0 -44 -15t-16 -35
t16 -35t44 -15zM163 526h186q28 0 44 15t16 35t-16 35t-44 15h-186q-28 0 -44 -15t-16 -35t16 -35t44 -15zM547 526h314q28 0 44 15t16 35t-16 35t-44 15h-314q-28 0 -44 -15t-16 -35t16 -35t44 -15zM163 654h186q28 0 44 15t16 35t-16 35t-44 15h-186q-28 0 -44 -15
t-16 -35t16 -35t44 -15zM675 654h186q28 0 44 15t16 35t-16 35t-44 15h-186q-28 0 -44 -15t-16 -35t16 -35t44 -15zM291 782h570q28 0 44 15t16 35t-16 35t-44 15h-570q-28 0 -44 -15t-16 -35t16 -35t44 -15z" />
    <glyph glyph-name="Ugrave" unicode="&#xd9;" 
d="M291 14h442q28 0 44 15t16 35t-16 35t-44 15h-442q-28 0 -44 -15t-16 -35t16 -35t44 -15zM163 142h186q28 0 44 15t16 35t-16 35t-44 15h-186q-28 0 -44 -15t-16 -35t16 -35t44 -15zM675 142h186q28 0 44 15t16 35t-16 35t-44 15h-186q-28 0 -44 -15t-16 -35t16 -35
t44 -15zM163 270h186q28 0 44 15t16 35t-16 35t-44 15h-186q-28 0 -44 -15t-16 -35t16 -35t44 -15zM675 270h186q28 0 44 15t16 35t-16 35t-44 15h-186q-28 0 -44 -15t-16 -35t16 -35t44 -15zM163 398h186q28 0 44 15t16 35t-16 35t-44 15h-186q-28 0 -44 -15t-16 -35
t16 -35t44 -15zM675 398h186q28 0 44 15t16 35t-16 35t-44 15h-186q-28 0 -44 -15t-16 -35t16 -35t44 -15zM163 526h186q28 0 44 15t16 35t-16 35t-44 15h-186q-28 0 -44 -15t-16 -35t16 -35t44 -15zM675 526h186q28 0 44 15t16 35t-16 35t-44 15h-186q-28 0 -44 -15
t-16 -35t16 -35t44 -15zM419 654h186q28 0 44 15t16 35t-16 35t-44 15h-186q-28 0 -44 -15t-16 -35t16 -35t44 -15zM291 782h186q28 0 44 15t16 35t-16 35t-44 15h-186q-28 0 -44 -15t-16 -35t16 -35t44 -15z" />
    <glyph glyph-name="Uacute" unicode="&#xda;" 
d="M291 14h442q28 0 44 15t16 35t-16 35t-44 15h-442q-28 0 -44 -15t-16 -35t16 -35t44 -15zM163 142h186q28 0 44 15t16 35t-16 35t-44 15h-186q-28 0 -44 -15t-16 -35t16 -35t44 -15zM675 142h186q28 0 44 15t16 35t-16 35t-44 15h-186q-28 0 -44 -15t-16 -35t16 -35
t44 -15zM163 270h186q28 0 44 15t16 35t-16 35t-44 15h-186q-28 0 -44 -15t-16 -35t16 -35t44 -15zM675 270h186q28 0 44 15t16 35t-16 35t-44 15h-186q-28 0 -44 -15t-16 -35t16 -35t44 -15zM163 398h186q28 0 44 15t16 35t-16 35t-44 15h-186q-28 0 -44 -15t-16 -35
t16 -35t44 -15zM675 398h186q28 0 44 15t16 35t-16 35t-44 15h-186q-28 0 -44 -15t-16 -35t16 -35t44 -15zM163 526h186q28 0 44 15t16 35t-16 35t-44 15h-186q-28 0 -44 -15t-16 -35t16 -35t44 -15zM675 526h186q28 0 44 15t16 35t-16 35t-44 15h-186q-28 0 -44 -15
t-16 -35t16 -35t44 -15zM419 654h186q28 0 44 15t16 35t-16 35t-44 15h-186q-28 0 -44 -15t-16 -35t16 -35t44 -15zM547 782h186q28 0 44 15t16 35t-16 35t-44 15h-186q-28 0 -44 -15t-16 -35t16 -35t44 -15z" />
    <glyph glyph-name="Ucircumflex" unicode="&#xdb;" 
d="M291 14h442q28 0 44 15t16 35t-16 35t-44 15h-442q-28 0 -44 -15t-16 -35t16 -35t44 -15zM163 142h186q28 0 44 15t16 35t-16 35t-44 15h-186q-28 0 -44 -15t-16 -35t16 -35t44 -15zM675 142h186q28 0 44 15t16 35t-16 35t-44 15h-186q-28 0 -44 -15t-16 -35t16 -35
t44 -15zM163 270h186q28 0 44 15t16 35t-16 35t-44 15h-186q-28 0 -44 -15t-16 -35t16 -35t44 -15zM675 270h186q28 0 44 15t16 35t-16 35t-44 15h-186q-28 0 -44 -15t-16 -35t16 -35t44 -15zM163 398h186q28 0 44 15t16 35t-16 35t-44 15h-186q-28 0 -44 -15t-16 -35
t16 -35t44 -15zM675 398h186q28 0 44 15t16 35t-16 35t-44 15h-186q-28 0 -44 -15t-16 -35t16 -35t44 -15zM163 654h186q28 0 44 15t16 35t-16 35t-44 15h-186q-28 0 -44 -15t-16 -35t16 -35t44 -15zM675 654h186q28 0 44 15t16 35t-16 35t-44 15h-186q-28 0 -44 -15
t-16 -35t16 -35t44 -15zM291 782h442q28 0 44 15t16 35t-16 35t-44 15h-442q-28 0 -44 -15t-16 -35t16 -35t44 -15z" />
    <glyph glyph-name="Udieresis" unicode="&#xdc;" 
d="M291 14h442q28 0 44 15t16 35t-16 35t-44 15h-442q-28 0 -44 -15t-16 -35t16 -35t44 -15zM163 142h186q28 0 44 15t16 35t-16 35t-44 15h-186q-28 0 -44 -15t-16 -35t16 -35t44 -15zM675 142h186q28 0 44 15t16 35t-16 35t-44 15h-186q-28 0 -44 -15t-16 -35t16 -35
t44 -15zM163 270h186q28 0 44 15t16 35t-16 35t-44 15h-186q-28 0 -44 -15t-16 -35t16 -35t44 -15zM675 270h186q28 0 44 15t16 35t-16 35t-44 15h-186q-28 0 -44 -15t-16 -35t16 -35t44 -15zM163 398h186q28 0 44 15t16 35t-16 35t-44 15h-186q-28 0 -44 -15t-16 -35
t16 -35t44 -15zM675 398h186q28 0 44 15t16 35t-16 35t-44 15h-186q-28 0 -44 -15t-16 -35t16 -35t44 -15zM163 526h186q28 0 44 15t16 35t-16 35t-44 15h-186q-28 0 -44 -15t-16 -35t16 -35t44 -15zM675 526h186q28 0 44 15t16 35t-16 35t-44 15h-186q-28 0 -44 -15
t-16 -35t16 -35t44 -15zM163 782h186q28 0 44 15t16 35t-16 35t-44 15h-186q-28 0 -44 -15t-16 -35t16 -35t44 -15zM675 782h186q28 0 44 15t16 35t-16 35t-44 15h-186q-28 0 -44 -15t-16 -35t16 -35t44 -15z" />
    <glyph glyph-name="Yacute" unicode="&#xdd;" 
d="M419 14h186q28 0 44 15t16 35t-16 35t-44 15h-186q-28 0 -44 -15t-16 -35t16 -35t44 -15zM419 142h186q28 0 44 15t16 35t-16 35t-44 15h-186q-28 0 -44 -15t-16 -35t16 -35t44 -15zM291 270h442q28 0 44 15t16 35t-16 35t-44 15h-442q-28 0 -44 -15t-16 -35t16 -35
t44 -15zM163 398h186q28 0 44 15t16 35t-16 35t-44 15h-186q-28 0 -44 -15t-16 -35t16 -35t44 -15zM675 398h186q28 0 44 15t16 35t-16 35t-44 15h-186q-28 0 -44 -15t-16 -35t16 -35t44 -15zM163 526h186q28 0 44 15t16 35t-16 35t-44 15h-186q-28 0 -44 -15t-16 -35
t16 -35t44 -15zM675 526h186q28 0 44 15t16 35t-16 35t-44 15h-186q-28 0 -44 -15t-16 -35t16 -35t44 -15zM419 654h186q28 0 44 15t16 35t-16 35t-44 15h-186q-28 0 -44 -15t-16 -35t16 -35t44 -15zM547 782h186q28 0 44 15t16 35t-16 35t-44 15h-186q-28 0 -44 -15
t-16 -35t16 -35t44 -15z" />
    <glyph glyph-name="Thorn" unicode="&#xde;" 
d="M163 14h186q28 0 44 15t16 35t-16 35t-44 15h-186q-28 0 -44 -15t-16 -35t16 -35t44 -15zM163 142h570q28 0 44 15t16 35t-16 35t-44 15h-570q-28 0 -44 -15t-16 -35t16 -35t44 -15zM163 270h186q28 0 44 15t16 35t-16 35t-44 15h-186q-28 0 -44 -15t-16 -35t16 -35
t44 -15zM675 270h186q28 0 44 15t16 35t-16 35t-44 15h-186q-28 0 -44 -15t-16 -35t16 -35t44 -15zM163 398h186q28 0 44 15t16 35t-16 35t-44 15h-186q-28 0 -44 -15t-16 -35t16 -35t44 -15zM675 398h186q28 0 44 15t16 35t-16 35t-44 15h-186q-28 0 -44 -15t-16 -35
t16 -35t44 -15zM163 526h186q28 0 44 15t16 35t-16 35t-44 15h-186q-28 0 -44 -15t-16 -35t16 -35t44 -15zM675 526h186q28 0 44 15t16 35t-16 35t-44 15h-186q-28 0 -44 -15t-16 -35t16 -35t44 -15zM163 654h570q28 0 44 15t16 35t-16 35t-44 15h-570q-28 0 -44 -15
t-16 -35t16 -35t44 -15zM163 782h186q28 0 44 15t16 35t-16 35t-44 15h-186q-28 0 -44 -15t-16 -35t16 -35t44 -15z" />
    <glyph glyph-name="germandbls" unicode="&#xdf;" 
d="M163 14h186q28 0 44 15t16 35t-16 35t-44 15h-186q-28 0 -44 -15t-16 -35t16 -35t44 -15zM547 14h186q28 0 44 15t16 35t-16 35t-44 15h-186q-28 0 -44 -15t-16 -35t16 -35t44 -15zM163 142h186q28 0 44 15t16 35t-16 35t-44 15h-186q-28 0 -44 -15t-16 -35t16 -35
t44 -15zM675 142h186q28 0 44 15t16 35t-16 35t-44 15h-186q-28 0 -44 -15t-16 -35t16 -35t44 -15zM163 270h186q28 0 44 15t16 35t-16 35t-44 15h-186q-28 0 -44 -15t-16 -35t16 -35t44 -15zM675 270h186q28 0 44 15t16 35t-16 35t-44 15h-186q-28 0 -44 -15t-16 -35
t16 -35t44 -15zM163 398h186q28 0 44 15t16 35t-16 35t-44 15h-186q-28 0 -44 -15t-16 -35t16 -35t44 -15zM547 398h186q28 0 44 15t16 35t-16 35t-44 15h-186q-28 0 -44 -15t-16 -35t16 -35t44 -15zM163 526h186q28 0 44 15t16 35t-16 35t-44 15h-186q-28 0 -44 -15
t-16 -35t16 -35t44 -15zM675 526h186q28 0 44 15t16 35t-16 35t-44 15h-186q-28 0 -44 -15t-16 -35t16 -35t44 -15zM163 654h186q28 0 44 15t16 35t-16 35t-44 15h-186q-28 0 -44 -15t-16 -35t16 -35t44 -15zM675 654h186q28 0 44 15t16 35t-16 35t-44 15h-186
q-28 0 -44 -15t-16 -35t16 -35t44 -15zM291 782h442q28 0 44 15t16 35t-16 35t-44 15h-442q-28 0 -44 -15t-16 -35t16 -35t44 -15z" />
    <glyph glyph-name="agrave" unicode="&#xe0;" 
d="M291 14h570q28 0 44 15t16 35t-16 35t-44 15h-570q-28 0 -44 -15t-16 -35t16 -35t44 -15zM163 142h186q28 0 44 15t16 35t-16 35t-44 15h-186q-28 0 -44 -15t-16 -35t16 -35t44 -15zM675 142h186q28 0 44 15t16 35t-16 35t-44 15h-186q-28 0 -44 -15t-16 -35t16 -35
t44 -15zM291 270h570q28 0 44 15t16 35t-16 35t-44 15h-570q-28 0 -44 -15t-16 -35t16 -35t44 -15zM675 398h186q28 0 44 15t16 35t-16 35t-44 15h-186q-28 0 -44 -15t-16 -35t16 -35t44 -15zM291 526h442q28 0 44 15t16 35t-16 35t-44 15h-442q-28 0 -44 -15t-16 -35
t16 -35t44 -15zM419 654h186q28 0 44 15t16 35t-16 35t-44 15h-186q-28 0 -44 -15t-16 -35t16 -35t44 -15zM291 782h186q28 0 44 15t16 35t-16 35t-44 15h-186q-28 0 -44 -15t-16 -35t16 -35t44 -15z" />
    <glyph glyph-name="aacute" unicode="&#xe1;" 
d="M291 14h570q28 0 44 15t16 35t-16 35t-44 15h-570q-28 0 -44 -15t-16 -35t16 -35t44 -15zM163 142h186q28 0 44 15t16 35t-16 35t-44 15h-186q-28 0 -44 -15t-16 -35t16 -35t44 -15zM675 142h186q28 0 44 15t16 35t-16 35t-44 15h-186q-28 0 -44 -15t-16 -35t16 -35
t44 -15zM291 270h570q28 0 44 15t16 35t-16 35t-44 15h-570q-28 0 -44 -15t-16 -35t16 -35t44 -15zM675 398h186q28 0 44 15t16 35t-16 35t-44 15h-186q-28 0 -44 -15t-16 -35t16 -35t44 -15zM291 526h442q28 0 44 15t16 35t-16 35t-44 15h-442q-28 0 -44 -15t-16 -35
t16 -35t44 -15zM419 654h186q28 0 44 15t16 35t-16 35t-44 15h-186q-28 0 -44 -15t-16 -35t16 -35t44 -15zM547 782h186q28 0 44 15t16 35t-16 35t-44 15h-186q-28 0 -44 -15t-16 -35t16 -35t44 -15z" />
    <glyph glyph-name="acircumflex" unicode="&#xe2;" 
d="M291 14h570q28 0 44 15t16 35t-16 35t-44 15h-570q-28 0 -44 -15t-16 -35t16 -35t44 -15zM163 142h186q28 0 44 15t16 35t-16 35t-44 15h-186q-28 0 -44 -15t-16 -35t16 -35t44 -15zM675 142h186q28 0 44 15t16 35t-16 35t-44 15h-186q-28 0 -44 -15t-16 -35t16 -35
t44 -15zM291 270h570q28 0 44 15t16 35t-16 35t-44 15h-570q-28 0 -44 -15t-16 -35t16 -35t44 -15zM675 398h186q28 0 44 15t16 35t-16 35t-44 15h-186q-28 0 -44 -15t-16 -35t16 -35t44 -15zM291 526h442q28 0 44 15t16 35t-16 35t-44 15h-442q-28 0 -44 -15t-16 -35
t16 -35t44 -15zM163 654h186q28 0 44 15t16 35t-16 35t-44 15h-186q-28 0 -44 -15t-16 -35t16 -35t44 -15zM675 654h186q28 0 44 15t16 35t-16 35t-44 15h-186q-28 0 -44 -15t-16 -35t16 -35t44 -15zM291 782h442q28 0 44 15t16 35t-16 35t-44 15h-442q-28 0 -44 -15
t-16 -35t16 -35t44 -15z" />
    <glyph glyph-name="atilde" unicode="&#xe3;" 
d="M291 14h570q28 0 44 15t16 35t-16 35t-44 15h-570q-28 0 -44 -15t-16 -35t16 -35t44 -15zM163 142h186q28 0 44 15t16 35t-16 35t-44 15h-186q-28 0 -44 -15t-16 -35t16 -35t44 -15zM675 142h186q28 0 44 15t16 35t-16 35t-44 15h-186q-28 0 -44 -15t-16 -35t16 -35
t44 -15zM291 270h570q28 0 44 15t16 35t-16 35t-44 15h-570q-28 0 -44 -15t-16 -35t16 -35t44 -15zM675 398h186q28 0 44 15t16 35t-16 35t-44 15h-186q-28 0 -44 -15t-16 -35t16 -35t44 -15zM291 526h442q28 0 44 15t16 35t-16 35t-44 15h-442q-28 0 -44 -15t-16 -35
t16 -35t44 -15zM163 654h186q28 0 44 15t16 35t-16 35t-44 15h-186q-28 0 -44 -15t-16 -35t16 -35t44 -15zM547 654h314q28 0 44 15t16 35t-16 35t-44 15h-314q-28 0 -44 -15t-16 -35t16 -35t44 -15zM291 782h314q28 0 44 15t16 35t-16 35t-44 15h-314q-28 0 -44 -15
t-16 -35t16 -35t44 -15zM803 782h186q28 0 44 15t16 35t-16 35t-44 15h-186q-28 0 -44 -15t-16 -35t16 -35t44 -15z" />
    <glyph glyph-name="adieresis" unicode="&#xe4;" 
d="M291 14h570q28 0 44 15t16 35t-16 35t-44 15h-570q-28 0 -44 -15t-16 -35t16 -35t44 -15zM163 142h186q28 0 44 15t16 35t-16 35t-44 15h-186q-28 0 -44 -15t-16 -35t16 -35t44 -15zM675 142h186q28 0 44 15t16 35t-16 35t-44 15h-186q-28 0 -44 -15t-16 -35t16 -35
t44 -15zM291 270h570q28 0 44 15t16 35t-16 35t-44 15h-570q-28 0 -44 -15t-16 -35t16 -35t44 -15zM675 398h186q28 0 44 15t16 35t-16 35t-44 15h-186q-28 0 -44 -15t-16 -35t16 -35t44 -15zM291 526h442q28 0 44 15t16 35t-16 35t-44 15h-442q-28 0 -44 -15t-16 -35
t16 -35t44 -15zM163 782h186q28 0 44 15t16 35t-16 35t-44 15h-186q-28 0 -44 -15t-16 -35t16 -35t44 -15zM675 782h186q28 0 44 15t16 35t-16 35t-44 15h-186q-28 0 -44 -15t-16 -35t16 -35t44 -15z" />
    <glyph glyph-name="aring" unicode="&#xe5;" 
d="M291 14h570q28 0 44 15t16 35t-16 35t-44 15h-570q-28 0 -44 -15t-16 -35t16 -35t44 -15zM163 142h186q28 0 44 15t16 35t-16 35t-44 15h-186q-28 0 -44 -15t-16 -35t16 -35t44 -15zM675 142h186q28 0 44 15t16 35t-16 35t-44 15h-186q-28 0 -44 -15t-16 -35t16 -35
t44 -15zM163 270h186q28 0 44 15t16 35t-16 35t-44 15h-186q-28 0 -44 -15t-16 -35t16 -35t44 -15zM675 270h186q28 0 44 15t16 35t-16 35t-44 15h-186q-28 0 -44 -15t-16 -35t16 -35t44 -15zM291 398h570q28 0 44 15t16 35t-16 35t-44 15h-570q-28 0 -44 -15t-16 -35
t16 -35t44 -15zM291 526h442q28 0 44 15t16 35t-16 35t-44 15h-442q-28 0 -44 -15t-16 -35t16 -35t44 -15zM163 654h186q28 0 44 15t16 35t-16 35t-44 15h-186q-28 0 -44 -15t-16 -35t16 -35t44 -15zM675 654h186q28 0 44 15t16 35t-16 35t-44 15h-186q-28 0 -44 -15
t-16 -35t16 -35t44 -15zM291 782h442q28 0 44 15t16 35t-16 35t-44 15h-442q-28 0 -44 -15t-16 -35t16 -35t44 -15z" />
    <glyph glyph-name="ae" unicode="&#xe6;" 
d="M291 14h186q28 0 44 15t16 35t-16 35t-44 15h-186q-28 0 -44 -15t-16 -35t16 -35t44 -15zM675 14h314q28 0 44 15t16 35t-16 35t-44 15h-314q-28 0 -44 -15t-16 -35t16 -35t44 -15zM163 142h186q28 0 44 15t16 35t-16 35t-44 15h-186q-28 0 -44 -15t-16 -35t16 -35
t44 -15zM547 142h186q28 0 44 15t16 35t-16 35t-44 15h-186q-28 0 -44 -15t-16 -35t16 -35t44 -15zM291 270h698q28 0 44 15t16 35t-16 35t-44 15h-698q-28 0 -44 -15t-16 -35t16 -35t44 -15zM547 398h186q28 0 44 15t16 35t-16 35t-44 15h-186q-28 0 -44 -15t-16 -35
t16 -35t44 -15zM922 398h76q22 0 36.5 15t14.5 35t-14.5 35t-36.5 15h-76q-22 0 -36.5 -15t-14.5 -35t14.5 -35t36.5 -15zM291 526h570q28 0 44 15t16 35t-16 35t-44 15h-570q-28 0 -44 -15t-16 -35t16 -35t44 -15z" />
    <glyph glyph-name="ccedilla" unicode="&#xe7;" 
d="M291 -114h186q28 0 44 15t16 35t-16 35t-44 15h-186q-28 0 -44 -15t-16 -35t16 -35t44 -15zM419 14h186q28 0 44 15t16 35t-16 35t-44 15h-186q-28 0 -44 -15t-16 -35t16 -35t44 -15zM291 142h442q28 0 44 15t16 35t-16 35t-44 15h-442q-28 0 -44 -15t-16 -35t16 -35
t44 -15zM163 270h186q28 0 44 15t16 35t-16 35t-44 15h-186q-28 0 -44 -15t-16 -35t16 -35t44 -15zM163 398h186q28 0 44 15t16 35t-16 35t-44 15h-186q-28 0 -44 -15t-16 -35t16 -35t44 -15zM291 526h442q28 0 44 15t16 35t-16 35t-44 15h-442q-28 0 -44 -15t-16 -35
t16 -35t44 -15z" />
    <glyph glyph-name="egrave" unicode="&#xe8;" 
d="M291 14h442q28 0 44 15t16 35t-16 35t-44 15h-442q-28 0 -44 -15t-16 -35t16 -35t44 -15zM163 142h186q28 0 44 15t16 35t-16 35t-44 15h-186q-28 0 -44 -15t-16 -35t16 -35t44 -15zM163 270h698q28 0 44 15t16 35t-16 35t-44 15h-698q-28 0 -44 -15t-16 -35t16 -35
t44 -15zM163 398h186q28 0 44 15t16 35t-16 35t-44 15h-186q-28 0 -44 -15t-16 -35t16 -35t44 -15zM675 398h186q28 0 44 15t16 35t-16 35t-44 15h-186q-28 0 -44 -15t-16 -35t16 -35t44 -15zM291 526h442q28 0 44 15t16 35t-16 35t-44 15h-442q-28 0 -44 -15t-16 -35
t16 -35t44 -15zM419 654h186q28 0 44 15t16 35t-16 35t-44 15h-186q-28 0 -44 -15t-16 -35t16 -35t44 -15zM291 782h186q28 0 44 15t16 35t-16 35t-44 15h-186q-28 0 -44 -15t-16 -35t16 -35t44 -15z" />
    <glyph glyph-name="eacute" unicode="&#xe9;" 
d="M291 14h442q28 0 44 15t16 35t-16 35t-44 15h-442q-28 0 -44 -15t-16 -35t16 -35t44 -15zM163 142h186q28 0 44 15t16 35t-16 35t-44 15h-186q-28 0 -44 -15t-16 -35t16 -35t44 -15zM163 270h698q28 0 44 15t16 35t-16 35t-44 15h-698q-28 0 -44 -15t-16 -35t16 -35
t44 -15zM163 398h186q28 0 44 15t16 35t-16 35t-44 15h-186q-28 0 -44 -15t-16 -35t16 -35t44 -15zM675 398h186q28 0 44 15t16 35t-16 35t-44 15h-186q-28 0 -44 -15t-16 -35t16 -35t44 -15zM291 526h442q28 0 44 15t16 35t-16 35t-44 15h-442q-28 0 -44 -15t-16 -35
t16 -35t44 -15zM419 654h186q28 0 44 15t16 35t-16 35t-44 15h-186q-28 0 -44 -15t-16 -35t16 -35t44 -15zM547 782h186q28 0 44 15t16 35t-16 35t-44 15h-186q-28 0 -44 -15t-16 -35t16 -35t44 -15z" />
    <glyph glyph-name="ecircumflex" unicode="&#xea;" 
d="M291 14h442q28 0 44 15t16 35t-16 35t-44 15h-442q-28 0 -44 -15t-16 -35t16 -35t44 -15zM163 142h186q28 0 44 15t16 35t-16 35t-44 15h-186q-28 0 -44 -15t-16 -35t16 -35t44 -15zM163 270h698q28 0 44 15t16 35t-16 35t-44 15h-698q-28 0 -44 -15t-16 -35t16 -35
t44 -15zM163 398h186q28 0 44 15t16 35t-16 35t-44 15h-186q-28 0 -44 -15t-16 -35t16 -35t44 -15zM675 398h186q28 0 44 15t16 35t-16 35t-44 15h-186q-28 0 -44 -15t-16 -35t16 -35t44 -15zM291 526h442q28 0 44 15t16 35t-16 35t-44 15h-442q-28 0 -44 -15t-16 -35
t16 -35t44 -15zM163 654h186q28 0 44 15t16 35t-16 35t-44 15h-186q-28 0 -44 -15t-16 -35t16 -35t44 -15zM675 654h186q28 0 44 15t16 35t-16 35t-44 15h-186q-28 0 -44 -15t-16 -35t16 -35t44 -15zM291 782h442q28 0 44 15t16 35t-16 35t-44 15h-442q-28 0 -44 -15
t-16 -35t16 -35t44 -15z" />
    <glyph glyph-name="edieresis" unicode="&#xeb;" 
d="M291 14h442q28 0 44 15t16 35t-16 35t-44 15h-442q-28 0 -44 -15t-16 -35t16 -35t44 -15zM163 142h186q28 0 44 15t16 35t-16 35t-44 15h-186q-28 0 -44 -15t-16 -35t16 -35t44 -15zM163 270h698q28 0 44 15t16 35t-16 35t-44 15h-698q-28 0 -44 -15t-16 -35t16 -35
t44 -15zM163 398h186q28 0 44 15t16 35t-16 35t-44 15h-186q-28 0 -44 -15t-16 -35t16 -35t44 -15zM675 398h186q28 0 44 15t16 35t-16 35t-44 15h-186q-28 0 -44 -15t-16 -35t16 -35t44 -15zM291 526h442q28 0 44 15t16 35t-16 35t-44 15h-442q-28 0 -44 -15t-16 -35
t16 -35t44 -15zM163 782h186q28 0 44 15t16 35t-16 35t-44 15h-186q-28 0 -44 -15t-16 -35t16 -35t44 -15zM675 782h186q28 0 44 15t16 35t-16 35t-44 15h-186q-28 0 -44 -15t-16 -35t16 -35t44 -15z" />
    <glyph glyph-name="igrave" unicode="&#xec;" 
d="M291 14h442q28 0 44 15t16 35t-16 35t-44 15h-442q-28 0 -44 -15t-16 -35t16 -35t44 -15zM419 142h186q28 0 44 15t16 35t-16 35t-44 15h-186q-28 0 -44 -15t-16 -35t16 -35t44 -15zM419 270h186q28 0 44 15t16 35t-16 35t-44 15h-186q-28 0 -44 -15t-16 -35t16 -35
t44 -15zM291 398h314q28 0 44 15t16 35t-16 35t-44 15h-314q-28 0 -44 -15t-16 -35t16 -35t44 -15zM419 654h186q28 0 44 15t16 35t-16 35t-44 15h-186q-28 0 -44 -15t-16 -35t16 -35t44 -15zM291 782h186q28 0 44 15t16 35t-16 35t-44 15h-186q-28 0 -44 -15t-16 -35
t16 -35t44 -15z" />
    <glyph glyph-name="iacute" unicode="&#xed;" 
d="M291 14h442q28 0 44 15t16 35t-16 35t-44 15h-442q-28 0 -44 -15t-16 -35t16 -35t44 -15zM419 142h186q28 0 44 15t16 35t-16 35t-44 15h-186q-28 0 -44 -15t-16 -35t16 -35t44 -15zM419 270h186q28 0 44 15t16 35t-16 35t-44 15h-186q-28 0 -44 -15t-16 -35t16 -35
t44 -15zM291 398h314q28 0 44 15t16 35t-16 35t-44 15h-314q-28 0 -44 -15t-16 -35t16 -35t44 -15zM419 654h186q28 0 44 15t16 35t-16 35t-44 15h-186q-28 0 -44 -15t-16 -35t16 -35t44 -15zM547 782h186q28 0 44 15t16 35t-16 35t-44 15h-186q-28 0 -44 -15t-16 -35
t16 -35t44 -15z" />
    <glyph glyph-name="icircumflex" unicode="&#xee;" 
d="M291 14h442q28 0 44 15t16 35t-16 35t-44 15h-442q-28 0 -44 -15t-16 -35t16 -35t44 -15zM419 142h186q28 0 44 15t16 35t-16 35t-44 15h-186q-28 0 -44 -15t-16 -35t16 -35t44 -15zM419 270h186q28 0 44 15t16 35t-16 35t-44 15h-186q-28 0 -44 -15t-16 -35t16 -35
t44 -15zM291 398h314q28 0 44 15t16 35t-16 35t-44 15h-314q-28 0 -44 -15t-16 -35t16 -35t44 -15zM163 654h186q28 0 44 15t16 35t-16 35t-44 15h-186q-28 0 -44 -15t-16 -35t16 -35t44 -15zM675 654h186q28 0 44 15t16 35t-16 35t-44 15h-186q-28 0 -44 -15t-16 -35
t16 -35t44 -15zM291 782h442q28 0 44 15t16 35t-16 35t-44 15h-442q-28 0 -44 -15t-16 -35t16 -35t44 -15z" />
    <glyph glyph-name="idieresis" unicode="&#xef;" 
d="M291 14h442q28 0 44 15t16 35t-16 35t-44 15h-442q-28 0 -44 -15t-16 -35t16 -35t44 -15zM419 142h186q28 0 44 15t16 35t-16 35t-44 15h-186q-28 0 -44 -15t-16 -35t16 -35t44 -15zM419 270h186q28 0 44 15t16 35t-16 35t-44 15h-186q-28 0 -44 -15t-16 -35t16 -35
t44 -15zM291 398h314q28 0 44 15t16 35t-16 35t-44 15h-314q-28 0 -44 -15t-16 -35t16 -35t44 -15zM163 654h186q28 0 44 15t16 35t-16 35t-44 15h-186q-28 0 -44 -15t-16 -35t16 -35t44 -15zM675 654h186q28 0 44 15t16 35t-16 35t-44 15h-186q-28 0 -44 -15t-16 -35
t16 -35t44 -15z" />
    <glyph glyph-name="eth" unicode="&#xf0;" 
d="M291 14h442q28 0 44 15t16 35t-16 35t-44 15h-442q-28 0 -44 -15t-16 -35t16 -35t44 -15zM163 142h186q28 0 44 15t16 35t-16 35t-44 15h-186q-28 0 -44 -15t-16 -35t16 -35t44 -15zM675 142h186q28 0 44 15t16 35t-16 35t-44 15h-186q-28 0 -44 -15t-16 -35t16 -35
t44 -15zM163 270h186q28 0 44 15t16 35t-16 35t-44 15h-186q-28 0 -44 -15t-16 -35t16 -35t44 -15zM675 270h186q28 0 44 15t16 35t-16 35t-44 15h-186q-28 0 -44 -15t-16 -35t16 -35t44 -15zM291 398h570q28 0 44 15t16 35t-16 35t-44 15h-570q-28 0 -44 -15t-16 -35
t16 -35t44 -15zM675 526h186q28 0 44 15t16 35t-16 35t-44 15h-186q-28 0 -44 -15t-16 -35t16 -35t44 -15zM547 654h442q28 0 44 15t16 35t-16 35t-44 15h-442q-28 0 -44 -15t-16 -35t16 -35t44 -15zM291 782h442q28 0 44 15t16 35t-16 35t-44 15h-442q-28 0 -44 -15
t-16 -35t16 -35t44 -15z" />
    <glyph glyph-name="ntilde" unicode="&#xf1;" 
d="M163 14h186q28 0 44 15t16 35t-16 35t-44 15h-186q-28 0 -44 -15t-16 -35t16 -35t44 -15zM675 14h186q28 0 44 15t16 35t-16 35t-44 15h-186q-28 0 -44 -15t-16 -35t16 -35t44 -15zM163 142h186q28 0 44 15t16 35t-16 35t-44 15h-186q-28 0 -44 -15t-16 -35t16 -35
t44 -15zM675 142h186q28 0 44 15t16 35t-16 35t-44 15h-186q-28 0 -44 -15t-16 -35t16 -35t44 -15zM163 270h186q28 0 44 15t16 35t-16 35t-44 15h-186q-28 0 -44 -15t-16 -35t16 -35t44 -15zM675 270h186q28 0 44 15t16 35t-16 35t-44 15h-186q-28 0 -44 -15t-16 -35
t16 -35t44 -15zM163 398h186q28 0 44 15t16 35t-16 35t-44 15h-186q-28 0 -44 -15t-16 -35t16 -35t44 -15zM675 398h186q28 0 44 15t16 35t-16 35t-44 15h-186q-28 0 -44 -15t-16 -35t16 -35t44 -15zM163 526h570q28 0 44 15t16 35t-16 35t-44 15h-570q-28 0 -44 -15
t-16 -35t16 -35t44 -15zM163 654h186q28 0 44 15t16 35t-16 35t-44 15h-186q-28 0 -44 -15t-16 -35t16 -35t44 -15zM547 654h314q28 0 44 15t16 35t-16 35t-44 15h-314q-28 0 -44 -15t-16 -35t16 -35t44 -15zM291 782h314q28 0 44 15t16 35t-16 35t-44 15h-314
q-28 0 -44 -15t-16 -35t16 -35t44 -15zM803 782h186q28 0 44 15t16 35t-16 35t-44 15h-186q-28 0 -44 -15t-16 -35t16 -35t44 -15z" />
    <glyph glyph-name="ograve" unicode="&#xf2;" 
d="M291 14h442q28 0 44 15t16 35t-16 35t-44 15h-442q-28 0 -44 -15t-16 -35t16 -35t44 -15zM163 142h186q28 0 44 15t16 35t-16 35t-44 15h-186q-28 0 -44 -15t-16 -35t16 -35t44 -15zM675 142h186q28 0 44 15t16 35t-16 35t-44 15h-186q-28 0 -44 -15t-16 -35t16 -35
t44 -15zM163 270h186q28 0 44 15t16 35t-16 35t-44 15h-186q-28 0 -44 -15t-16 -35t16 -35t44 -15zM675 270h186q28 0 44 15t16 35t-16 35t-44 15h-186q-28 0 -44 -15t-16 -35t16 -35t44 -15zM163 398h186q28 0 44 15t16 35t-16 35t-44 15h-186q-28 0 -44 -15t-16 -35
t16 -35t44 -15zM675 398h186q28 0 44 15t16 35t-16 35t-44 15h-186q-28 0 -44 -15t-16 -35t16 -35t44 -15zM291 526h442q28 0 44 15t16 35t-16 35t-44 15h-442q-28 0 -44 -15t-16 -35t16 -35t44 -15zM419 654h186q28 0 44 15t16 35t-16 35t-44 15h-186q-28 0 -44 -15
t-16 -35t16 -35t44 -15zM291 782h186q28 0 44 15t16 35t-16 35t-44 15h-186q-28 0 -44 -15t-16 -35t16 -35t44 -15z" />
    <glyph glyph-name="oacute" unicode="&#xf3;" 
d="M291 14h442q28 0 44 15t16 35t-16 35t-44 15h-442q-28 0 -44 -15t-16 -35t16 -35t44 -15zM163 142h186q28 0 44 15t16 35t-16 35t-44 15h-186q-28 0 -44 -15t-16 -35t16 -35t44 -15zM675 142h186q28 0 44 15t16 35t-16 35t-44 15h-186q-28 0 -44 -15t-16 -35t16 -35
t44 -15zM163 270h186q28 0 44 15t16 35t-16 35t-44 15h-186q-28 0 -44 -15t-16 -35t16 -35t44 -15zM675 270h186q28 0 44 15t16 35t-16 35t-44 15h-186q-28 0 -44 -15t-16 -35t16 -35t44 -15zM163 398h186q28 0 44 15t16 35t-16 35t-44 15h-186q-28 0 -44 -15t-16 -35
t16 -35t44 -15zM675 398h186q28 0 44 15t16 35t-16 35t-44 15h-186q-28 0 -44 -15t-16 -35t16 -35t44 -15zM291 526h442q28 0 44 15t16 35t-16 35t-44 15h-442q-28 0 -44 -15t-16 -35t16 -35t44 -15zM419 654h186q28 0 44 15t16 35t-16 35t-44 15h-186q-28 0 -44 -15
t-16 -35t16 -35t44 -15zM547 782h186q28 0 44 15t16 35t-16 35t-44 15h-186q-28 0 -44 -15t-16 -35t16 -35t44 -15z" />
    <glyph glyph-name="ocircumflex" unicode="&#xf4;" 
d="M291 14h442q28 0 44 15t16 35t-16 35t-44 15h-442q-28 0 -44 -15t-16 -35t16 -35t44 -15zM163 142h186q28 0 44 15t16 35t-16 35t-44 15h-186q-28 0 -44 -15t-16 -35t16 -35t44 -15zM675 142h186q28 0 44 15t16 35t-16 35t-44 15h-186q-28 0 -44 -15t-16 -35t16 -35
t44 -15zM163 270h186q28 0 44 15t16 35t-16 35t-44 15h-186q-28 0 -44 -15t-16 -35t16 -35t44 -15zM675 270h186q28 0 44 15t16 35t-16 35t-44 15h-186q-28 0 -44 -15t-16 -35t16 -35t44 -15zM163 398h186q28 0 44 15t16 35t-16 35t-44 15h-186q-28 0 -44 -15t-16 -35
t16 -35t44 -15zM675 398h186q28 0 44 15t16 35t-16 35t-44 15h-186q-28 0 -44 -15t-16 -35t16 -35t44 -15zM291 526h442q28 0 44 15t16 35t-16 35t-44 15h-442q-28 0 -44 -15t-16 -35t16 -35t44 -15zM163 654h186q28 0 44 15t16 35t-16 35t-44 15h-186q-28 0 -44 -15
t-16 -35t16 -35t44 -15zM675 654h186q28 0 44 15t16 35t-16 35t-44 15h-186q-28 0 -44 -15t-16 -35t16 -35t44 -15zM291 782h442q28 0 44 15t16 35t-16 35t-44 15h-442q-28 0 -44 -15t-16 -35t16 -35t44 -15z" />
    <glyph glyph-name="otilde" unicode="&#xf5;" 
d="M291 14h442q28 0 44 15t16 35t-16 35t-44 15h-442q-28 0 -44 -15t-16 -35t16 -35t44 -15zM163 142h186q28 0 44 15t16 35t-16 35t-44 15h-186q-28 0 -44 -15t-16 -35t16 -35t44 -15zM675 142h186q28 0 44 15t16 35t-16 35t-44 15h-186q-28 0 -44 -15t-16 -35t16 -35
t44 -15zM163 270h186q28 0 44 15t16 35t-16 35t-44 15h-186q-28 0 -44 -15t-16 -35t16 -35t44 -15zM675 270h186q28 0 44 15t16 35t-16 35t-44 15h-186q-28 0 -44 -15t-16 -35t16 -35t44 -15zM163 398h186q28 0 44 15t16 35t-16 35t-44 15h-186q-28 0 -44 -15t-16 -35
t16 -35t44 -15zM675 398h186q28 0 44 15t16 35t-16 35t-44 15h-186q-28 0 -44 -15t-16 -35t16 -35t44 -15zM291 526h442q28 0 44 15t16 35t-16 35t-44 15h-442q-28 0 -44 -15t-16 -35t16 -35t44 -15zM163 654h186q28 0 44 15t16 35t-16 35t-44 15h-186q-28 0 -44 -15
t-16 -35t16 -35t44 -15zM547 654h314q28 0 44 15t16 35t-16 35t-44 15h-314q-28 0 -44 -15t-16 -35t16 -35t44 -15zM291 782h314q28 0 44 15t16 35t-16 35t-44 15h-314q-28 0 -44 -15t-16 -35t16 -35t44 -15zM803 782h186q28 0 44 15t16 35t-16 35t-44 15h-186
q-28 0 -44 -15t-16 -35t16 -35t44 -15z" />
    <glyph glyph-name="odieresis" unicode="&#xf6;" 
d="M291 14h442q28 0 44 15t16 35t-16 35t-44 15h-442q-28 0 -44 -15t-16 -35t16 -35t44 -15zM163 142h186q28 0 44 15t16 35t-16 35t-44 15h-186q-28 0 -44 -15t-16 -35t16 -35t44 -15zM675 142h186q28 0 44 15t16 35t-16 35t-44 15h-186q-28 0 -44 -15t-16 -35t16 -35
t44 -15zM163 270h186q28 0 44 15t16 35t-16 35t-44 15h-186q-28 0 -44 -15t-16 -35t16 -35t44 -15zM675 270h186q28 0 44 15t16 35t-16 35t-44 15h-186q-28 0 -44 -15t-16 -35t16 -35t44 -15zM163 398h186q28 0 44 15t16 35t-16 35t-44 15h-186q-28 0 -44 -15t-16 -35
t16 -35t44 -15zM675 398h186q28 0 44 15t16 35t-16 35t-44 15h-186q-28 0 -44 -15t-16 -35t16 -35t44 -15zM291 526h442q28 0 44 15t16 35t-16 35t-44 15h-442q-28 0 -44 -15t-16 -35t16 -35t44 -15zM163 782h186q28 0 44 15t16 35t-16 35t-44 15h-186q-28 0 -44 -15
t-16 -35t16 -35t44 -15zM675 782h186q28 0 44 15t16 35t-16 35t-44 15h-186q-28 0 -44 -15t-16 -35t16 -35t44 -15z" />
    <glyph glyph-name="divide" unicode="&#xf7;" 
d="M419 142h186q28 0 44 15t16 35t-16 35t-44 15h-186q-28 0 -44 -15t-16 -35t16 -35t44 -15zM163 398h698q28 0 44 15t16 35t-16 35t-44 15h-698q-28 0 -44 -15t-16 -35t16 -35t44 -15zM419 654h186q28 0 44 15t16 35t-16 35t-44 15h-186q-28 0 -44 -15t-16 -35t16 -35
t44 -15z" />
    <glyph glyph-name="oslash" unicode="&#xf8;" 
d="M163 -114h186q28 0 44 15t16 35t-16 35t-44 15h-186q-28 0 -44 -15t-16 -35t16 -35t44 -15zM291 14h442q28 0 44 15t16 35t-16 35t-44 15h-442q-28 0 -44 -15t-16 -35t16 -35t44 -15zM163 142h186q28 0 44 15t16 35t-16 35t-44 15h-186q-28 0 -44 -15t-16 -35t16 -35
t44 -15zM675 142h186q28 0 44 15t16 35t-16 35t-44 15h-186q-28 0 -44 -15t-16 -35t16 -35t44 -15zM163 270h186q28 0 44 15t16 35t-16 35t-44 15h-186q-28 0 -44 -15t-16 -35t16 -35t44 -15zM675 270h186q28 0 44 15t16 35t-16 35t-44 15h-186q-28 0 -44 -15t-16 -35
t16 -35t44 -15zM163 398h186q28 0 44 15t16 35t-16 35t-44 15h-186q-28 0 -44 -15t-16 -35t16 -35t44 -15zM675 398h186q28 0 44 15t16 35t-16 35t-44 15h-186q-28 0 -44 -15t-16 -35t16 -35t44 -15zM291 526h442q28 0 44 15t16 35t-16 35t-44 15h-442q-28 0 -44 -15
t-16 -35t16 -35t44 -15zM675 654h186q28 0 44 15t16 35t-16 35t-44 15h-186q-28 0 -44 -15t-16 -35t16 -35t44 -15z" />
    <glyph glyph-name="ugrave" unicode="&#xf9;" 
d="M291 14h570q28 0 44 15t16 35t-16 35t-44 15h-570q-28 0 -44 -15t-16 -35t16 -35t44 -15zM163 142h186q28 0 44 15t16 35t-16 35t-44 15h-186q-28 0 -44 -15t-16 -35t16 -35t44 -15zM675 142h186q28 0 44 15t16 35t-16 35t-44 15h-186q-28 0 -44 -15t-16 -35t16 -35
t44 -15zM163 270h186q28 0 44 15t16 35t-16 35t-44 15h-186q-28 0 -44 -15t-16 -35t16 -35t44 -15zM675 270h186q28 0 44 15t16 35t-16 35t-44 15h-186q-28 0 -44 -15t-16 -35t16 -35t44 -15zM163 398h186q28 0 44 15t16 35t-16 35t-44 15h-186q-28 0 -44 -15t-16 -35
t16 -35t44 -15zM675 398h186q28 0 44 15t16 35t-16 35t-44 15h-186q-28 0 -44 -15t-16 -35t16 -35t44 -15zM163 526h186q28 0 44 15t16 35t-16 35t-44 15h-186q-28 0 -44 -15t-16 -35t16 -35t44 -15zM675 526h186q28 0 44 15t16 35t-16 35t-44 15h-186q-28 0 -44 -15
t-16 -35t16 -35t44 -15zM419 654h186q28 0 44 15t16 35t-16 35t-44 15h-186q-28 0 -44 -15t-16 -35t16 -35t44 -15zM291 782h186q28 0 44 15t16 35t-16 35t-44 15h-186q-28 0 -44 -15t-16 -35t16 -35t44 -15z" />
    <glyph glyph-name="uacute" unicode="&#xfa;" 
d="M291 14h570q28 0 44 15t16 35t-16 35t-44 15h-570q-28 0 -44 -15t-16 -35t16 -35t44 -15zM163 142h186q28 0 44 15t16 35t-16 35t-44 15h-186q-28 0 -44 -15t-16 -35t16 -35t44 -15zM675 142h186q28 0 44 15t16 35t-16 35t-44 15h-186q-28 0 -44 -15t-16 -35t16 -35
t44 -15zM163 270h186q28 0 44 15t16 35t-16 35t-44 15h-186q-28 0 -44 -15t-16 -35t16 -35t44 -15zM675 270h186q28 0 44 15t16 35t-16 35t-44 15h-186q-28 0 -44 -15t-16 -35t16 -35t44 -15zM163 398h186q28 0 44 15t16 35t-16 35t-44 15h-186q-28 0 -44 -15t-16 -35
t16 -35t44 -15zM675 398h186q28 0 44 15t16 35t-16 35t-44 15h-186q-28 0 -44 -15t-16 -35t16 -35t44 -15zM163 526h186q28 0 44 15t16 35t-16 35t-44 15h-186q-28 0 -44 -15t-16 -35t16 -35t44 -15zM675 526h186q28 0 44 15t16 35t-16 35t-44 15h-186q-28 0 -44 -15
t-16 -35t16 -35t44 -15zM419 654h186q28 0 44 15t16 35t-16 35t-44 15h-186q-28 0 -44 -15t-16 -35t16 -35t44 -15zM547 782h186q28 0 44 15t16 35t-16 35t-44 15h-186q-28 0 -44 -15t-16 -35t16 -35t44 -15z" />
    <glyph glyph-name="ucircumflex" unicode="&#xfb;" 
d="M291 14h570q28 0 44 15t16 35t-16 35t-44 15h-570q-28 0 -44 -15t-16 -35t16 -35t44 -15zM163 142h186q28 0 44 15t16 35t-16 35t-44 15h-186q-28 0 -44 -15t-16 -35t16 -35t44 -15zM675 142h186q28 0 44 15t16 35t-16 35t-44 15h-186q-28 0 -44 -15t-16 -35t16 -35
t44 -15zM163 270h186q28 0 44 15t16 35t-16 35t-44 15h-186q-28 0 -44 -15t-16 -35t16 -35t44 -15zM675 270h186q28 0 44 15t16 35t-16 35t-44 15h-186q-28 0 -44 -15t-16 -35t16 -35t44 -15zM163 398h186q28 0 44 15t16 35t-16 35t-44 15h-186q-28 0 -44 -15t-16 -35
t16 -35t44 -15zM675 398h186q28 0 44 15t16 35t-16 35t-44 15h-186q-28 0 -44 -15t-16 -35t16 -35t44 -15zM163 526h186q28 0 44 15t16 35t-16 35t-44 15h-186q-28 0 -44 -15t-16 -35t16 -35t44 -15zM675 526h186q28 0 44 15t16 35t-16 35t-44 15h-186q-28 0 -44 -15
t-16 -35t16 -35t44 -15zM163 654h186q28 0 44 15t16 35t-16 35t-44 15h-186q-28 0 -44 -15t-16 -35t16 -35t44 -15zM675 654h186q28 0 44 15t16 35t-16 35t-44 15h-186q-28 0 -44 -15t-16 -35t16 -35t44 -15zM291 782h442q28 0 44 15t16 35t-16 35t-44 15h-442
q-28 0 -44 -15t-16 -35t16 -35t44 -15z" />
    <glyph glyph-name="udieresis" unicode="&#xfc;" 
d="M291 14h570q28 0 44 15t16 35t-16 35t-44 15h-570q-28 0 -44 -15t-16 -35t16 -35t44 -15zM163 142h186q28 0 44 15t16 35t-16 35t-44 15h-186q-28 0 -44 -15t-16 -35t16 -35t44 -15zM675 142h186q28 0 44 15t16 35t-16 35t-44 15h-186q-28 0 -44 -15t-16 -35t16 -35
t44 -15zM163 270h186q28 0 44 15t16 35t-16 35t-44 15h-186q-28 0 -44 -15t-16 -35t16 -35t44 -15zM675 270h186q28 0 44 15t16 35t-16 35t-44 15h-186q-28 0 -44 -15t-16 -35t16 -35t44 -15zM163 398h186q28 0 44 15t16 35t-16 35t-44 15h-186q-28 0 -44 -15t-16 -35
t16 -35t44 -15zM675 398h186q28 0 44 15t16 35t-16 35t-44 15h-186q-28 0 -44 -15t-16 -35t16 -35t44 -15zM163 526h186q28 0 44 15t16 35t-16 35t-44 15h-186q-28 0 -44 -15t-16 -35t16 -35t44 -15zM675 526h186q28 0 44 15t16 35t-16 35t-44 15h-186q-28 0 -44 -15
t-16 -35t16 -35t44 -15zM163 782h186q28 0 44 15t16 35t-16 35t-44 15h-186q-28 0 -44 -15t-16 -35t16 -35t44 -15zM675 782h186q28 0 44 15t16 35t-16 35t-44 15h-186q-28 0 -44 -15t-16 -35t16 -35t44 -15z" />
    <glyph glyph-name="yacute" unicode="&#xfd;" 
d="M163 -114h570q28 0 44 15t16 35t-16 35t-44 15h-570q-28 0 -44 -15t-16 -35t16 -35t44 -15zM675 14h186q28 0 44 15t16 35t-16 35t-44 15h-186q-28 0 -44 -15t-16 -35t16 -35t44 -15zM291 142h570q28 0 44 15t16 35t-16 35t-44 15h-570q-28 0 -44 -15t-16 -35t16 -35
t44 -15zM163 270h186q28 0 44 15t16 35t-16 35t-44 15h-186q-28 0 -44 -15t-16 -35t16 -35t44 -15zM675 270h186q28 0 44 15t16 35t-16 35t-44 15h-186q-28 0 -44 -15t-16 -35t16 -35t44 -15zM163 398h186q28 0 44 15t16 35t-16 35t-44 15h-186q-28 0 -44 -15t-16 -35
t16 -35t44 -15zM675 398h186q28 0 44 15t16 35t-16 35t-44 15h-186q-28 0 -44 -15t-16 -35t16 -35t44 -15zM163 526h186q28 0 44 15t16 35t-16 35t-44 15h-186q-28 0 -44 -15t-16 -35t16 -35t44 -15zM675 526h186q28 0 44 15t16 35t-16 35t-44 15h-186q-28 0 -44 -15
t-16 -35t16 -35t44 -15zM419 654h186q28 0 44 15t16 35t-16 35t-44 15h-186q-28 0 -44 -15t-16 -35t16 -35t44 -15zM547 782h186q28 0 44 15t16 35t-16 35t-44 15h-186q-28 0 -44 -15t-16 -35t16 -35t44 -15z" />
    <glyph glyph-name="thorn" unicode="&#xfe;" 
d="M163 -114h186q28 0 44 15t16 35t-16 35t-44 15h-186q-28 0 -44 -15t-16 -35t16 -35t44 -15zM163 14h186q28 0 44 15t16 35t-16 35t-44 15h-186q-28 0 -44 -15t-16 -35t16 -35t44 -15zM163 142h570q28 0 44 15t16 35t-16 35t-44 15h-570q-28 0 -44 -15t-16 -35t16 -35
t44 -15zM163 270h186q28 0 44 15t16 35t-16 35t-44 15h-186q-28 0 -44 -15t-16 -35t16 -35t44 -15zM675 270h186q28 0 44 15t16 35t-16 35t-44 15h-186q-28 0 -44 -15t-16 -35t16 -35t44 -15zM163 398h186q28 0 44 15t16 35t-16 35t-44 15h-186q-28 0 -44 -15t-16 -35
t16 -35t44 -15zM675 398h186q28 0 44 15t16 35t-16 35t-44 15h-186q-28 0 -44 -15t-16 -35t16 -35t44 -15zM163 526h570q28 0 44 15t16 35t-16 35t-44 15h-570q-28 0 -44 -15t-16 -35t16 -35t44 -15zM163 654h186q28 0 44 15t16 35t-16 35t-44 15h-186q-28 0 -44 -15
t-16 -35t16 -35t44 -15z" />
    <glyph glyph-name="ydieresis" unicode="&#xff;" 
d="M163 -114h570q28 0 44 15t16 35t-16 35t-44 15h-570q-28 0 -44 -15t-16 -35t16 -35t44 -15zM675 14h186q28 0 44 15t16 35t-16 35t-44 15h-186q-28 0 -44 -15t-16 -35t16 -35t44 -15zM291 142h570q28 0 44 15t16 35t-16 35t-44 15h-570q-28 0 -44 -15t-16 -35t16 -35
t44 -15zM163 270h186q28 0 44 15t16 35t-16 35t-44 15h-186q-28 0 -44 -15t-16 -35t16 -35t44 -15zM675 270h186q28 0 44 15t16 35t-16 35t-44 15h-186q-28 0 -44 -15t-16 -35t16 -35t44 -15zM163 398h186q28 0 44 15t16 35t-16 35t-44 15h-186q-28 0 -44 -15t-16 -35
t16 -35t44 -15zM675 398h186q28 0 44 15t16 35t-16 35t-44 15h-186q-28 0 -44 -15t-16 -35t16 -35t44 -15zM163 526h186q28 0 44 15t16 35t-16 35t-44 15h-186q-28 0 -44 -15t-16 -35t16 -35t44 -15zM675 526h186q28 0 44 15t16 35t-16 35t-44 15h-186q-28 0 -44 -15
t-16 -35t16 -35t44 -15zM163 782h186q28 0 44 15t16 35t-16 35t-44 15h-186q-28 0 -44 -15t-16 -35t16 -35t44 -15zM675 782h186q28 0 44 15t16 35t-16 35t-44 15h-186q-28 0 -44 -15t-16 -35t16 -35t44 -15z" />
    <glyph glyph-name="dotlessi" unicode="&#x131;" 
d="M291 14h442q28 0 44 15t16 35t-16 35t-44 15h-442q-28 0 -44 -15t-16 -35t16 -35t44 -15zM419 142h186q28 0 44 15t16 35t-16 35t-44 15h-186q-28 0 -44 -15t-16 -35t16 -35t44 -15zM419 270h186q28 0 44 15t16 35t-16 35t-44 15h-186q-28 0 -44 -15t-16 -35t16 -35
t44 -15zM291 398h314q28 0 44 15t16 35t-16 35t-44 15h-314q-28 0 -44 -15t-16 -35t16 -35t44 -15z" />
    <glyph glyph-name="OE" unicode="&#x152;" 
d="M291 14h698q28 0 44 15t16 35t-16 35t-44 15h-698q-28 0 -44 -15t-16 -35t16 -35t44 -15zM163 142h186q28 0 44 15t16 35t-16 35t-44 15h-186q-28 0 -44 -15t-16 -35t16 -35t44 -15zM547 142h186q28 0 44 15t16 35t-16 35t-44 15h-186q-28 0 -44 -15t-16 -35t16 -35
t44 -15zM163 270h186q28 0 44 15t16 35t-16 35t-44 15h-186q-28 0 -44 -15t-16 -35t16 -35t44 -15zM547 270h186q28 0 44 15t16 35t-16 35t-44 15h-186q-28 0 -44 -15t-16 -35t16 -35t44 -15zM163 398h186q28 0 44 15t16 35t-16 35t-44 15h-186q-28 0 -44 -15t-16 -35
t16 -35t44 -15zM547 398h314q28 0 44 15t16 35t-16 35t-44 15h-314q-28 0 -44 -15t-16 -35t16 -35t44 -15zM163 526h186q28 0 44 15t16 35t-16 35t-44 15h-186q-28 0 -44 -15t-16 -35t16 -35t44 -15zM547 526h186q28 0 44 15t16 35t-16 35t-44 15h-186q-28 0 -44 -15
t-16 -35t16 -35t44 -15zM163 654h186q28 0 44 15t16 35t-16 35t-44 15h-186q-28 0 -44 -15t-16 -35t16 -35t44 -15zM547 654h186q28 0 44 15t16 35t-16 35t-44 15h-186q-28 0 -44 -15t-16 -35t16 -35t44 -15zM291 782h698q28 0 44 15t16 35t-16 35t-44 15h-698
q-28 0 -44 -15t-16 -35t16 -35t44 -15z" />
    <glyph glyph-name="oe" unicode="&#x153;" 
d="M291 14h698q28 0 44 15t16 35t-16 35t-44 15h-698q-28 0 -44 -15t-16 -35t16 -35t44 -15zM163 142h186q28 0 44 15t16 35t-16 35t-44 15h-186q-28 0 -44 -15t-16 -35t16 -35t44 -15zM547 142h186q28 0 44 15t16 35t-16 35t-44 15h-186q-28 0 -44 -15t-16 -35t16 -35
t44 -15zM163 270h186q28 0 44 15t16 35t-16 35t-44 15h-186q-28 0 -44 -15t-16 -35t16 -35t44 -15zM547 270h442q28 0 44 15t16 35t-16 35t-44 15h-442q-28 0 -44 -15t-16 -35t16 -35t44 -15zM163 398h186q28 0 44 15t16 35t-16 35t-44 15h-186q-28 0 -44 -15t-16 -35
t16 -35t44 -15zM547 398h186q28 0 44 15t16 35t-16 35t-44 15h-186q-28 0 -44 -15t-16 -35t16 -35t44 -15zM922 398h76q22 0 36.5 15t14.5 35t-14.5 35t-36.5 15h-76q-22 0 -36.5 -15t-14.5 -35t14.5 -35t36.5 -15zM291 526h570q28 0 44 15t16 35t-16 35t-44 15h-570
q-28 0 -44 -15t-16 -35t16 -35t44 -15z" />
    <glyph glyph-name="longs" unicode="&#x17f;" 
d="M419 14h186q28 0 44 15t16 35t-16 35t-44 15h-186q-28 0 -44 -15t-16 -35t16 -35t44 -15zM419 142h186q28 0 44 15t16 35t-16 35t-44 15h-186q-28 0 -44 -15t-16 -35t16 -35t44 -15zM419 270h186q28 0 44 15t16 35t-16 35t-44 15h-186q-28 0 -44 -15t-16 -35t16 -35
t44 -15zM419 398h186q28 0 44 15t16 35t-16 35t-44 15h-186q-28 0 -44 -15t-16 -35t16 -35t44 -15zM419 526h186q28 0 44 15t16 35t-16 35t-44 15h-186q-28 0 -44 -15t-16 -35t16 -35t44 -15zM547 654h314q28 0 44 15t16 35t-16 35t-44 15h-314q-28 0 -44 -15t-16 -35
t16 -35t44 -15z" />
    <glyph glyph-name="florin" unicode="&#x192;" 
d="M163 -114h314q28 0 44 15t16 35t-16 35t-44 15h-314q-28 0 -44 -15t-16 -35t16 -35t44 -15zM419 14h186q28 0 44 15t16 35t-16 35t-44 15h-186q-28 0 -44 -15t-16 -35t16 -35t44 -15zM419 142h186q28 0 44 15t16 35t-16 35t-44 15h-186q-28 0 -44 -15t-16 -35t16 -35
t44 -15zM419 270h186q28 0 44 15t16 35t-16 35t-44 15h-186q-28 0 -44 -15t-16 -35t16 -35t44 -15zM291 398h570q28 0 44 15t16 35t-16 35t-44 15h-570q-28 0 -44 -15t-16 -35t16 -35t44 -15zM419 526h186q28 0 44 15t16 35t-16 35t-44 15h-186q-28 0 -44 -15t-16 -35
t16 -35t44 -15zM547 654h314q28 0 44 15t16 35t-16 35t-44 15h-314q-28 0 -44 -15t-16 -35t16 -35t44 -15z" />
    <glyph glyph-name="circumflex" unicode="&#x2c6;" 
d="M163 654h186q28 0 44 15t16 35t-16 35t-44 15h-186q-28 0 -44 -15t-16 -35t16 -35t44 -15zM675 654h186q28 0 44 15t16 35t-16 35t-44 15h-186q-28 0 -44 -15t-16 -35t16 -35t44 -15zM291 782h442q28 0 44 15t16 35t-16 35t-44 15h-442q-28 0 -44 -15t-16 -35t16 -35
t44 -15z" />
    <glyph glyph-name="dotaccent" unicode="&#x2d9;" 
d="M419 782h186q28 0 44 15t16 35t-16 35t-44 15h-186q-28 0 -44 -15t-16 -35t16 -35t44 -15z" />
    <glyph glyph-name="ring" unicode="&#x2da;" 
d="M291 526h442q28 0 44 15t16 35t-16 35t-44 15h-442q-28 0 -44 -15t-16 -35t16 -35t44 -15zM163 654h186q28 0 44 15t16 35t-16 35t-44 15h-186q-28 0 -44 -15t-16 -35t16 -35t44 -15zM675 654h186q28 0 44 15t16 35t-16 35t-44 15h-186q-28 0 -44 -15t-16 -35t16 -35
t44 -15zM291 782h442q28 0 44 15t16 35t-16 35t-44 15h-442q-28 0 -44 -15t-16 -35t16 -35t44 -15z" />
    <glyph glyph-name="tilde" unicode="&#x2dc;" 
d="M163 654h186q28 0 44 15t16 35t-16 35t-44 15h-186q-28 0 -44 -15t-16 -35t16 -35t44 -15zM547 654h314q28 0 44 15t16 35t-16 35t-44 15h-314q-28 0 -44 -15t-16 -35t16 -35t44 -15zM291 782h314q28 0 44 15t16 35t-16 35t-44 15h-314q-28 0 -44 -15t-16 -35t16 -35
t44 -15zM803 782h186q28 0 44 15t16 35t-16 35t-44 15h-186q-28 0 -44 -15t-16 -35t16 -35t44 -15z" />
    <glyph glyph-name="uni0394" unicode="&#x394;" 
d="M163 14h826q28 0 44 15t16 35t-16 35t-44 15h-826q-28 0 -44 -15t-16 -35t16 -35t44 -15zM163 142h186q28 0 44 15t16 35t-16 35t-44 15h-186q-28 0 -44 -15t-16 -35t16 -35t44 -15zM803 142h186q28 0 44 15t16 35t-16 35t-44 15h-186q-28 0 -44 -15t-16 -35t16 -35
t44 -15zM163 270h186q28 0 44 15t16 35t-16 35t-44 15h-186q-28 0 -44 -15t-16 -35t16 -35t44 -15zM803 270h186q28 0 44 15t16 35t-16 35t-44 15h-186q-28 0 -44 -15t-16 -35t16 -35t44 -15zM291 398h186q28 0 44 15t16 35t-16 35t-44 15h-186q-28 0 -44 -15t-16 -35
t16 -35t44 -15zM675 398h186q28 0 44 15t16 35t-16 35t-44 15h-186q-28 0 -44 -15t-16 -35t16 -35t44 -15zM291 526h186q28 0 44 15t16 35t-16 35t-44 15h-186q-28 0 -44 -15t-16 -35t16 -35t44 -15zM675 526h186q28 0 44 15t16 35t-16 35t-44 15h-186q-28 0 -44 -15
t-16 -35t16 -35t44 -15zM419 654h314q28 0 44 15t16 35t-16 35t-44 15h-314q-28 0 -44 -15t-16 -35t16 -35t44 -15zM419 782h314q28 0 44 15t16 35t-16 35t-44 15h-314q-28 0 -44 -15t-16 -35t16 -35t44 -15z" />
    <glyph glyph-name="uni03A9" unicode="&#x3a9;" 
d="M163 14h314q28 0 44 15t16 35t-16 35t-44 15h-314q-28 0 -44 -15t-16 -35t16 -35t44 -15zM675 14h314q28 0 44 15t16 35t-16 35t-44 15h-314q-28 0 -44 -15t-16 -35t16 -35t44 -15zM291 142h186q28 0 44 15t16 35t-16 35t-44 15h-186q-28 0 -44 -15t-16 -35t16 -35
t44 -15zM675 142h186q28 0 44 15t16 35t-16 35t-44 15h-186q-28 0 -44 -15t-16 -35t16 -35t44 -15zM163 270h186q28 0 44 15t16 35t-16 35t-44 15h-186q-28 0 -44 -15t-16 -35t16 -35t44 -15zM803 270h186q28 0 44 15t16 35t-16 35t-44 15h-186q-28 0 -44 -15t-16 -35
t16 -35t44 -15zM163 398h186q28 0 44 15t16 35t-16 35t-44 15h-186q-28 0 -44 -15t-16 -35t16 -35t44 -15zM803 398h186q28 0 44 15t16 35t-16 35t-44 15h-186q-28 0 -44 -15t-16 -35t16 -35t44 -15zM163 526h186q28 0 44 15t16 35t-16 35t-44 15h-186q-28 0 -44 -15
t-16 -35t16 -35t44 -15zM803 526h186q28 0 44 15t16 35t-16 35t-44 15h-186q-28 0 -44 -15t-16 -35t16 -35t44 -15zM163 654h186q28 0 44 15t16 35t-16 35t-44 15h-186q-28 0 -44 -15t-16 -35t16 -35t44 -15zM803 654h186q28 0 44 15t16 35t-16 35t-44 15h-186
q-28 0 -44 -15t-16 -35t16 -35t44 -15zM291 782h570q28 0 44 15t16 35t-16 35t-44 15h-570q-28 0 -44 -15t-16 -35t16 -35t44 -15z" />
    <glyph glyph-name="uni03BC" unicode="&#x3bc;" 
d="M163 -114h186q28 0 44 15t16 35t-16 35t-44 15h-186q-28 0 -44 -15t-16 -35t16 -35t44 -15zM163 14h698q28 0 44 15t16 35t-16 35t-44 15h-698q-28 0 -44 -15t-16 -35t16 -35t44 -15zM163 142h186q28 0 44 15t16 35t-16 35t-44 15h-186q-28 0 -44 -15t-16 -35t16 -35
t44 -15zM675 142h186q28 0 44 15t16 35t-16 35t-44 15h-186q-28 0 -44 -15t-16 -35t16 -35t44 -15zM163 270h186q28 0 44 15t16 35t-16 35t-44 15h-186q-28 0 -44 -15t-16 -35t16 -35t44 -15zM675 270h186q28 0 44 15t16 35t-16 35t-44 15h-186q-28 0 -44 -15t-16 -35
t16 -35t44 -15zM163 398h186q28 0 44 15t16 35t-16 35t-44 15h-186q-28 0 -44 -15t-16 -35t16 -35t44 -15zM675 398h186q28 0 44 15t16 35t-16 35t-44 15h-186q-28 0 -44 -15t-16 -35t16 -35t44 -15zM163 526h186q28 0 44 15t16 35t-16 35t-44 15h-186q-28 0 -44 -15
t-16 -35t16 -35t44 -15zM675 526h186q28 0 44 15t16 35t-16 35t-44 15h-186q-28 0 -44 -15t-16 -35t16 -35t44 -15z" />
    <glyph glyph-name="pi" unicode="&#x3c0;" 
d="M291 14h186q28 0 44 15t16 35t-16 35t-44 15h-186q-28 0 -44 -15t-16 -35t16 -35t44 -15zM675 14h186q28 0 44 15t16 35t-16 35t-44 15h-186q-28 0 -44 -15t-16 -35t16 -35t44 -15zM291 142h186q28 0 44 15t16 35t-16 35t-44 15h-186q-28 0 -44 -15t-16 -35t16 -35
t44 -15zM675 142h186q28 0 44 15t16 35t-16 35t-44 15h-186q-28 0 -44 -15t-16 -35t16 -35t44 -15zM163 270h314q28 0 44 15t16 35t-16 35t-44 15h-314q-28 0 -44 -15t-16 -35t16 -35t44 -15zM675 270h186q28 0 44 15t16 35t-16 35t-44 15h-186q-28 0 -44 -15t-16 -35
t16 -35t44 -15zM291 398h570q28 0 44 15t16 35t-16 35t-44 15h-570q-28 0 -44 -15t-16 -35t16 -35t44 -15zM803 526h186q28 0 44 15t16 35t-16 35t-44 15h-186q-28 0 -44 -15t-16 -35t16 -35t44 -15z" />
    <glyph glyph-name="endash" unicode="&#x2013;" 
d="M163 398h698q28 0 44 15t16 35t-16 35t-44 15h-698q-28 0 -44 -15t-16 -35t16 -35t44 -15z" />
    <glyph glyph-name="emdash" unicode="&#x2014;" 
d="M163 398h698q28 0 44 15t16 35t-16 35t-44 15h-698q-28 0 -44 -15t-16 -35t16 -35t44 -15z" />
    <glyph glyph-name="quoteleft" unicode="&#x2018;" 
d="M291 526h186q28 0 44 15t16 35t-16 35t-44 15h-186q-28 0 -44 -15t-16 -35t16 -35t44 -15zM291 654h186q28 0 44 15t16 35t-16 35t-44 15h-186q-28 0 -44 -15t-16 -35t16 -35t44 -15zM419 782h186q28 0 44 15t16 35t-16 35t-44 15h-186q-28 0 -44 -15t-16 -35t16 -35
t44 -15z" />
    <glyph glyph-name="quoteright" unicode="&#x2019;" 
d="M291 526h186q28 0 44 15t16 35t-16 35t-44 15h-186q-28 0 -44 -15t-16 -35t16 -35t44 -15zM419 654h186q28 0 44 15t16 35t-16 35t-44 15h-186q-28 0 -44 -15t-16 -35t16 -35t44 -15zM419 782h186q28 0 44 15t16 35t-16 35t-44 15h-186q-28 0 -44 -15t-16 -35t16 -35
t44 -15z" />
    <glyph glyph-name="quotesinglbase" unicode="&#x201a;" 
d="M291 -114h186q28 0 44 15t16 35t-16 35t-44 15h-186q-28 0 -44 -15t-16 -35t16 -35t44 -15zM419 14h186q28 0 44 15t16 35t-16 35t-44 15h-186q-28 0 -44 -15t-16 -35t16 -35t44 -15zM419 142h186q28 0 44 15t16 35t-16 35t-44 15h-186q-28 0 -44 -15t-16 -35t16 -35
t44 -15z" />
    <glyph glyph-name="quotedblleft" unicode="&#x201c;" 
d="M163 526h186q28 0 44 15t16 35t-16 35t-44 15h-186q-28 0 -44 -15t-16 -35t16 -35t44 -15zM675 526h186q28 0 44 15t16 35t-16 35t-44 15h-186q-28 0 -44 -15t-16 -35t16 -35t44 -15zM163 654h186q28 0 44 15t16 35t-16 35t-44 15h-186q-28 0 -44 -15t-16 -35t16 -35
t44 -15zM675 654h186q28 0 44 15t16 35t-16 35t-44 15h-186q-28 0 -44 -15t-16 -35t16 -35t44 -15zM291 782h186q28 0 44 15t16 35t-16 35t-44 15h-186q-28 0 -44 -15t-16 -35t16 -35t44 -15zM803 782h186q28 0 44 15t16 35t-16 35t-44 15h-186q-28 0 -44 -15t-16 -35
t16 -35t44 -15z" />
    <glyph glyph-name="quotedblright" unicode="&#x201d;" 
d="M35 526h186q28 0 44 15t16 35t-16 35t-44 15h-186q-28 0 -44 -15t-16 -35t16 -35t44 -15zM547 526h186q28 0 44 15t16 35t-16 35t-44 15h-186q-28 0 -44 -15t-16 -35t16 -35t44 -15zM163 654h186q28 0 44 15t16 35t-16 35t-44 15h-186q-28 0 -44 -15t-16 -35t16 -35
t44 -15zM675 654h186q28 0 44 15t16 35t-16 35t-44 15h-186q-28 0 -44 -15t-16 -35t16 -35t44 -15zM163 782h186q28 0 44 15t16 35t-16 35t-44 15h-186q-28 0 -44 -15t-16 -35t16 -35t44 -15zM675 782h186q28 0 44 15t16 35t-16 35t-44 15h-186q-28 0 -44 -15t-16 -35
t16 -35t44 -15z" />
    <glyph glyph-name="quotedblbase" unicode="&#x201e;" 
d="M35 -114h186q28 0 44 15t16 35t-16 35t-44 15h-186q-28 0 -44 -15t-16 -35t16 -35t44 -15zM547 -114h186q28 0 44 15t16 35t-16 35t-44 15h-186q-28 0 -44 -15t-16 -35t16 -35t44 -15zM163 14h186q28 0 44 15t16 35t-16 35t-44 15h-186q-28 0 -44 -15t-16 -35t16 -35
t44 -15zM675 14h186q28 0 44 15t16 35t-16 35t-44 15h-186q-28 0 -44 -15t-16 -35t16 -35t44 -15zM163 142h186q28 0 44 15t16 35t-16 35t-44 15h-186q-28 0 -44 -15t-16 -35t16 -35t44 -15zM675 142h186q28 0 44 15t16 35t-16 35t-44 15h-186q-28 0 -44 -15t-16 -35t16 -35
t44 -15z" />
    <glyph glyph-name="dagger" unicode="&#x2020;" 
d="M419 -114h186q28 0 44 15t16 35t-16 35t-44 15h-186q-28 0 -44 -15t-16 -35t16 -35t44 -15zM419 14h186q28 0 44 15t16 35t-16 35t-44 15h-186q-28 0 -44 -15t-16 -35t16 -35t44 -15zM419 142h186q28 0 44 15t16 35t-16 35t-44 15h-186q-28 0 -44 -15t-16 -35t16 -35
t44 -15zM419 270h186q28 0 44 15t16 35t-16 35t-44 15h-186q-28 0 -44 -15t-16 -35t16 -35t44 -15zM419 398h186q28 0 44 15t16 35t-16 35t-44 15h-186q-28 0 -44 -15t-16 -35t16 -35t44 -15zM163 526h698q28 0 44 15t16 35t-16 35t-44 15h-698q-28 0 -44 -15t-16 -35
t16 -35t44 -15zM419 654h186q28 0 44 15t16 35t-16 35t-44 15h-186q-28 0 -44 -15t-16 -35t16 -35t44 -15zM419 782h186q28 0 44 15t16 35t-16 35t-44 15h-186q-28 0 -44 -15t-16 -35t16 -35t44 -15z" />
    <glyph glyph-name="daggerdbl" unicode="&#x2021;" 
d="M419 -114h186q28 0 44 15t16 35t-16 35t-44 15h-186q-28 0 -44 -15t-16 -35t16 -35t44 -15zM419 14h186q28 0 44 15t16 35t-16 35t-44 15h-186q-28 0 -44 -15t-16 -35t16 -35t44 -15zM163 142h698q28 0 44 15t16 35t-16 35t-44 15h-698q-28 0 -44 -15t-16 -35t16 -35
t44 -15zM419 270h186q28 0 44 15t16 35t-16 35t-44 15h-186q-28 0 -44 -15t-16 -35t16 -35t44 -15zM419 398h186q28 0 44 15t16 35t-16 35t-44 15h-186q-28 0 -44 -15t-16 -35t16 -35t44 -15zM163 526h698q28 0 44 15t16 35t-16 35t-44 15h-698q-28 0 -44 -15t-16 -35
t16 -35t44 -15zM419 654h186q28 0 44 15t16 35t-16 35t-44 15h-186q-28 0 -44 -15t-16 -35t16 -35t44 -15zM419 782h186q28 0 44 15t16 35t-16 35t-44 15h-186q-28 0 -44 -15t-16 -35t16 -35t44 -15z" />
    <glyph glyph-name="bullet" unicode="&#x2022;" 
d="M419 142h186q28 0 44 15t16 35t-16 35t-44 15h-186q-28 0 -44 -15t-16 -35t16 -35t44 -15zM291 270h442q28 0 44 15t16 35t-16 35t-44 15h-442q-28 0 -44 -15t-16 -35t16 -35t44 -15zM291 398h442q28 0 44 15t16 35t-16 35t-44 15h-442q-28 0 -44 -15t-16 -35t16 -35
t44 -15zM419 526h186q28 0 44 15t16 35t-16 35t-44 15h-186q-28 0 -44 -15t-16 -35t16 -35t44 -15z" />
    <glyph glyph-name="ellipsis" unicode="&#x2026;" 
d="M282 14h76q22 0 36.5 15t14.5 35t-14.5 35t-36.5 15h-76q-22 0 -36.5 -15t-14.5 -35t14.5 -35t36.5 -15zM538 14h76q22 0 36.5 15t14.5 35t-14.5 35t-36.5 15h-76q-22 0 -36.5 -15t-14.5 -35t14.5 -35t36.5 -15zM794 14h76q22 0 36.5 15t14.5 35t-14.5 35t-36.5 15h-76
q-22 0 -36.5 -15t-14.5 -35t14.5 -35t36.5 -15zM282 142h76q22 0 36.5 15t14.5 35t-14.5 35t-36.5 15h-76q-22 0 -36.5 -15t-14.5 -35t14.5 -35t36.5 -15zM538 142h76q22 0 36.5 15t14.5 35t-14.5 35t-36.5 15h-76q-22 0 -36.5 -15t-14.5 -35t14.5 -35t36.5 -15zM794 142h76
q22 0 36.5 15t14.5 35t-14.5 35t-36.5 15h-76q-22 0 -36.5 -15t-14.5 -35t14.5 -35t36.5 -15z" />
    <glyph glyph-name="perthousand" unicode="&#x2030;" 
d="M538 14h76q22 0 36.5 15t14.5 35t-14.5 35t-36.5 15h-76q-22 0 -36.5 -15t-14.5 -35t14.5 -35t36.5 -15zM794 14h76q22 0 36.5 15t14.5 35t-14.5 35t-36.5 15h-76q-22 0 -36.5 -15t-14.5 -35t14.5 -35t36.5 -15zM154 142h76q22 0 36.5 15t14.5 35t-14.5 35t-36.5 15h-76
q-22 0 -36.5 -15t-14.5 -35t14.5 -35t36.5 -15zM538 142h76q22 0 36.5 15t14.5 35t-14.5 35t-36.5 15h-76q-22 0 -36.5 -15t-14.5 -35t14.5 -35t36.5 -15zM794 142h76q22 0 36.5 15t14.5 35t-14.5 35t-36.5 15h-76q-22 0 -36.5 -15t-14.5 -35t14.5 -35t36.5 -15zM163 270
h186q28 0 44 15t16 35t-16 35t-44 15h-186q-28 0 -44 -15t-16 -35t16 -35t44 -15zM291 398h186q28 0 44 15t16 35t-16 35t-44 15h-186q-28 0 -44 -15t-16 -35t16 -35t44 -15zM419 526h186q28 0 44 15t16 35t-16 35t-44 15h-186q-28 0 -44 -15t-16 -35t16 -35t44 -15z
M154 654h76q22 0 36.5 15t14.5 35t-14.5 35t-36.5 15h-76q-22 0 -36.5 -15t-14.5 -35t14.5 -35t36.5 -15zM547 654h186q28 0 44 15t16 35t-16 35t-44 15h-186q-28 0 -44 -15t-16 -35t16 -35t44 -15zM154 782h76q22 0 36.5 15t14.5 35t-14.5 35t-36.5 15h-76q-22 0 -36.5 -15
t-14.5 -35t14.5 -35t36.5 -15zM666 782h76q22 0 36.5 15t14.5 35t-14.5 35t-36.5 15h-76q-22 0 -36.5 -15t-14.5 -35t14.5 -35t36.5 -15z" />
    <glyph glyph-name="minute" unicode="&#x2032;" 
d="M419 526h186q28 0 44 15t16 35t-16 35t-44 15h-186q-28 0 -44 -15t-16 -35t16 -35t44 -15zM419 654h186q28 0 44 15t16 35t-16 35t-44 15h-186q-28 0 -44 -15t-16 -35t16 -35t44 -15zM419 782h186q28 0 44 15t16 35t-16 35t-44 15h-186q-28 0 -44 -15t-16 -35t16 -35
t44 -15z" />
    <glyph glyph-name="second" unicode="&#x2033;" 
d="M163 526h186q28 0 44 15t16 35t-16 35t-44 15h-186q-28 0 -44 -15t-16 -35t16 -35t44 -15zM675 526h186q28 0 44 15t16 35t-16 35t-44 15h-186q-28 0 -44 -15t-16 -35t16 -35t44 -15zM163 654h186q28 0 44 15t16 35t-16 35t-44 15h-186q-28 0 -44 -15t-16 -35t16 -35
t44 -15zM675 654h186q28 0 44 15t16 35t-16 35t-44 15h-186q-28 0 -44 -15t-16 -35t16 -35t44 -15zM163 782h186q28 0 44 15t16 35t-16 35t-44 15h-186q-28 0 -44 -15t-16 -35t16 -35t44 -15zM675 782h186q28 0 44 15t16 35t-16 35t-44 15h-186q-28 0 -44 -15t-16 -35
t16 -35t44 -15z" />
    <glyph glyph-name="guilsinglleft" unicode="&#x2039;" 
d="M538 14h76q22 0 36.5 15t14.5 35t-14.5 35t-36.5 15h-76q-22 0 -36.5 -15t-14.5 -35t14.5 -35t36.5 -15zM419 142h186q28 0 44 15t16 35t-16 35t-44 15h-186q-28 0 -44 -15t-16 -35t16 -35t44 -15zM291 270h186q28 0 44 15t16 35t-16 35t-44 15h-186q-28 0 -44 -15
t-16 -35t16 -35t44 -15zM419 398h186q28 0 44 15t16 35t-16 35t-44 15h-186q-28 0 -44 -15t-16 -35t16 -35t44 -15zM538 526h76q22 0 36.5 15t14.5 35t-14.5 35t-36.5 15h-76q-22 0 -36.5 -15t-14.5 -35t14.5 -35t36.5 -15z" />
    <glyph glyph-name="guilsinglright" unicode="&#x203a;" 
d="M410 14h76q22 0 36.5 15t14.5 35t-14.5 35t-36.5 15h-76q-22 0 -36.5 -15t-14.5 -35t14.5 -35t36.5 -15zM419 142h186q28 0 44 15t16 35t-16 35t-44 15h-186q-28 0 -44 -15t-16 -35t16 -35t44 -15zM547 270h186q28 0 44 15t16 35t-16 35t-44 15h-186q-28 0 -44 -15
t-16 -35t16 -35t44 -15zM419 398h186q28 0 44 15t16 35t-16 35t-44 15h-186q-28 0 -44 -15t-16 -35t16 -35t44 -15zM410 526h76q22 0 36.5 15t14.5 35t-14.5 35t-36.5 15h-76q-22 0 -36.5 -15t-14.5 -35t14.5 -35t36.5 -15z" />
    <glyph glyph-name="fraction" unicode="&#x2044;" 
d="M163 14h186q28 0 44 15t16 35t-16 35t-44 15h-186q-28 0 -44 -15t-16 -35t16 -35t44 -15zM291 142h186q28 0 44 15t16 35t-16 35t-44 15h-186q-28 0 -44 -15t-16 -35t16 -35t44 -15zM419 270h186q28 0 44 15t16 35t-16 35t-44 15h-186q-28 0 -44 -15t-16 -35t16 -35
t44 -15zM547 398h186q28 0 44 15t16 35t-16 35t-44 15h-186q-28 0 -44 -15t-16 -35t16 -35t44 -15zM675 526h186q28 0 44 15t16 35t-16 35t-44 15h-186q-28 0 -44 -15t-16 -35t16 -35t44 -15zM803 654h186q28 0 44 15t16 35t-16 35t-44 15h-186q-28 0 -44 -15t-16 -35
t16 -35t44 -15z" />
    <glyph glyph-name="uni2074" unicode="&#x2074;" 
d="M547 270h186q28 0 44 15t16 35t-16 35t-44 15h-186q-28 0 -44 -15t-16 -35t16 -35t44 -15zM291 398h442q28 0 44 15t16 35t-16 35t-44 15h-442q-28 0 -44 -15t-16 -35t16 -35t44 -15zM282 526h76q22 0 36.5 15t14.5 35t-14.5 35t-36.5 15h-76q-22 0 -36.5 -15t-14.5 -35
t14.5 -35t36.5 -15zM547 526h186q28 0 44 15t16 35t-16 35t-44 15h-186q-28 0 -44 -15t-16 -35t16 -35t44 -15zM419 654h314q28 0 44 15t16 35t-16 35t-44 15h-314q-28 0 -44 -15t-16 -35t16 -35t44 -15zM547 782h186q28 0 44 15t16 35t-16 35t-44 15h-186q-28 0 -44 -15
t-16 -35t16 -35t44 -15z" />
    <glyph glyph-name="Euro" unicode="&#x20ac;" 
d="M291 14h442q28 0 44 15t16 35t-16 35t-44 15h-442q-28 0 -44 -15t-16 -35t16 -35t44 -15zM163 142h186q28 0 44 15t16 35t-16 35t-44 15h-186q-28 0 -44 -15t-16 -35t16 -35t44 -15zM675 142h186q28 0 44 15t16 35t-16 35t-44 15h-186q-28 0 -44 -15t-16 -35t16 -35
t44 -15zM163 270h314q28 0 44 15t16 35t-16 35t-44 15h-314q-28 0 -44 -15t-16 -35t16 -35t44 -15zM163 398h186q28 0 44 15t16 35t-16 35t-44 15h-186q-28 0 -44 -15t-16 -35t16 -35t44 -15zM163 526h314q28 0 44 15t16 35t-16 35t-44 15h-314q-28 0 -44 -15t-16 -35
t16 -35t44 -15zM163 654h186q28 0 44 15t16 35t-16 35t-44 15h-186q-28 0 -44 -15t-16 -35t16 -35t44 -15zM675 654h186q28 0 44 15t16 35t-16 35t-44 15h-186q-28 0 -44 -15t-16 -35t16 -35t44 -15zM291 782h442q28 0 44 15t16 35t-16 35t-44 15h-442q-28 0 -44 -15
t-16 -35t16 -35t44 -15z" />
    <glyph glyph-name="trademark" unicode="&#x2122;" 
d="M282 526h76q22 0 36.5 15t14.5 35t-14.5 35t-36.5 15h-76q-22 0 -36.5 -15t-14.5 -35t14.5 -35t36.5 -15zM538 526h76q22 0 36.5 15t14.5 35t-14.5 35t-36.5 15h-76q-22 0 -36.5 -15t-14.5 -35t14.5 -35t36.5 -15zM922 526h76q22 0 36.5 15t14.5 35t-14.5 35t-36.5 15
h-76q-22 0 -36.5 -15t-14.5 -35t14.5 -35t36.5 -15zM282 654h76q22 0 36.5 15t14.5 35t-14.5 35t-36.5 15h-76q-22 0 -36.5 -15t-14.5 -35t14.5 -35t36.5 -15zM547 654h442q28 0 44 15t16 35t-16 35t-44 15h-442q-28 0 -44 -15t-16 -35t16 -35t44 -15zM163 782h826
q28 0 44 15t16 35t-16 35t-44 15h-826q-28 0 -44 -15t-16 -35t16 -35t44 -15z" />
    <glyph glyph-name="uni2126" unicode="&#x2126;" 
d="M163 14h314q28 0 44 15t16 35t-16 35t-44 15h-314q-28 0 -44 -15t-16 -35t16 -35t44 -15zM675 14h314q28 0 44 15t16 35t-16 35t-44 15h-314q-28 0 -44 -15t-16 -35t16 -35t44 -15zM291 142h186q28 0 44 15t16 35t-16 35t-44 15h-186q-28 0 -44 -15t-16 -35t16 -35
t44 -15zM675 142h186q28 0 44 15t16 35t-16 35t-44 15h-186q-28 0 -44 -15t-16 -35t16 -35t44 -15zM163 270h186q28 0 44 15t16 35t-16 35t-44 15h-186q-28 0 -44 -15t-16 -35t16 -35t44 -15zM803 270h186q28 0 44 15t16 35t-16 35t-44 15h-186q-28 0 -44 -15t-16 -35
t16 -35t44 -15zM163 398h186q28 0 44 15t16 35t-16 35t-44 15h-186q-28 0 -44 -15t-16 -35t16 -35t44 -15zM803 398h186q28 0 44 15t16 35t-16 35t-44 15h-186q-28 0 -44 -15t-16 -35t16 -35t44 -15zM163 526h186q28 0 44 15t16 35t-16 35t-44 15h-186q-28 0 -44 -15
t-16 -35t16 -35t44 -15zM803 526h186q28 0 44 15t16 35t-16 35t-44 15h-186q-28 0 -44 -15t-16 -35t16 -35t44 -15zM163 654h186q28 0 44 15t16 35t-16 35t-44 15h-186q-28 0 -44 -15t-16 -35t16 -35t44 -15zM803 654h186q28 0 44 15t16 35t-16 35t-44 15h-186
q-28 0 -44 -15t-16 -35t16 -35t44 -15zM291 782h570q28 0 44 15t16 35t-16 35t-44 15h-570q-28 0 -44 -15t-16 -35t16 -35t44 -15z" />
    <glyph glyph-name="arrowleft" unicode="&#x2190;" 
d="M410 14h76q22 0 36.5 15t14.5 35t-14.5 35t-36.5 15h-76q-22 0 -36.5 -15t-14.5 -35t14.5 -35t36.5 -15zM291 142h186q28 0 44 15t16 35t-16 35t-44 15h-186q-28 0 -44 -15t-16 -35t16 -35t44 -15zM163 270h826q28 0 44 15t16 35t-16 35t-44 15h-826q-28 0 -44 -15
t-16 -35t16 -35t44 -15zM163 398h826q28 0 44 15t16 35t-16 35t-44 15h-826q-28 0 -44 -15t-16 -35t16 -35t44 -15zM291 526h186q28 0 44 15t16 35t-16 35t-44 15h-186q-28 0 -44 -15t-16 -35t16 -35t44 -15zM410 654h76q22 0 36.5 15t14.5 35t-14.5 35t-36.5 15h-76
q-22 0 -36.5 -15t-14.5 -35t14.5 -35t36.5 -15z" />
    <glyph glyph-name="arrowup" unicode="&#x2191;" 
d="M419 -114h186q28 0 44 15t16 35t-16 35t-44 15h-186q-28 0 -44 -15t-16 -35t16 -35t44 -15zM419 14h186q28 0 44 15t16 35t-16 35t-44 15h-186q-28 0 -44 -15t-16 -35t16 -35t44 -15zM419 142h186q28 0 44 15t16 35t-16 35t-44 15h-186q-28 0 -44 -15t-16 -35t16 -35
t44 -15zM419 270h186q28 0 44 15t16 35t-16 35t-44 15h-186q-28 0 -44 -15t-16 -35t16 -35t44 -15zM163 398h698q28 0 44 15t16 35t-16 35t-44 15h-698q-28 0 -44 -15t-16 -35t16 -35t44 -15zM291 526h442q28 0 44 15t16 35t-16 35t-44 15h-442q-28 0 -44 -15t-16 -35
t16 -35t44 -15zM419 654h186q28 0 44 15t16 35t-16 35t-44 15h-186q-28 0 -44 -15t-16 -35t16 -35t44 -15z" />
    <glyph glyph-name="arrowright" unicode="&#x2192;" 
d="M666 14h76q22 0 36.5 15t14.5 35t-14.5 35t-36.5 15h-76q-22 0 -36.5 -15t-14.5 -35t14.5 -35t36.5 -15zM675 142h186q28 0 44 15t16 35t-16 35t-44 15h-186q-28 0 -44 -15t-16 -35t16 -35t44 -15zM163 270h826q28 0 44 15t16 35t-16 35t-44 15h-826q-28 0 -44 -15
t-16 -35t16 -35t44 -15zM163 398h826q28 0 44 15t16 35t-16 35t-44 15h-826q-28 0 -44 -15t-16 -35t16 -35t44 -15zM675 526h186q28 0 44 15t16 35t-16 35t-44 15h-186q-28 0 -44 -15t-16 -35t16 -35t44 -15zM666 654h76q22 0 36.5 15t14.5 35t-14.5 35t-36.5 15h-76
q-22 0 -36.5 -15t-14.5 -35t14.5 -35t36.5 -15z" />
    <glyph glyph-name="arrowdown" unicode="&#x2193;" 
d="M419 -114h186q28 0 44 15t16 35t-16 35t-44 15h-186q-28 0 -44 -15t-16 -35t16 -35t44 -15zM291 14h442q28 0 44 15t16 35t-16 35t-44 15h-442q-28 0 -44 -15t-16 -35t16 -35t44 -15zM163 142h698q28 0 44 15t16 35t-16 35t-44 15h-698q-28 0 -44 -15t-16 -35t16 -35
t44 -15zM419 270h186q28 0 44 15t16 35t-16 35t-44 15h-186q-28 0 -44 -15t-16 -35t16 -35t44 -15zM419 398h186q28 0 44 15t16 35t-16 35t-44 15h-186q-28 0 -44 -15t-16 -35t16 -35t44 -15zM419 526h186q28 0 44 15t16 35t-16 35t-44 15h-186q-28 0 -44 -15t-16 -35
t16 -35t44 -15zM419 654h186q28 0 44 15t16 35t-16 35t-44 15h-186q-28 0 -44 -15t-16 -35t16 -35t44 -15z" />
    <glyph glyph-name="partialdiff" unicode="&#x2202;" 
d="M291 14h442q28 0 44 15t16 35t-16 35t-44 15h-442q-28 0 -44 -15t-16 -35t16 -35t44 -15zM163 142h186q28 0 44 15t16 35t-16 35t-44 15h-186q-28 0 -44 -15t-16 -35t16 -35t44 -15zM675 142h186q28 0 44 15t16 35t-16 35t-44 15h-186q-28 0 -44 -15t-16 -35t16 -35
t44 -15zM163 270h186q28 0 44 15t16 35t-16 35t-44 15h-186q-28 0 -44 -15t-16 -35t16 -35t44 -15zM675 270h186q28 0 44 15t16 35t-16 35t-44 15h-186q-28 0 -44 -15t-16 -35t16 -35t44 -15zM291 398h570q28 0 44 15t16 35t-16 35t-44 15h-570q-28 0 -44 -15t-16 -35
t16 -35t44 -15zM675 526h186q28 0 44 15t16 35t-16 35t-44 15h-186q-28 0 -44 -15t-16 -35t16 -35t44 -15zM291 654h442q28 0 44 15t16 35t-16 35t-44 15h-442q-28 0 -44 -15t-16 -35t16 -35t44 -15z" />
    <glyph glyph-name="uni2206" unicode="&#x2206;" 
d="M163 14h826q28 0 44 15t16 35t-16 35t-44 15h-826q-28 0 -44 -15t-16 -35t16 -35t44 -15zM163 142h186q28 0 44 15t16 35t-16 35t-44 15h-186q-28 0 -44 -15t-16 -35t16 -35t44 -15zM803 142h186q28 0 44 15t16 35t-16 35t-44 15h-186q-28 0 -44 -15t-16 -35t16 -35
t44 -15zM163 270h186q28 0 44 15t16 35t-16 35t-44 15h-186q-28 0 -44 -15t-16 -35t16 -35t44 -15zM803 270h186q28 0 44 15t16 35t-16 35t-44 15h-186q-28 0 -44 -15t-16 -35t16 -35t44 -15zM291 398h186q28 0 44 15t16 35t-16 35t-44 15h-186q-28 0 -44 -15t-16 -35
t16 -35t44 -15zM675 398h186q28 0 44 15t16 35t-16 35t-44 15h-186q-28 0 -44 -15t-16 -35t16 -35t44 -15zM291 526h186q28 0 44 15t16 35t-16 35t-44 15h-186q-28 0 -44 -15t-16 -35t16 -35t44 -15zM675 526h186q28 0 44 15t16 35t-16 35t-44 15h-186q-28 0 -44 -15
t-16 -35t16 -35t44 -15zM419 654h314q28 0 44 15t16 35t-16 35t-44 15h-314q-28 0 -44 -15t-16 -35t16 -35t44 -15zM419 782h314q28 0 44 15t16 35t-16 35t-44 15h-314q-28 0 -44 -15t-16 -35t16 -35t44 -15z" />
    <glyph glyph-name="product" unicode="&#x220f;" 
d="M163 -114h186q28 0 44 15t16 35t-16 35t-44 15h-186q-28 0 -44 -15t-16 -35t16 -35t44 -15zM675 -114h186q28 0 44 15t16 35t-16 35t-44 15h-186q-28 0 -44 -15t-16 -35t16 -35t44 -15zM163 14h186q28 0 44 15t16 35t-16 35t-44 15h-186q-28 0 -44 -15t-16 -35t16 -35
t44 -15zM675 14h186q28 0 44 15t16 35t-16 35t-44 15h-186q-28 0 -44 -15t-16 -35t16 -35t44 -15zM163 142h186q28 0 44 15t16 35t-16 35t-44 15h-186q-28 0 -44 -15t-16 -35t16 -35t44 -15zM675 142h186q28 0 44 15t16 35t-16 35t-44 15h-186q-28 0 -44 -15t-16 -35t16 -35
t44 -15zM163 270h186q28 0 44 15t16 35t-16 35t-44 15h-186q-28 0 -44 -15t-16 -35t16 -35t44 -15zM675 270h186q28 0 44 15t16 35t-16 35t-44 15h-186q-28 0 -44 -15t-16 -35t16 -35t44 -15zM163 398h186q28 0 44 15t16 35t-16 35t-44 15h-186q-28 0 -44 -15t-16 -35
t16 -35t44 -15zM675 398h186q28 0 44 15t16 35t-16 35t-44 15h-186q-28 0 -44 -15t-16 -35t16 -35t44 -15zM163 526h186q28 0 44 15t16 35t-16 35t-44 15h-186q-28 0 -44 -15t-16 -35t16 -35t44 -15zM675 526h186q28 0 44 15t16 35t-16 35t-44 15h-186q-28 0 -44 -15
t-16 -35t16 -35t44 -15zM163 654h186q28 0 44 15t16 35t-16 35t-44 15h-186q-28 0 -44 -15t-16 -35t16 -35t44 -15zM675 654h186q28 0 44 15t16 35t-16 35t-44 15h-186q-28 0 -44 -15t-16 -35t16 -35t44 -15zM163 782h698q28 0 44 15t16 35t-16 35t-44 15h-698
q-28 0 -44 -15t-16 -35t16 -35t44 -15z" />
    <glyph glyph-name="summation" unicode="&#x2211;" 
d="M163 -114h698q28 0 44 15t16 35t-16 35t-44 15h-698q-28 0 -44 -15t-16 -35t16 -35t44 -15zM163 14h186q28 0 44 15t16 35t-16 35t-44 15h-186q-28 0 -44 -15t-16 -35t16 -35t44 -15zM291 142h186q28 0 44 15t16 35t-16 35t-44 15h-186q-28 0 -44 -15t-16 -35t16 -35
t44 -15zM419 270h186q28 0 44 15t16 35t-16 35t-44 15h-186q-28 0 -44 -15t-16 -35t16 -35t44 -15zM419 398h186q28 0 44 15t16 35t-16 35t-44 15h-186q-28 0 -44 -15t-16 -35t16 -35t44 -15zM291 526h186q28 0 44 15t16 35t-16 35t-44 15h-186q-28 0 -44 -15t-16 -35
t16 -35t44 -15zM163 654h186q28 0 44 15t16 35t-16 35t-44 15h-186q-28 0 -44 -15t-16 -35t16 -35t44 -15zM163 782h698q28 0 44 15t16 35t-16 35t-44 15h-698q-28 0 -44 -15t-16 -35t16 -35t44 -15z" />
    <glyph glyph-name="minus" unicode="&#x2212;" 
d="M163 398h698q28 0 44 15t16 35t-16 35t-44 15h-698q-28 0 -44 -15t-16 -35t16 -35t44 -15z" />
    <glyph glyph-name="uni2215" unicode="&#x2215;" 
d="M163 14h186q28 0 44 15t16 35t-16 35t-44 15h-186q-28 0 -44 -15t-16 -35t16 -35t44 -15zM291 142h186q28 0 44 15t16 35t-16 35t-44 15h-186q-28 0 -44 -15t-16 -35t16 -35t44 -15zM419 270h186q28 0 44 15t16 35t-16 35t-44 15h-186q-28 0 -44 -15t-16 -35t16 -35
t44 -15zM547 398h186q28 0 44 15t16 35t-16 35t-44 15h-186q-28 0 -44 -15t-16 -35t16 -35t44 -15zM675 526h186q28 0 44 15t16 35t-16 35t-44 15h-186q-28 0 -44 -15t-16 -35t16 -35t44 -15zM803 654h186q28 0 44 15t16 35t-16 35t-44 15h-186q-28 0 -44 -15t-16 -35
t16 -35t44 -15z" />
    <glyph glyph-name="radical" unicode="&#x221a;" 
d="M163 14h186q28 0 44 15t16 35t-16 35t-44 15h-186q-28 0 -44 -15t-16 -35t16 -35t44 -15zM163 142h314q28 0 44 15t16 35t-16 35t-44 15h-314q-28 0 -44 -15t-16 -35t16 -35t44 -15zM163 270h442q28 0 44 15t16 35t-16 35t-44 15h-442q-28 0 -44 -15t-16 -35t16 -35
t44 -15zM163 398h186q28 0 44 15t16 35t-16 35t-44 15h-186q-28 0 -44 -15t-16 -35t16 -35t44 -15zM547 398h186q28 0 44 15t16 35t-16 35t-44 15h-186q-28 0 -44 -15t-16 -35t16 -35t44 -15zM675 526h186q28 0 44 15t16 35t-16 35t-44 15h-186q-28 0 -44 -15t-16 -35
t16 -35t44 -15zM803 654h186q28 0 44 15t16 35t-16 35t-44 15h-186q-28 0 -44 -15t-16 -35t16 -35t44 -15zM922 782h76q22 0 36.5 15t14.5 35t-14.5 35t-36.5 15h-76q-22 0 -36.5 -15t-14.5 -35t14.5 -35t36.5 -15z" />
    <glyph glyph-name="infinity" unicode="&#x221e;" 
d="M291 142h186q28 0 44 15t16 35t-16 35t-44 15h-186q-28 0 -44 -15t-16 -35t16 -35t44 -15zM675 142h186q28 0 44 15t16 35t-16 35t-44 15h-186q-28 0 -44 -15t-16 -35t16 -35t44 -15zM163 270h186q28 0 44 15t16 35t-16 35t-44 15h-186q-28 0 -44 -15t-16 -35t16 -35
t44 -15zM538 270h76q22 0 36.5 15t14.5 35t-14.5 35t-36.5 15h-76q-22 0 -36.5 -15t-14.5 -35t14.5 -35t36.5 -15zM803 270h186q28 0 44 15t16 35t-16 35t-44 15h-186q-28 0 -44 -15t-16 -35t16 -35t44 -15zM163 398h186q28 0 44 15t16 35t-16 35t-44 15h-186q-28 0 -44 -15
t-16 -35t16 -35t44 -15zM538 398h76q22 0 36.5 15t14.5 35t-14.5 35t-36.5 15h-76q-22 0 -36.5 -15t-14.5 -35t14.5 -35t36.5 -15zM803 398h186q28 0 44 15t16 35t-16 35t-44 15h-186q-28 0 -44 -15t-16 -35t16 -35t44 -15zM291 526h186q28 0 44 15t16 35t-16 35t-44 15
h-186q-28 0 -44 -15t-16 -35t16 -35t44 -15zM675 526h186q28 0 44 15t16 35t-16 35t-44 15h-186q-28 0 -44 -15t-16 -35t16 -35t44 -15z" />
    <glyph glyph-name="integral" unicode="&#x222b;" 
d="M163 -114h314q28 0 44 15t16 35t-16 35t-44 15h-314q-28 0 -44 -15t-16 -35t16 -35t44 -15zM419 14h186q28 0 44 15t16 35t-16 35t-44 15h-186q-28 0 -44 -15t-16 -35t16 -35t44 -15zM419 142h186q28 0 44 15t16 35t-16 35t-44 15h-186q-28 0 -44 -15t-16 -35t16 -35
t44 -15zM419 270h186q28 0 44 15t16 35t-16 35t-44 15h-186q-28 0 -44 -15t-16 -35t16 -35t44 -15zM419 398h186q28 0 44 15t16 35t-16 35t-44 15h-186q-28 0 -44 -15t-16 -35t16 -35t44 -15zM419 526h186q28 0 44 15t16 35t-16 35t-44 15h-186q-28 0 -44 -15t-16 -35
t16 -35t44 -15zM419 654h186q28 0 44 15t16 35t-16 35t-44 15h-186q-28 0 -44 -15t-16 -35t16 -35t44 -15zM547 782h314q28 0 44 15t16 35t-16 35t-44 15h-314q-28 0 -44 -15t-16 -35t16 -35t44 -15z" />
    <glyph glyph-name="approxequal" unicode="&#x2248;" 
d="M163 14h186q28 0 44 15t16 35t-16 35t-44 15h-186q-28 0 -44 -15t-16 -35t16 -35t44 -15zM547 14h314q28 0 44 15t16 35t-16 35t-44 15h-314q-28 0 -44 -15t-16 -35t16 -35t44 -15zM291 142h314q28 0 44 15t16 35t-16 35t-44 15h-314q-28 0 -44 -15t-16 -35t16 -35
t44 -15zM803 142h186q28 0 44 15t16 35t-16 35t-44 15h-186q-28 0 -44 -15t-16 -35t16 -35t44 -15zM163 398h186q28 0 44 15t16 35t-16 35t-44 15h-186q-28 0 -44 -15t-16 -35t16 -35t44 -15zM547 398h314q28 0 44 15t16 35t-16 35t-44 15h-314q-28 0 -44 -15t-16 -35
t16 -35t44 -15zM291 526h314q28 0 44 15t16 35t-16 35t-44 15h-314q-28 0 -44 -15t-16 -35t16 -35t44 -15zM803 526h186q28 0 44 15t16 35t-16 35t-44 15h-186q-28 0 -44 -15t-16 -35t16 -35t44 -15z" />
    <glyph glyph-name="notequal" unicode="&#x2260;" 
d="M163 14h186q28 0 44 15t16 35t-16 35t-44 15h-186q-28 0 -44 -15t-16 -35t16 -35t44 -15zM291 142h186q28 0 44 15t16 35t-16 35t-44 15h-186q-28 0 -44 -15t-16 -35t16 -35t44 -15zM163 270h698q28 0 44 15t16 35t-16 35t-44 15h-698q-28 0 -44 -15t-16 -35t16 -35
t44 -15zM419 398h186q28 0 44 15t16 35t-16 35t-44 15h-186q-28 0 -44 -15t-16 -35t16 -35t44 -15zM163 526h698q28 0 44 15t16 35t-16 35t-44 15h-698q-28 0 -44 -15t-16 -35t16 -35t44 -15zM547 654h186q28 0 44 15t16 35t-16 35t-44 15h-186q-28 0 -44 -15t-16 -35
t16 -35t44 -15zM675 782h186q28 0 44 15t16 35t-16 35t-44 15h-186q-28 0 -44 -15t-16 -35t16 -35t44 -15z" />
    <glyph glyph-name="lessequal" unicode="&#x2264;" 
d="M291 14h570q28 0 44 15t16 35t-16 35t-44 15h-570q-28 0 -44 -15t-16 -35t16 -35t44 -15zM547 270h186q28 0 44 15t16 35t-16 35t-44 15h-186q-28 0 -44 -15t-16 -35t16 -35t44 -15zM419 398h186q28 0 44 15t16 35t-16 35t-44 15h-186q-28 0 -44 -15t-16 -35t16 -35
t44 -15zM291 526h186q28 0 44 15t16 35t-16 35t-44 15h-186q-28 0 -44 -15t-16 -35t16 -35t44 -15zM419 654h186q28 0 44 15t16 35t-16 35t-44 15h-186q-28 0 -44 -15t-16 -35t16 -35t44 -15zM547 782h186q28 0 44 15t16 35t-16 35t-44 15h-186q-28 0 -44 -15t-16 -35
t16 -35t44 -15z" />
    <glyph glyph-name="greaterequal" unicode="&#x2265;" 
d="M163 14h570q28 0 44 15t16 35t-16 35t-44 15h-570q-28 0 -44 -15t-16 -35t16 -35t44 -15zM291 270h186q28 0 44 15t16 35t-16 35t-44 15h-186q-28 0 -44 -15t-16 -35t16 -35t44 -15zM419 398h186q28 0 44 15t16 35t-16 35t-44 15h-186q-28 0 -44 -15t-16 -35t16 -35
t44 -15zM547 526h186q28 0 44 15t16 35t-16 35t-44 15h-186q-28 0 -44 -15t-16 -35t16 -35t44 -15zM419 654h186q28 0 44 15t16 35t-16 35t-44 15h-186q-28 0 -44 -15t-16 -35t16 -35t44 -15zM291 782h186q28 0 44 15t16 35t-16 35t-44 15h-186q-28 0 -44 -15t-16 -35
t16 -35t44 -15z" />
    <glyph glyph-name="uni2501" unicode="&#x2501;" 
d="M35 270h954q28 0 44 15t16 35t-16 35t-44 15h-954q-28 0 -44 -15t-16 -35t16 -35t44 -15zM35 398h954q28 0 44 15t16 35t-16 35t-44 15h-954q-28 0 -44 -15t-16 -35t16 -35t44 -15z" />
    <glyph glyph-name="uni2503" unicode="&#x2503;" 
d="M419 -114h186q28 0 44 15t16 35t-16 35t-44 15h-186q-28 0 -44 -15t-16 -35t16 -35t44 -15zM419 14h186q28 0 44 15t16 35t-16 35t-44 15h-186q-28 0 -44 -15t-16 -35t16 -35t44 -15zM419 142h186q28 0 44 15t16 35t-16 35t-44 15h-186q-28 0 -44 -15t-16 -35t16 -35
t44 -15zM419 270h186q28 0 44 15t16 35t-16 35t-44 15h-186q-28 0 -44 -15t-16 -35t16 -35t44 -15zM419 398h186q28 0 44 15t16 35t-16 35t-44 15h-186q-28 0 -44 -15t-16 -35t16 -35t44 -15zM419 526h186q28 0 44 15t16 35t-16 35t-44 15h-186q-28 0 -44 -15t-16 -35
t16 -35t44 -15zM419 654h186q28 0 44 15t16 35t-16 35t-44 15h-186q-28 0 -44 -15t-16 -35t16 -35t44 -15zM419 782h186q28 0 44 15t16 35t-16 35t-44 15h-186q-28 0 -44 -15t-16 -35t16 -35t44 -15z" />
    <glyph glyph-name="uni250F" unicode="&#x250f;" 
d="M419 -114h186q28 0 44 15t16 35t-16 35t-44 15h-186q-28 0 -44 -15t-16 -35t16 -35t44 -15zM419 14h186q28 0 44 15t16 35t-16 35t-44 15h-186q-28 0 -44 -15t-16 -35t16 -35t44 -15zM419 142h186q28 0 44 15t16 35t-16 35t-44 15h-186q-28 0 -44 -15t-16 -35t16 -35
t44 -15zM419 270h570q28 0 44 15t16 35t-16 35t-44 15h-570q-28 0 -44 -15t-16 -35t16 -35t44 -15zM419 398h570q28 0 44 15t16 35t-16 35t-44 15h-570q-28 0 -44 -15t-16 -35t16 -35t44 -15z" />
    <glyph glyph-name="uni2513" unicode="&#x2513;" 
d="M419 -114h186q28 0 44 15t16 35t-16 35t-44 15h-186q-28 0 -44 -15t-16 -35t16 -35t44 -15zM419 14h186q28 0 44 15t16 35t-16 35t-44 15h-186q-28 0 -44 -15t-16 -35t16 -35t44 -15zM419 142h186q28 0 44 15t16 35t-16 35t-44 15h-186q-28 0 -44 -15t-16 -35t16 -35
t44 -15zM35 270h570q28 0 44 15t16 35t-16 35t-44 15h-570q-28 0 -44 -15t-16 -35t16 -35t44 -15zM35 398h570q28 0 44 15t16 35t-16 35t-44 15h-570q-28 0 -44 -15t-16 -35t16 -35t44 -15z" />
    <glyph glyph-name="uni2517" unicode="&#x2517;" 
d="M419 270h570q28 0 44 15t16 35t-16 35t-44 15h-570q-28 0 -44 -15t-16 -35t16 -35t44 -15zM419 398h570q28 0 44 15t16 35t-16 35t-44 15h-570q-28 0 -44 -15t-16 -35t16 -35t44 -15zM419 526h186q28 0 44 15t16 35t-16 35t-44 15h-186q-28 0 -44 -15t-16 -35t16 -35
t44 -15zM419 654h186q28 0 44 15t16 35t-16 35t-44 15h-186q-28 0 -44 -15t-16 -35t16 -35t44 -15zM419 782h186q28 0 44 15t16 35t-16 35t-44 15h-186q-28 0 -44 -15t-16 -35t16 -35t44 -15z" />
    <glyph glyph-name="uni251B" unicode="&#x251b;" 
d="M35 270h570q28 0 44 15t16 35t-16 35t-44 15h-570q-28 0 -44 -15t-16 -35t16 -35t44 -15zM35 398h570q28 0 44 15t16 35t-16 35t-44 15h-570q-28 0 -44 -15t-16 -35t16 -35t44 -15zM419 526h186q28 0 44 15t16 35t-16 35t-44 15h-186q-28 0 -44 -15t-16 -35t16 -35
t44 -15zM419 654h186q28 0 44 15t16 35t-16 35t-44 15h-186q-28 0 -44 -15t-16 -35t16 -35t44 -15zM419 782h186q28 0 44 15t16 35t-16 35t-44 15h-186q-28 0 -44 -15t-16 -35t16 -35t44 -15z" />
    <glyph glyph-name="uni2523" unicode="&#x2523;" 
d="M419 -114h186q28 0 44 15t16 35t-16 35t-44 15h-186q-28 0 -44 -15t-16 -35t16 -35t44 -15zM419 14h186q28 0 44 15t16 35t-16 35t-44 15h-186q-28 0 -44 -15t-16 -35t16 -35t44 -15zM419 142h186q28 0 44 15t16 35t-16 35t-44 15h-186q-28 0 -44 -15t-16 -35t16 -35
t44 -15zM419 270h570q28 0 44 15t16 35t-16 35t-44 15h-570q-28 0 -44 -15t-16 -35t16 -35t44 -15zM419 398h570q28 0 44 15t16 35t-16 35t-44 15h-570q-28 0 -44 -15t-16 -35t16 -35t44 -15zM419 526h186q28 0 44 15t16 35t-16 35t-44 15h-186q-28 0 -44 -15t-16 -35
t16 -35t44 -15zM419 654h186q28 0 44 15t16 35t-16 35t-44 15h-186q-28 0 -44 -15t-16 -35t16 -35t44 -15zM419 782h186q28 0 44 15t16 35t-16 35t-44 15h-186q-28 0 -44 -15t-16 -35t16 -35t44 -15z" />
    <glyph glyph-name="uni252B" unicode="&#x252b;" 
d="M419 -114h186q28 0 44 15t16 35t-16 35t-44 15h-186q-28 0 -44 -15t-16 -35t16 -35t44 -15zM419 14h186q28 0 44 15t16 35t-16 35t-44 15h-186q-28 0 -44 -15t-16 -35t16 -35t44 -15zM419 142h186q28 0 44 15t16 35t-16 35t-44 15h-186q-28 0 -44 -15t-16 -35t16 -35
t44 -15zM35 270h570q28 0 44 15t16 35t-16 35t-44 15h-570q-28 0 -44 -15t-16 -35t16 -35t44 -15zM35 398h570q28 0 44 15t16 35t-16 35t-44 15h-570q-28 0 -44 -15t-16 -35t16 -35t44 -15zM419 526h186q28 0 44 15t16 35t-16 35t-44 15h-186q-28 0 -44 -15t-16 -35t16 -35
t44 -15zM419 654h186q28 0 44 15t16 35t-16 35t-44 15h-186q-28 0 -44 -15t-16 -35t16 -35t44 -15zM419 782h186q28 0 44 15t16 35t-16 35t-44 15h-186q-28 0 -44 -15t-16 -35t16 -35t44 -15z" />
    <glyph glyph-name="uni2533" unicode="&#x2533;" 
d="M419 -114h186q28 0 44 15t16 35t-16 35t-44 15h-186q-28 0 -44 -15t-16 -35t16 -35t44 -15zM419 14h186q28 0 44 15t16 35t-16 35t-44 15h-186q-28 0 -44 -15t-16 -35t16 -35t44 -15zM419 142h186q28 0 44 15t16 35t-16 35t-44 15h-186q-28 0 -44 -15t-16 -35t16 -35
t44 -15zM35 270h954q28 0 44 15t16 35t-16 35t-44 15h-954q-28 0 -44 -15t-16 -35t16 -35t44 -15zM35 398h954q28 0 44 15t16 35t-16 35t-44 15h-954q-28 0 -44 -15t-16 -35t16 -35t44 -15z" />
    <glyph glyph-name="uni253B" unicode="&#x253b;" 
d="M35 270h954q28 0 44 15t16 35t-16 35t-44 15h-954q-28 0 -44 -15t-16 -35t16 -35t44 -15zM35 398h954q28 0 44 15t16 35t-16 35t-44 15h-954q-28 0 -44 -15t-16 -35t16 -35t44 -15zM419 526h186q28 0 44 15t16 35t-16 35t-44 15h-186q-28 0 -44 -15t-16 -35t16 -35
t44 -15zM419 654h186q28 0 44 15t16 35t-16 35t-44 15h-186q-28 0 -44 -15t-16 -35t16 -35t44 -15zM419 782h186q28 0 44 15t16 35t-16 35t-44 15h-186q-28 0 -44 -15t-16 -35t16 -35t44 -15z" />
    <glyph glyph-name="uni254B" unicode="&#x254b;" 
d="M419 -114h186q28 0 44 15t16 35t-16 35t-44 15h-186q-28 0 -44 -15t-16 -35t16 -35t44 -15zM419 14h186q28 0 44 15t16 35t-16 35t-44 15h-186q-28 0 -44 -15t-16 -35t16 -35t44 -15zM419 142h186q28 0 44 15t16 35t-16 35t-44 15h-186q-28 0 -44 -15t-16 -35t16 -35
t44 -15zM35 270h954q28 0 44 15t16 35t-16 35t-44 15h-954q-28 0 -44 -15t-16 -35t16 -35t44 -15zM35 398h954q28 0 44 15t16 35t-16 35t-44 15h-954q-28 0 -44 -15t-16 -35t16 -35t44 -15zM419 526h186q28 0 44 15t16 35t-16 35t-44 15h-186q-28 0 -44 -15t-16 -35t16 -35
t44 -15zM419 654h186q28 0 44 15t16 35t-16 35t-44 15h-186q-28 0 -44 -15t-16 -35t16 -35t44 -15zM419 782h186q28 0 44 15t16 35t-16 35t-44 15h-186q-28 0 -44 -15t-16 -35t16 -35t44 -15z" />
    <glyph glyph-name="uni256D" unicode="&#x256d;" 
d="M419 -114h186q28 0 44 15t16 35t-16 35t-44 15h-186q-28 0 -44 -15t-16 -35t16 -35t44 -15zM419 14h186q28 0 44 15t16 35t-16 35t-44 15h-186q-28 0 -44 -15t-16 -35t16 -35t44 -15zM419 142h314q28 0 44 15t16 35t-16 35t-44 15h-314q-28 0 -44 -15t-16 -35t16 -35
t44 -15zM547 270h442q28 0 44 15t16 35t-16 35t-44 15h-442q-28 0 -44 -15t-16 -35t16 -35t44 -15zM675 398h314q28 0 44 15t16 35t-16 35t-44 15h-314q-28 0 -44 -15t-16 -35t16 -35t44 -15z" />
    <glyph glyph-name="uni256E" unicode="&#x256e;" 
d="M419 -114h186q28 0 44 15t16 35t-16 35t-44 15h-186q-28 0 -44 -15t-16 -35t16 -35t44 -15zM419 14h186q28 0 44 15t16 35t-16 35t-44 15h-186q-28 0 -44 -15t-16 -35t16 -35t44 -15zM291 142h314q28 0 44 15t16 35t-16 35t-44 15h-314q-28 0 -44 -15t-16 -35t16 -35
t44 -15zM35 270h442q28 0 44 15t16 35t-16 35t-44 15h-442q-28 0 -44 -15t-16 -35t16 -35t44 -15zM35 398h314q28 0 44 15t16 35t-16 35t-44 15h-314q-28 0 -44 -15t-16 -35t16 -35t44 -15z" />
    <glyph glyph-name="uni256F" unicode="&#x256f;" 
d="M35 270h314q28 0 44 15t16 35t-16 35t-44 15h-314q-28 0 -44 -15t-16 -35t16 -35t44 -15zM35 398h442q28 0 44 15t16 35t-16 35t-44 15h-442q-28 0 -44 -15t-16 -35t16 -35t44 -15zM291 526h314q28 0 44 15t16 35t-16 35t-44 15h-314q-28 0 -44 -15t-16 -35t16 -35
t44 -15zM419 654h186q28 0 44 15t16 35t-16 35t-44 15h-186q-28 0 -44 -15t-16 -35t16 -35t44 -15zM419 782h186q28 0 44 15t16 35t-16 35t-44 15h-186q-28 0 -44 -15t-16 -35t16 -35t44 -15z" />
    <glyph glyph-name="uni2570" unicode="&#x2570;" 
d="M675 270h314q28 0 44 15t16 35t-16 35t-44 15h-314q-28 0 -44 -15t-16 -35t16 -35t44 -15zM547 398h442q28 0 44 15t16 35t-16 35t-44 15h-442q-28 0 -44 -15t-16 -35t16 -35t44 -15zM419 526h314q28 0 44 15t16 35t-16 35t-44 15h-314q-28 0 -44 -15t-16 -35t16 -35
t44 -15zM419 654h186q28 0 44 15t16 35t-16 35t-44 15h-186q-28 0 -44 -15t-16 -35t16 -35t44 -15zM419 782h186q28 0 44 15t16 35t-16 35t-44 15h-186q-28 0 -44 -15t-16 -35t16 -35t44 -15z" />
    <glyph glyph-name="uni2571" unicode="&#x2571;" 
d="M35 -114h186q28 0 44 15t16 35t-16 35t-44 15h-186q-28 0 -44 -15t-16 -35t16 -35t44 -15zM35 14h314q28 0 44 15t16 35t-16 35t-44 15h-314q-28 0 -44 -15t-16 -35t16 -35t44 -15zM163 142h314q28 0 44 15t16 35t-16 35t-44 15h-314q-28 0 -44 -15t-16 -35t16 -35
t44 -15zM291 270h314q28 0 44 15t16 35t-16 35t-44 15h-314q-28 0 -44 -15t-16 -35t16 -35t44 -15zM419 398h314q28 0 44 15t16 35t-16 35t-44 15h-314q-28 0 -44 -15t-16 -35t16 -35t44 -15zM547 526h314q28 0 44 15t16 35t-16 35t-44 15h-314q-28 0 -44 -15t-16 -35
t16 -35t44 -15zM675 654h314q28 0 44 15t16 35t-16 35t-44 15h-314q-28 0 -44 -15t-16 -35t16 -35t44 -15zM803 782h186q28 0 44 15t16 35t-16 35t-44 15h-186q-28 0 -44 -15t-16 -35t16 -35t44 -15z" />
    <glyph glyph-name="uni2572" unicode="&#x2572;" 
d="M803 -114h186q28 0 44 15t16 35t-16 35t-44 15h-186q-28 0 -44 -15t-16 -35t16 -35t44 -15zM675 14h314q28 0 44 15t16 35t-16 35t-44 15h-314q-28 0 -44 -15t-16 -35t16 -35t44 -15zM547 142h314q28 0 44 15t16 35t-16 35t-44 15h-314q-28 0 -44 -15t-16 -35t16 -35
t44 -15zM419 270h314q28 0 44 15t16 35t-16 35t-44 15h-314q-28 0 -44 -15t-16 -35t16 -35t44 -15zM291 398h314q28 0 44 15t16 35t-16 35t-44 15h-314q-28 0 -44 -15t-16 -35t16 -35t44 -15zM163 526h314q28 0 44 15t16 35t-16 35t-44 15h-314q-28 0 -44 -15t-16 -35
t16 -35t44 -15zM35 654h314q28 0 44 15t16 35t-16 35t-44 15h-314q-28 0 -44 -15t-16 -35t16 -35t44 -15zM35 782h186q28 0 44 15t16 35t-16 35t-44 15h-186q-28 0 -44 -15t-16 -35t16 -35t44 -15z" />
    <glyph glyph-name="uni2573" unicode="&#x2573;" 
d="M35 -114h186q28 0 44 15t16 35t-16 35t-44 15h-186q-28 0 -44 -15t-16 -35t16 -35t44 -15zM803 -114h186q28 0 44 15t16 35t-16 35t-44 15h-186q-28 0 -44 -15t-16 -35t16 -35t44 -15zM35 14h314q28 0 44 15t16 35t-16 35t-44 15h-314q-28 0 -44 -15t-16 -35t16 -35
t44 -15zM675 14h314q28 0 44 15t16 35t-16 35t-44 15h-314q-28 0 -44 -15t-16 -35t16 -35t44 -15zM163 142h698q28 0 44 15t16 35t-16 35t-44 15h-698q-28 0 -44 -15t-16 -35t16 -35t44 -15zM291 270h442q28 0 44 15t16 35t-16 35t-44 15h-442q-28 0 -44 -15t-16 -35t16 -35
t44 -15zM291 398h442q28 0 44 15t16 35t-16 35t-44 15h-442q-28 0 -44 -15t-16 -35t16 -35t44 -15zM163 526h698q28 0 44 15t16 35t-16 35t-44 15h-698q-28 0 -44 -15t-16 -35t16 -35t44 -15zM35 654h314q28 0 44 15t16 35t-16 35t-44 15h-314q-28 0 -44 -15t-16 -35t16 -35
t44 -15zM675 654h314q28 0 44 15t16 35t-16 35t-44 15h-314q-28 0 -44 -15t-16 -35t16 -35t44 -15zM35 782h186q28 0 44 15t16 35t-16 35t-44 15h-186q-28 0 -44 -15t-16 -35t16 -35t44 -15zM803 782h186q28 0 44 15t16 35t-16 35t-44 15h-186q-28 0 -44 -15t-16 -35t16 -35
t44 -15z" />
    <glyph glyph-name="upblock" unicode="&#x2580;" 
d="M35 398h954q28 0 44 15t16 35t-16 35t-44 15h-954q-28 0 -44 -15t-16 -35t16 -35t44 -15zM35 526h954q28 0 44 15t16 35t-16 35t-44 15h-954q-28 0 -44 -15t-16 -35t16 -35t44 -15zM35 654h954q28 0 44 15t16 35t-16 35t-44 15h-954q-28 0 -44 -15t-16 -35t16 -35t44 -15
zM35 782h954q28 0 44 15t16 35t-16 35t-44 15h-954q-28 0 -44 -15t-16 -35t16 -35t44 -15z" />
    <glyph glyph-name="uni2581" unicode="&#x2581;" 
d="M35 -114h954q28 0 44 15t16 35t-16 35t-44 15h-954q-28 0 -44 -15t-16 -35t16 -35t44 -15z" />
    <glyph glyph-name="uni2582" unicode="&#x2582;" 
d="M35 -114h954q28 0 44 15t16 35t-16 35t-44 15h-954q-28 0 -44 -15t-16 -35t16 -35t44 -15zM35 14h954q28 0 44 15t16 35t-16 35t-44 15h-954q-28 0 -44 -15t-16 -35t16 -35t44 -15z" />
    <glyph glyph-name="uni2583" unicode="&#x2583;" 
d="M35 -114h954q28 0 44 15t16 35t-16 35t-44 15h-954q-28 0 -44 -15t-16 -35t16 -35t44 -15zM35 14h954q28 0 44 15t16 35t-16 35t-44 15h-954q-28 0 -44 -15t-16 -35t16 -35t44 -15zM35 142h954q28 0 44 15t16 35t-16 35t-44 15h-954q-28 0 -44 -15t-16 -35t16 -35t44 -15
z" />
    <glyph glyph-name="dnblock" unicode="&#x2584;" 
d="M35 -114h954q28 0 44 15t16 35t-16 35t-44 15h-954q-28 0 -44 -15t-16 -35t16 -35t44 -15zM35 14h954q28 0 44 15t16 35t-16 35t-44 15h-954q-28 0 -44 -15t-16 -35t16 -35t44 -15zM35 142h954q28 0 44 15t16 35t-16 35t-44 15h-954q-28 0 -44 -15t-16 -35t16 -35t44 -15
zM35 270h954q28 0 44 15t16 35t-16 35t-44 15h-954q-28 0 -44 -15t-16 -35t16 -35t44 -15z" />
    <glyph glyph-name="uni2585" unicode="&#x2585;" 
d="M35 -114h954q28 0 44 15t16 35t-16 35t-44 15h-954q-28 0 -44 -15t-16 -35t16 -35t44 -15zM35 14h954q28 0 44 15t16 35t-16 35t-44 15h-954q-28 0 -44 -15t-16 -35t16 -35t44 -15zM35 142h954q28 0 44 15t16 35t-16 35t-44 15h-954q-28 0 -44 -15t-16 -35t16 -35t44 -15
zM35 270h954q28 0 44 15t16 35t-16 35t-44 15h-954q-28 0 -44 -15t-16 -35t16 -35t44 -15zM35 398h954q28 0 44 15t16 35t-16 35t-44 15h-954q-28 0 -44 -15t-16 -35t16 -35t44 -15z" />
    <glyph glyph-name="uni2586" unicode="&#x2586;" 
d="M35 -114h954q28 0 44 15t16 35t-16 35t-44 15h-954q-28 0 -44 -15t-16 -35t16 -35t44 -15zM35 14h954q28 0 44 15t16 35t-16 35t-44 15h-954q-28 0 -44 -15t-16 -35t16 -35t44 -15zM35 142h954q28 0 44 15t16 35t-16 35t-44 15h-954q-28 0 -44 -15t-16 -35t16 -35t44 -15
zM35 270h954q28 0 44 15t16 35t-16 35t-44 15h-954q-28 0 -44 -15t-16 -35t16 -35t44 -15zM35 398h954q28 0 44 15t16 35t-16 35t-44 15h-954q-28 0 -44 -15t-16 -35t16 -35t44 -15zM35 526h954q28 0 44 15t16 35t-16 35t-44 15h-954q-28 0 -44 -15t-16 -35t16 -35t44 -15z
" />
    <glyph glyph-name="uni2587" unicode="&#x2587;" 
d="M35 -114h954q28 0 44 15t16 35t-16 35t-44 15h-954q-28 0 -44 -15t-16 -35t16 -35t44 -15zM35 14h954q28 0 44 15t16 35t-16 35t-44 15h-954q-28 0 -44 -15t-16 -35t16 -35t44 -15zM35 142h954q28 0 44 15t16 35t-16 35t-44 15h-954q-28 0 -44 -15t-16 -35t16 -35t44 -15
zM35 270h954q28 0 44 15t16 35t-16 35t-44 15h-954q-28 0 -44 -15t-16 -35t16 -35t44 -15zM35 398h954q28 0 44 15t16 35t-16 35t-44 15h-954q-28 0 -44 -15t-16 -35t16 -35t44 -15zM35 526h954q28 0 44 15t16 35t-16 35t-44 15h-954q-28 0 -44 -15t-16 -35t16 -35t44 -15z
M35 654h954q28 0 44 15t16 35t-16 35t-44 15h-954q-28 0 -44 -15t-16 -35t16 -35t44 -15z" />
    <glyph glyph-name="block" unicode="&#x2588;" 
d="M35 -114h954q28 0 44 15t16 35t-16 35t-44 15h-954q-28 0 -44 -15t-16 -35t16 -35t44 -15zM35 14h954q28 0 44 15t16 35t-16 35t-44 15h-954q-28 0 -44 -15t-16 -35t16 -35t44 -15zM35 142h954q28 0 44 15t16 35t-16 35t-44 15h-954q-28 0 -44 -15t-16 -35t16 -35t44 -15
zM35 270h954q28 0 44 15t16 35t-16 35t-44 15h-954q-28 0 -44 -15t-16 -35t16 -35t44 -15zM35 398h954q28 0 44 15t16 35t-16 35t-44 15h-954q-28 0 -44 -15t-16 -35t16 -35t44 -15zM35 526h954q28 0 44 15t16 35t-16 35t-44 15h-954q-28 0 -44 -15t-16 -35t16 -35t44 -15z
M35 654h954q28 0 44 15t16 35t-16 35t-44 15h-954q-28 0 -44 -15t-16 -35t16 -35t44 -15zM35 782h954q28 0 44 15t16 35t-16 35t-44 15h-954q-28 0 -44 -15t-16 -35t16 -35t44 -15z" />
    <glyph glyph-name="uni2589" unicode="&#x2589;" 
d="M35 -114h698q28 0 44 15t16 35t-16 35t-44 15h-698q-28 0 -44 -15t-16 -35t16 -35t44 -15zM35 14h698q28 0 44 15t16 35t-16 35t-44 15h-698q-28 0 -44 -15t-16 -35t16 -35t44 -15zM35 142h698q28 0 44 15t16 35t-16 35t-44 15h-698q-28 0 -44 -15t-16 -35t16 -35t44 -15
zM35 270h698q28 0 44 15t16 35t-16 35t-44 15h-698q-28 0 -44 -15t-16 -35t16 -35t44 -15zM35 398h698q28 0 44 15t16 35t-16 35t-44 15h-698q-28 0 -44 -15t-16 -35t16 -35t44 -15zM35 526h698q28 0 44 15t16 35t-16 35t-44 15h-698q-28 0 -44 -15t-16 -35t16 -35t44 -15z
M35 654h698q28 0 44 15t16 35t-16 35t-44 15h-698q-28 0 -44 -15t-16 -35t16 -35t44 -15zM35 782h698q28 0 44 15t16 35t-16 35t-44 15h-698q-28 0 -44 -15t-16 -35t16 -35t44 -15z" />
    <glyph glyph-name="uni258A" unicode="&#x258a;" 
d="M35 -114h698q28 0 44 15t16 35t-16 35t-44 15h-698q-28 0 -44 -15t-16 -35t16 -35t44 -15zM35 14h698q28 0 44 15t16 35t-16 35t-44 15h-698q-28 0 -44 -15t-16 -35t16 -35t44 -15zM35 142h698q28 0 44 15t16 35t-16 35t-44 15h-698q-28 0 -44 -15t-16 -35t16 -35t44 -15
zM35 270h698q28 0 44 15t16 35t-16 35t-44 15h-698q-28 0 -44 -15t-16 -35t16 -35t44 -15zM35 398h698q28 0 44 15t16 35t-16 35t-44 15h-698q-28 0 -44 -15t-16 -35t16 -35t44 -15zM35 526h698q28 0 44 15t16 35t-16 35t-44 15h-698q-28 0 -44 -15t-16 -35t16 -35t44 -15z
M35 654h698q28 0 44 15t16 35t-16 35t-44 15h-698q-28 0 -44 -15t-16 -35t16 -35t44 -15zM35 782h698q28 0 44 15t16 35t-16 35t-44 15h-698q-28 0 -44 -15t-16 -35t16 -35t44 -15z" />
    <glyph glyph-name="uni258B" unicode="&#x258b;" 
d="M35 -114h570q28 0 44 15t16 35t-16 35t-44 15h-570q-28 0 -44 -15t-16 -35t16 -35t44 -15zM35 14h570q28 0 44 15t16 35t-16 35t-44 15h-570q-28 0 -44 -15t-16 -35t16 -35t44 -15zM35 142h570q28 0 44 15t16 35t-16 35t-44 15h-570q-28 0 -44 -15t-16 -35t16 -35t44 -15
zM35 270h570q28 0 44 15t16 35t-16 35t-44 15h-570q-28 0 -44 -15t-16 -35t16 -35t44 -15zM35 398h570q28 0 44 15t16 35t-16 35t-44 15h-570q-28 0 -44 -15t-16 -35t16 -35t44 -15zM35 526h570q28 0 44 15t16 35t-16 35t-44 15h-570q-28 0 -44 -15t-16 -35t16 -35t44 -15z
M35 654h570q28 0 44 15t16 35t-16 35t-44 15h-570q-28 0 -44 -15t-16 -35t16 -35t44 -15zM35 782h570q28 0 44 15t16 35t-16 35t-44 15h-570q-28 0 -44 -15t-16 -35t16 -35t44 -15z" />
    <glyph glyph-name="lfblock" unicode="&#x258c;" 
d="M35 -114h442q28 0 44 15t16 35t-16 35t-44 15h-442q-28 0 -44 -15t-16 -35t16 -35t44 -15zM35 14h442q28 0 44 15t16 35t-16 35t-44 15h-442q-28 0 -44 -15t-16 -35t16 -35t44 -15zM35 142h442q28 0 44 15t16 35t-16 35t-44 15h-442q-28 0 -44 -15t-16 -35t16 -35t44 -15
zM35 270h442q28 0 44 15t16 35t-16 35t-44 15h-442q-28 0 -44 -15t-16 -35t16 -35t44 -15zM35 398h442q28 0 44 15t16 35t-16 35t-44 15h-442q-28 0 -44 -15t-16 -35t16 -35t44 -15zM35 526h442q28 0 44 15t16 35t-16 35t-44 15h-442q-28 0 -44 -15t-16 -35t16 -35t44 -15z
M35 654h442q28 0 44 15t16 35t-16 35t-44 15h-442q-28 0 -44 -15t-16 -35t16 -35t44 -15zM35 782h442q28 0 44 15t16 35t-16 35t-44 15h-442q-28 0 -44 -15t-16 -35t16 -35t44 -15z" />
    <glyph glyph-name="uni258D" unicode="&#x258d;" 
d="M35 -114h314q28 0 44 15t16 35t-16 35t-44 15h-314q-28 0 -44 -15t-16 -35t16 -35t44 -15zM35 14h314q28 0 44 15t16 35t-16 35t-44 15h-314q-28 0 -44 -15t-16 -35t16 -35t44 -15zM35 142h314q28 0 44 15t16 35t-16 35t-44 15h-314q-28 0 -44 -15t-16 -35t16 -35t44 -15
zM35 270h314q28 0 44 15t16 35t-16 35t-44 15h-314q-28 0 -44 -15t-16 -35t16 -35t44 -15zM35 398h314q28 0 44 15t16 35t-16 35t-44 15h-314q-28 0 -44 -15t-16 -35t16 -35t44 -15zM35 526h314q28 0 44 15t16 35t-16 35t-44 15h-314q-28 0 -44 -15t-16 -35t16 -35t44 -15z
M35 654h314q28 0 44 15t16 35t-16 35t-44 15h-314q-28 0 -44 -15t-16 -35t16 -35t44 -15zM35 782h314q28 0 44 15t16 35t-16 35t-44 15h-314q-28 0 -44 -15t-16 -35t16 -35t44 -15z" />
    <glyph glyph-name="uni258E" unicode="&#x258e;" 
d="M35 -114h186q28 0 44 15t16 35t-16 35t-44 15h-186q-28 0 -44 -15t-16 -35t16 -35t44 -15zM35 14h186q28 0 44 15t16 35t-16 35t-44 15h-186q-28 0 -44 -15t-16 -35t16 -35t44 -15zM35 142h186q28 0 44 15t16 35t-16 35t-44 15h-186q-28 0 -44 -15t-16 -35t16 -35t44 -15
zM35 270h186q28 0 44 15t16 35t-16 35t-44 15h-186q-28 0 -44 -15t-16 -35t16 -35t44 -15zM35 398h186q28 0 44 15t16 35t-16 35t-44 15h-186q-28 0 -44 -15t-16 -35t16 -35t44 -15zM35 526h186q28 0 44 15t16 35t-16 35t-44 15h-186q-28 0 -44 -15t-16 -35t16 -35t44 -15z
M35 654h186q28 0 44 15t16 35t-16 35t-44 15h-186q-28 0 -44 -15t-16 -35t16 -35t44 -15zM35 782h186q28 0 44 15t16 35t-16 35t-44 15h-186q-28 0 -44 -15t-16 -35t16 -35t44 -15z" />
    <glyph glyph-name="uni258F" unicode="&#x258f;" 
d="M35 -114h186q28 0 44 15t16 35t-16 35t-44 15h-186q-28 0 -44 -15t-16 -35t16 -35t44 -15zM35 14h186q28 0 44 15t16 35t-16 35t-44 15h-186q-28 0 -44 -15t-16 -35t16 -35t44 -15zM35 142h186q28 0 44 15t16 35t-16 35t-44 15h-186q-28 0 -44 -15t-16 -35t16 -35t44 -15
zM35 270h186q28 0 44 15t16 35t-16 35t-44 15h-186q-28 0 -44 -15t-16 -35t16 -35t44 -15zM35 398h186q28 0 44 15t16 35t-16 35t-44 15h-186q-28 0 -44 -15t-16 -35t16 -35t44 -15zM35 526h186q28 0 44 15t16 35t-16 35t-44 15h-186q-28 0 -44 -15t-16 -35t16 -35t44 -15z
M35 654h186q28 0 44 15t16 35t-16 35t-44 15h-186q-28 0 -44 -15t-16 -35t16 -35t44 -15zM35 782h186q28 0 44 15t16 35t-16 35t-44 15h-186q-28 0 -44 -15t-16 -35t16 -35t44 -15z" />
    <glyph glyph-name="rtblock" unicode="&#x2590;" 
d="M547 -114h442q28 0 44 15t16 35t-16 35t-44 15h-442q-28 0 -44 -15t-16 -35t16 -35t44 -15zM547 14h442q28 0 44 15t16 35t-16 35t-44 15h-442q-28 0 -44 -15t-16 -35t16 -35t44 -15zM547 142h442q28 0 44 15t16 35t-16 35t-44 15h-442q-28 0 -44 -15t-16 -35t16 -35
t44 -15zM547 270h442q28 0 44 15t16 35t-16 35t-44 15h-442q-28 0 -44 -15t-16 -35t16 -35t44 -15zM547 398h442q28 0 44 15t16 35t-16 35t-44 15h-442q-28 0 -44 -15t-16 -35t16 -35t44 -15zM547 526h442q28 0 44 15t16 35t-16 35t-44 15h-442q-28 0 -44 -15t-16 -35
t16 -35t44 -15zM547 654h442q28 0 44 15t16 35t-16 35t-44 15h-442q-28 0 -44 -15t-16 -35t16 -35t44 -15zM547 782h442q28 0 44 15t16 35t-16 35t-44 15h-442q-28 0 -44 -15t-16 -35t16 -35t44 -15z" />
    <glyph glyph-name="dkshade" unicode="&#x2593;" 
d="M291 -114h186q28 0 44 15t16 35t-16 35t-44 15h-186q-28 0 -44 -15t-16 -35t16 -35t44 -15zM803 -114h186q28 0 44 15t16 35t-16 35t-44 15h-186q-28 0 -44 -15t-16 -35t16 -35t44 -15zM291 14h186q28 0 44 15t16 35t-16 35t-44 15h-186q-28 0 -44 -15t-16 -35t16 -35
t44 -15zM803 14h186q28 0 44 15t16 35t-16 35t-44 15h-186q-28 0 -44 -15t-16 -35t16 -35t44 -15zM35 142h186q28 0 44 15t16 35t-16 35t-44 15h-186q-28 0 -44 -15t-16 -35t16 -35t44 -15zM547 142h186q28 0 44 15t16 35t-16 35t-44 15h-186q-28 0 -44 -15t-16 -35t16 -35
t44 -15zM35 270h186q28 0 44 15t16 35t-16 35t-44 15h-186q-28 0 -44 -15t-16 -35t16 -35t44 -15zM547 270h186q28 0 44 15t16 35t-16 35t-44 15h-186q-28 0 -44 -15t-16 -35t16 -35t44 -15zM291 398h186q28 0 44 15t16 35t-16 35t-44 15h-186q-28 0 -44 -15t-16 -35t16 -35
t44 -15zM803 398h186q28 0 44 15t16 35t-16 35t-44 15h-186q-28 0 -44 -15t-16 -35t16 -35t44 -15zM291 526h186q28 0 44 15t16 35t-16 35t-44 15h-186q-28 0 -44 -15t-16 -35t16 -35t44 -15zM803 526h186q28 0 44 15t16 35t-16 35t-44 15h-186q-28 0 -44 -15t-16 -35
t16 -35t44 -15zM35 654h186q28 0 44 15t16 35t-16 35t-44 15h-186q-28 0 -44 -15t-16 -35t16 -35t44 -15zM547 654h186q28 0 44 15t16 35t-16 35t-44 15h-186q-28 0 -44 -15t-16 -35t16 -35t44 -15zM35 782h186q28 0 44 15t16 35t-16 35t-44 15h-186q-28 0 -44 -15t-16 -35
t16 -35t44 -15zM547 782h186q28 0 44 15t16 35t-16 35t-44 15h-186q-28 0 -44 -15t-16 -35t16 -35t44 -15z" />
    <glyph glyph-name="uni2594" unicode="&#x2594;" 
d="M35 782h954q28 0 44 15t16 35t-16 35t-44 15h-954q-28 0 -44 -15t-16 -35t16 -35t44 -15z" />
    </font>
</defs>
</svg>
